{"glyphs":{"0":{"ha":859,"x_min":0,"x_max":0,"o":"m 629 574 b 631 489 631 547 631 519 b 430 98 631 234 562 98 b 251 274 342 98 281 159 z m 231 406 b 228 489 229 432 228 460 b 430 880 228 745 298 880 b 608 703 518 880 578 819 z m 430 1000 b 89 489 211 1000 89 818 b 430 -22 89 161 211 -22 b 771 489 649 -22 771 161 b 430 1000 771 818 649 1000 z "},"1":{"ha":859,"x_min":0,"x_max":0,"o":"m 534 120 l 534 979 l 395 979 l 112 793 l 112 650 l 384 827 l 395 827 l 395 120 l 114 120 l 114 0 l 802 0 l 802 120 z "},"2":{"ha":859,"x_min":0,"x_max":0,"o":"m 106 698 l 106 694 l 239 694 l 239 698 b 420 880 239 807 311 880 b 598 714 528 880 598 814 b 440 451 598 640 567 589 l 113 97 l 113 0 l 753 0 l 753 123 l 311 123 l 311 135 l 529 368 b 737 722 688 534 737 618 b 424 999 737 886 610 999 b 106 698 237 999 106 874 z "},"3":{"ha":859,"x_min":0,"x_max":0,"o":"m 310 447 l 423 447 b 634 273 552 447 634 379 b 427 102 634 168 554 102 b 218 266 309 102 227 166 l 85 266 b 431 -20 94 93 231 -20 b 776 267 633 -20 776 98 b 567 507 776 399 698 490 l 567 517 b 736 743 673 542 736 627 b 426 999 736 894 608 999 b 104 718 237 999 115 892 l 236 718 b 421 880 245 819 315 880 b 598 723 528 880 598 819 b 419 559 598 627 525 559 l 310 559 z "},"4":{"ha":859,"x_min":0,"x_max":0,"o":"m 532 0 l 663 0 l 663 201 l 807 201 l 807 319 l 663 319 l 663 590 l 536 590 l 536 319 l 239 319 l 239 329 l 555 979 l 412 979 l 90 313 l 90 201 l 532 201 z "},"5":{"ha":859,"x_min":0,"x_max":0,"o":"m 422 -20 b 764 317 627 -20 764 116 b 457 643 764 509 638 643 b 252 553 370 643 298 612 l 241 553 l 267 856 l 708 856 l 708 979 l 155 979 l 106 422 l 241 422 b 428 526 278 489 345 526 b 628 314 547 526 628 440 b 428 104 628 188 548 104 b 227 265 320 104 239 170 l 92 265 b 422 -20 100 96 233 -20 z "},"6":{"ha":859,"x_min":0,"x_max":0,"o":"m 778 318 b 475 629 778 497 650 629 b 315 564 414 629 346 602 l 304 568 b 340 623 310 580 310 581 l 600 979 l 439 979 b 224 679 427 962 239 703 b 90 321 129 543 90 437 b 434 -20 90 121 233 -20 b 778 318 633 -20 778 123 z m 433 102 b 227 311 316 102 227 192 b 433 522 227 431 316 522 b 640 311 551 522 640 431 b 433 102 640 192 551 102 z "},"7":{"ha":859,"x_min":0,"x_max":0,"o":"m 186 0 l 336 0 l 768 854 l 768 979 l 102 979 l 102 857 l 624 857 l 624 848 z "},"8":{"ha":859,"x_min":0,"x_max":0,"o":"m 432 567 b 253 726 324 567 253 631 b 432 885 253 821 324 885 b 611 726 539 885 611 821 b 432 567 611 631 539 567 z m 432 94 b 219 274 306 94 219 168 b 432 454 219 380 306 454 b 645 274 558 454 645 380 b 432 94 645 168 558 94 z m 432 -22 b 789 262 643 -22 789 94 b 585 511 789 385 707 486 l 585 522 b 749 739 687 550 749 633 b 432 1000 749 892 618 1000 b 115 739 246 1000 115 892 b 278 522 115 633 178 549 l 278 511 b 75 262 155 482 75 383 b 432 -22 75 94 220 -22 z "},"9":{"ha":859,"x_min":0,"x_max":0,"o":"m 85 661 b 387 350 85 481 212 350 b 545 416 448 350 514 376 l 557 411 b 520 356 550 399 543 388 l 260 0 l 420 0 b 636 300 433 16 620 275 b 772 658 732 439 772 545 b 429 999 772 858 630 999 b 85 661 230 999 85 856 z m 429 878 b 635 667 546 878 635 787 b 429 457 635 548 546 457 b 222 667 311 457 222 548 b 429 878 222 787 311 878 z "}," ":{"ha":859,"x_min":0,"x_max":0,"o":""},"A":{"ha":859,"x_min":0,"x_max":0,"o":"m 296 385 l 424 822 l 429 822 l 555 385 z m 667 0 l 817 0 l 508 979 l 351 979 l 42 0 l 184 0 l 263 270 l 589 270 z "},"À":{"ha":859,"x_min":0,"x_max":0,"o":"m 512 1092 l 313 1300 l 155 1300 l 371 1092 z m 296 385 l 424 822 l 429 822 l 555 385 z m 667 0 l 817 0 l 508 979 l 351 979 l 42 0 l 184 0 l 263 270 l 589 270 z "},"Á":{"ha":859,"x_min":0,"x_max":0,"o":"m 703 1300 l 545 1300 l 346 1092 l 486 1092 z m 296 385 l 424 822 l 429 822 l 555 385 z m 667 0 l 817 0 l 508 979 l 351 979 l 42 0 l 184 0 l 263 270 l 589 270 z "},"Ä":{"ha":859,"x_min":0,"x_max":0,"o":"m 572 1114 b 657 1202 618 1114 657 1154 b 572 1289 657 1249 618 1289 b 486 1202 526 1289 486 1249 b 572 1114 486 1154 526 1114 z m 287 1114 b 372 1202 332 1114 372 1154 b 287 1289 372 1249 332 1289 b 201 1202 241 1289 201 1249 b 287 1114 201 1154 241 1114 z m 296 385 l 424 822 l 429 822 l 555 385 z m 667 0 l 817 0 l 508 979 l 351 979 l 42 0 l 184 0 l 263 270 l 589 270 z "},"Ǟ":{"ha":859,"x_min":0,"x_max":0,"o":"m 661 1407 l 198 1407 l 198 1316 l 661 1316 z m 489 1143 b 568 1061 489 1098 525 1061 b 648 1143 612 1061 648 1098 b 568 1225 648 1188 612 1225 b 489 1143 525 1225 489 1188 z m 212 1143 b 292 1061 212 1098 248 1061 b 371 1143 336 1061 371 1098 b 292 1225 371 1188 336 1225 b 212 1143 248 1225 212 1188 z m 296 385 l 424 822 l 429 822 l 555 385 z m 667 0 l 817 0 l 508 979 l 351 979 l 42 0 l 184 0 l 263 270 l 589 270 z "},"Å":{"ha":859,"x_min":0,"x_max":0,"o":"m 429 1254 b 497 1187 468 1254 497 1225 b 429 1119 497 1148 469 1119 b 361 1187 391 1119 361 1147 b 429 1254 361 1225 391 1254 z m 429 1056 b 562 1187 505 1056 562 1113 b 429 1318 562 1261 505 1318 b 296 1187 354 1318 296 1261 b 429 1056 296 1113 355 1056 z m 296 385 l 424 822 l 429 822 l 555 385 z m 667 0 l 817 0 l 508 979 l 351 979 l 42 0 l 184 0 l 263 270 l 589 270 z "},"Ǻ":{"ha":859,"x_min":0,"x_max":0,"o":"m 582 1472 l 449 1472 l 372 1351 l 490 1351 z m 429 1244 b 497 1177 468 1244 497 1216 b 429 1109 497 1138 469 1109 b 361 1177 391 1109 361 1138 b 429 1244 361 1216 391 1244 z m 429 1046 b 562 1177 505 1046 562 1103 b 429 1308 562 1251 505 1308 b 296 1177 354 1308 296 1251 b 429 1046 296 1103 355 1046 z m 296 385 l 424 822 l 429 822 l 555 385 z m 667 0 l 817 0 l 508 979 l 351 979 l 42 0 l 184 0 l 263 270 l 589 270 z "},"Ã":{"ha":859,"x_min":0,"x_max":0,"o":"m 588 1281 b 523 1186 585 1217 562 1186 b 327 1289 462 1186 438 1289 b 178 1100 237 1289 178 1218 l 271 1100 b 336 1196 273 1165 296 1196 b 532 1093 404 1196 425 1093 b 681 1281 620 1093 681 1165 z m 296 385 l 424 822 l 429 822 l 555 385 z m 667 0 l 817 0 l 508 979 l 351 979 l 42 0 l 184 0 l 263 270 l 589 270 z "},"Ằ":{"ha":859,"x_min":0,"x_max":0,"o":"m 508 1272 l 396 1428 l 260 1428 l 391 1272 z m 567 1267 b 429 1159 566 1200 515 1159 b 292 1267 344 1159 292 1200 l 187 1267 b 429 1070 187 1148 279 1070 b 671 1267 580 1070 671 1148 z m 296 385 l 424 822 l 429 822 l 555 385 z m 667 0 l 817 0 l 508 979 l 351 979 l 42 0 l 184 0 l 263 270 l 589 270 z "},"Ǡ":{"ha":859,"x_min":0,"x_max":0,"o":"m 661 1407 l 198 1407 l 198 1316 l 661 1316 z m 345 1152 b 430 1066 345 1104 383 1066 b 514 1152 477 1066 514 1104 b 430 1238 514 1200 477 1238 b 345 1152 383 1238 345 1200 z m 296 385 l 424 822 l 429 822 l 555 385 z m 667 0 l 817 0 l 508 979 l 351 979 l 42 0 l 184 0 l 263 270 l 589 270 z "},"Ḁ":{"ha":859,"x_min":0,"x_max":0,"o":"m 429 -314 b 353 -235 386 -314 353 -280 b 429 -157 353 -191 386 -157 b 506 -235 473 -157 506 -191 b 429 -314 506 -280 473 -314 z m 429 -77 b 274 -235 344 -77 274 -148 b 429 -394 274 -323 344 -394 b 585 -235 515 -394 585 -323 b 429 -77 585 -148 515 -77 z m 296 385 l 424 822 l 429 822 l 555 385 z m 817 0 l 508 979 l 351 979 l 42 0 l 184 0 l 263 270 l 589 270 l 667 0 z "},"Â":{"ha":859,"x_min":0,"x_max":0,"o":"m 425 1225 l 434 1225 l 551 1092 l 686 1092 l 493 1305 l 366 1305 l 172 1092 l 308 1092 z m 296 385 l 424 822 l 429 822 l 555 385 z m 667 0 l 817 0 l 508 979 l 351 979 l 42 0 l 184 0 l 263 270 l 589 270 z "},"Ậ":{"ha":859,"x_min":0,"x_max":0,"o":"m 425 1225 l 434 1225 l 551 1092 l 686 1092 l 493 1305 l 366 1305 l 172 1092 l 308 1092 z m 429 -123 b 337 -217 380 -123 337 -166 b 429 -311 337 -268 380 -311 b 522 -217 479 -311 522 -268 b 429 -123 522 -166 479 -123 z m 296 385 l 424 822 l 429 822 l 555 385 z m 817 0 l 508 979 l 351 979 l 42 0 l 184 0 l 263 270 l 589 270 l 667 0 z "},"Ấ":{"ha":859,"x_min":0,"x_max":0,"o":"m 854 1428 l 711 1428 l 572 1257 l 699 1257 z m 424 1169 l 435 1169 l 546 1070 l 689 1070 l 499 1235 l 359 1235 l 170 1070 l 313 1070 z m 296 385 l 424 822 l 429 822 l 555 385 z m 351 979 l 42 0 l 184 0 l 263 270 l 589 270 l 667 0 l 817 0 l 508 979 z "},"Ẫ":{"ha":859,"x_min":0,"x_max":0,"o":"m 583 1439 b 521 1359 581 1386 557 1359 b 333 1448 452 1359 445 1448 b 186 1280 245 1448 186 1384 l 276 1280 b 338 1359 278 1332 300 1359 b 526 1270 407 1359 414 1270 b 673 1439 612 1270 673 1335 z m 424 1169 l 435 1169 l 546 1070 l 689 1070 l 499 1235 l 359 1235 l 170 1070 l 313 1070 z m 296 385 l 424 822 l 429 822 l 555 385 z m 667 0 l 817 0 l 508 979 l 351 979 l 42 0 l 184 0 l 263 270 l 589 270 z "},"Ầ":{"ha":859,"x_min":0,"x_max":0,"o":"m 741 1257 l 602 1428 l 460 1428 l 614 1257 z m 424 1169 l 435 1169 l 546 1070 l 689 1070 l 499 1235 l 359 1235 l 170 1070 l 313 1070 z m 296 385 l 424 822 l 429 822 l 555 385 z m 667 0 l 817 0 l 508 979 l 351 979 l 42 0 l 184 0 l 263 270 l 589 270 z "},"Ẩ":{"ha":859,"x_min":0,"x_max":0,"o":"m 644 1200 b 737 1331 702 1223 737 1272 b 604 1446 737 1400 684 1446 b 517 1432 570 1446 534 1440 l 517 1357 b 581 1369 532 1364 557 1369 b 642 1320 618 1369 642 1350 b 585 1253 642 1293 622 1267 z m 424 1169 l 435 1169 l 546 1070 l 689 1070 l 499 1235 l 359 1235 l 170 1070 l 313 1070 z m 296 385 l 424 822 l 429 822 l 555 385 z m 667 0 l 817 0 l 508 979 l 351 979 l 42 0 l 184 0 l 263 270 l 589 270 z "},"Ă":{"ha":859,"x_min":0,"x_max":0,"o":"m 567 1302 b 429 1177 566 1228 510 1177 b 292 1302 349 1177 292 1228 l 187 1302 b 429 1088 187 1176 284 1088 b 671 1302 574 1088 671 1176 z m 296 385 l 424 822 l 429 822 l 555 385 z m 667 0 l 817 0 l 508 979 l 351 979 l 42 0 l 184 0 l 263 270 l 589 270 z "},"Ắ":{"ha":859,"x_min":0,"x_max":0,"o":"m 599 1428 l 463 1428 l 351 1272 l 467 1272 z m 567 1267 b 429 1159 566 1200 515 1159 b 292 1267 344 1159 292 1200 l 187 1267 b 429 1070 187 1148 279 1070 b 671 1267 580 1070 671 1148 z m 296 385 l 424 822 l 429 822 l 555 385 z m 667 0 l 817 0 l 508 979 l 351 979 l 42 0 l 184 0 l 263 270 l 589 270 z "},"Ẵ":{"ha":859,"x_min":0,"x_max":0,"o":"m 578 1425 b 517 1359 576 1383 551 1359 b 330 1441 456 1359 432 1441 b 191 1290 249 1441 191 1382 l 281 1290 b 342 1355 283 1331 306 1355 b 528 1273 403 1355 427 1273 b 667 1425 608 1273 667 1333 z m 193 1238 b 429 1070 193 1145 292 1070 b 666 1238 567 1070 666 1145 l 565 1238 b 429 1156 564 1194 506 1156 b 294 1238 353 1156 294 1194 z m 296 385 l 424 822 l 429 822 l 555 385 z m 667 0 l 817 0 l 508 979 l 351 979 l 42 0 l 184 0 l 263 270 l 589 270 z "},"Ẳ":{"ha":859,"x_min":0,"x_max":0,"o":"m 438 1208 b 534 1337 498 1232 534 1280 b 399 1450 534 1405 480 1450 b 314 1436 366 1450 332 1444 l 314 1364 b 378 1375 329 1371 355 1375 b 439 1328 415 1375 439 1356 b 382 1261 439 1300 419 1275 z m 570 1257 b 429 1152 568 1191 516 1152 b 289 1257 342 1152 290 1191 l 191 1257 b 429 1065 191 1140 281 1065 b 668 1257 577 1065 668 1140 z m 296 385 l 424 822 l 429 822 l 555 385 z m 667 0 l 817 0 l 508 979 l 351 979 l 42 0 l 184 0 l 263 270 l 589 270 z "},"Ặ":{"ha":859,"x_min":0,"x_max":0,"o":"m 567 1302 b 429 1177 566 1228 510 1177 b 292 1302 349 1177 292 1228 l 187 1302 b 429 1088 187 1176 284 1088 b 671 1302 574 1088 671 1176 z m 429 -123 b 337 -217 380 -123 337 -166 b 429 -311 337 -268 380 -311 b 522 -217 479 -311 522 -268 b 429 -123 522 -166 479 -123 z m 296 385 l 424 822 l 429 822 l 555 385 z m 817 0 l 508 979 l 351 979 l 42 0 l 184 0 l 263 270 l 589 270 l 667 0 z "},"Ȃ":{"ha":859,"x_min":0,"x_max":0,"o":"m 671 1088 b 429 1302 671 1215 574 1302 b 187 1088 284 1302 187 1215 l 292 1088 b 429 1214 292 1162 349 1214 b 567 1088 510 1214 566 1162 z m 296 385 l 424 822 l 429 822 l 555 385 z m 667 0 l 817 0 l 508 979 l 351 979 l 42 0 l 184 0 l 263 270 l 589 270 z "},"Ǎ":{"ha":859,"x_min":0,"x_max":0,"o":"m 493 1089 l 686 1303 l 551 1303 l 434 1169 l 425 1169 l 308 1303 l 172 1303 l 366 1089 z m 296 385 l 424 822 l 429 822 l 555 385 z m 667 0 l 817 0 l 508 979 l 351 979 l 42 0 l 184 0 l 263 270 l 589 270 z "},"Ȧ":{"ha":859,"x_min":0,"x_max":0,"o":"m 429 1104 b 522 1198 479 1104 522 1147 b 429 1291 522 1249 479 1291 b 337 1198 380 1291 337 1249 b 429 1104 337 1147 380 1104 z m 296 385 l 424 822 l 429 822 l 555 385 z m 667 0 l 817 0 l 508 979 l 351 979 l 42 0 l 184 0 l 263 270 l 589 270 z "},"Ạ":{"ha":859,"x_min":0,"x_max":0,"o":"m 429 -123 b 337 -217 380 -123 337 -166 b 429 -311 337 -268 380 -311 b 522 -217 479 -311 522 -268 b 429 -123 522 -166 479 -123 z m 296 385 l 424 822 l 429 822 l 555 385 z m 817 0 l 508 979 l 351 979 l 42 0 l 184 0 l 263 270 l 589 270 l 667 0 z "},"Ả":{"ha":859,"x_min":0,"x_max":0,"o":"m 433 1064 b 549 1210 503 1090 549 1146 b 400 1335 549 1286 489 1335 b 306 1318 364 1335 328 1327 l 306 1234 b 381 1249 323 1243 352 1249 b 452 1198 425 1249 452 1228 b 383 1126 452 1168 424 1141 z m 296 385 l 424 822 l 429 822 l 555 385 z m 667 0 l 817 0 l 508 979 l 351 979 l 42 0 l 184 0 l 263 270 l 589 270 z "},"Ȁ":{"ha":859,"x_min":0,"x_max":0,"o":"m 645 1092 l 454 1300 l 311 1300 l 515 1092 z m 380 1092 l 189 1300 l 46 1300 l 251 1092 z m 296 385 l 424 822 l 429 822 l 555 385 z m 667 0 l 817 0 l 508 979 l 351 979 l 42 0 l 184 0 l 263 270 l 589 270 z "},"Ā":{"ha":859,"x_min":0,"x_max":0,"o":"m 659 1245 l 199 1245 l 199 1143 l 659 1143 z m 296 385 l 424 822 l 429 822 l 555 385 z m 667 0 l 817 0 l 508 979 l 351 979 l 42 0 l 184 0 l 263 270 l 589 270 z "},"Ą":{"ha":859,"x_min":0,"x_max":0,"o":"m 296 385 l 424 822 l 429 822 l 555 385 z m 817 0 l 508 979 l 351 979 l 42 0 l 184 0 l 263 270 l 589 270 l 665 7 b 559 -151 590 -38 559 -85 b 730 -297 559 -238 628 -297 b 812 -286 761 -297 795 -292 l 812 -197 b 762 -202 802 -200 781 -202 b 674 -130 709 -202 674 -173 b 810 -2 674 -73 718 -33 z "},"B":{"ha":859,"x_min":0,"x_max":0,"o":"m 453 0 b 789 275 663 0 789 103 b 570 513 789 404 701 501 l 570 523 b 741 736 670 540 741 629 b 448 979 741 888 631 979 l 119 979 l 119 0 z m 258 863 l 414 863 b 599 711 532 863 599 809 b 398 562 599 615 528 562 l 258 562 z m 258 117 l 258 451 l 414 451 b 643 286 565 451 643 395 b 418 117 643 173 567 117 z "},"Ḇ":{"ha":859,"x_min":0,"x_max":0,"o":"m 453 0 b 789 275 663 0 789 103 b 570 513 789 404 701 501 l 570 523 b 741 736 670 540 741 629 b 448 979 741 888 631 979 l 119 979 l 119 0 z m 258 863 l 414 863 b 599 711 532 863 599 809 b 398 562 599 615 528 562 l 258 562 z m 258 117 l 258 451 l 414 451 b 643 286 565 451 643 395 b 418 117 643 173 567 117 z m 625 -272 l 625 -169 l 166 -169 l 166 -272 z "},"Ḅ":{"ha":859,"x_min":0,"x_max":0,"o":"m 453 0 b 789 275 663 0 789 103 b 570 513 789 404 701 501 l 570 523 b 741 736 670 540 741 629 b 448 979 741 888 631 979 l 119 979 l 119 0 z m 258 863 l 414 863 b 599 711 532 863 599 809 b 398 562 599 615 528 562 l 258 562 z m 258 117 l 258 451 l 414 451 b 643 286 565 451 643 395 b 418 117 643 173 567 117 z m 396 -311 b 488 -217 446 -311 488 -268 b 396 -123 488 -166 446 -123 b 304 -217 346 -123 304 -166 b 396 -311 304 -268 346 -311 z "},"Ḃ":{"ha":859,"x_min":0,"x_max":0,"o":"m 453 0 b 789 275 663 0 789 103 b 570 513 789 404 701 501 l 570 523 b 741 736 670 540 741 629 b 448 979 741 888 631 979 l 119 979 l 119 0 z m 258 863 l 414 863 b 599 711 532 863 599 809 b 398 562 599 615 528 562 l 258 562 z m 258 117 l 258 451 l 414 451 b 643 286 565 451 643 395 b 418 117 643 173 567 117 z m 396 1104 b 488 1198 446 1104 488 1147 b 396 1291 488 1249 446 1291 b 304 1198 346 1291 304 1249 b 396 1104 304 1147 346 1104 z "},"C":{"ha":859,"x_min":0,"x_max":0,"o":"m 451 109 b 227 399 304 109 227 209 l 227 580 b 450 869 227 770 304 869 b 653 656 568 869 649 784 l 795 656 b 452 999 793 871 663 999 b 82 580 218 999 82 845 l 82 399 b 452 -20 82 134 218 -20 b 795 309 658 -20 795 111 l 653 309 b 451 109 650 185 573 109 z "},"Ć":{"ha":859,"x_min":0,"x_max":0,"o":"m 451 109 b 227 399 304 109 227 209 l 227 580 b 450 869 227 770 304 869 b 653 656 568 869 649 784 l 795 656 b 452 999 793 871 663 999 b 82 580 218 999 82 845 l 82 399 b 452 -20 82 134 218 -20 b 795 309 658 -20 795 111 l 653 309 b 451 109 650 185 573 109 z m 361 1092 l 502 1092 l 718 1300 l 560 1300 z "},"Č":{"ha":859,"x_min":0,"x_max":0,"o":"m 701 1303 l 566 1303 l 450 1169 l 439 1169 l 323 1303 l 188 1303 l 381 1089 l 509 1089 z m 227 580 b 450 869 227 770 304 869 b 653 656 568 869 649 784 l 795 656 b 452 999 793 871 663 999 b 82 580 218 999 82 845 l 82 399 b 452 -20 82 134 218 -20 b 795 309 658 -20 795 111 l 653 309 b 451 109 650 185 573 109 b 227 399 304 109 227 209 z "},"Ĉ":{"ha":859,"x_min":0,"x_max":0,"o":"m 451 109 b 227 399 304 109 227 209 l 227 580 b 450 869 227 770 304 869 b 653 656 568 869 649 784 l 795 656 b 452 999 793 871 663 999 b 82 580 218 999 82 845 l 82 399 b 452 -20 82 134 218 -20 b 795 309 658 -20 795 111 l 653 309 b 451 109 650 185 573 109 z m 509 1305 l 381 1305 l 188 1092 l 323 1092 l 439 1225 l 450 1225 l 566 1092 l 701 1092 z "},"Ċ":{"ha":859,"x_min":0,"x_max":0,"o":"m 451 109 b 227 399 304 109 227 209 l 227 580 b 450 869 227 770 304 869 b 653 656 568 869 649 784 l 795 656 b 452 999 793 871 663 999 b 82 580 218 999 82 845 l 82 399 b 452 -20 82 134 218 -20 b 795 309 658 -20 795 111 l 653 309 b 451 109 650 185 573 109 z m 445 1104 b 536 1198 494 1104 536 1147 b 445 1291 536 1249 494 1291 b 353 1198 395 1291 353 1249 b 445 1104 353 1147 395 1104 z "},"Ç":{"ha":859,"x_min":0,"x_max":0,"o":"m 227 580 b 450 869 227 770 304 869 b 653 656 568 869 649 784 l 795 656 b 452 999 793 871 663 999 b 82 580 218 999 82 845 l 82 399 b 396 -17 82 155 197 5 l 363 -96 l 363 -160 l 403 -160 b 496 -203 469 -160 496 -173 b 420 -249 496 -233 470 -249 b 341 -239 395 -249 356 -244 l 341 -319 b 431 -331 371 -327 397 -331 b 598 -199 534 -331 598 -280 b 466 -85 598 -127 551 -87 l 493 -18 b 795 309 676 -2 795 124 l 653 309 b 451 109 650 185 573 109 b 227 399 304 109 227 209 z "},"Ḉ":{"ha":859,"x_min":0,"x_max":0,"o":"m 718 1300 l 560 1300 l 361 1092 l 502 1092 z m 227 580 b 450 869 227 770 304 869 b 653 656 568 869 649 784 l 795 656 b 452 999 793 871 663 999 b 82 580 218 999 82 845 l 82 399 b 396 -17 82 155 197 5 l 363 -96 l 363 -160 l 403 -160 b 496 -203 469 -160 496 -173 b 420 -249 496 -233 470 -249 b 341 -239 395 -249 356 -244 l 341 -319 b 431 -331 371 -327 397 -331 b 598 -199 534 -331 598 -280 b 466 -85 598 -127 551 -87 l 493 -18 b 795 309 676 -2 795 124 l 653 309 b 451 109 650 185 573 109 b 227 399 304 109 227 209 z "},"D":{"ha":859,"x_min":0,"x_max":0,"o":"m 100 979 l 100 0 l 387 0 b 804 492 664 0 804 165 b 387 979 804 814 663 979 z m 242 853 l 371 853 b 659 491 566 853 659 736 b 371 125 659 241 568 125 l 242 125 z "},"Ḋ":{"ha":859,"x_min":0,"x_max":0,"o":"m 100 979 l 100 0 l 387 0 b 804 492 664 0 804 165 b 387 979 804 814 663 979 z m 242 853 l 371 853 b 659 491 566 853 659 736 b 371 125 659 241 568 125 l 242 125 z m 396 1104 b 488 1198 446 1104 488 1147 b 396 1291 488 1249 446 1291 b 304 1198 346 1291 304 1249 b 396 1104 304 1147 346 1104 z "},"Ḓ":{"ha":859,"x_min":0,"x_max":0,"o":"m 100 979 l 100 0 l 387 0 b 804 492 664 0 804 165 b 387 979 804 814 663 979 z m 242 853 l 371 853 b 659 491 566 853 659 736 b 371 125 659 241 568 125 l 242 125 z m 319 -111 l 135 -346 l 279 -346 l 391 -196 l 401 -196 l 512 -346 l 657 -346 l 473 -111 z "},"Ḑ":{"ha":859,"x_min":0,"x_max":0,"o":"m 100 979 l 100 0 l 387 0 b 804 492 664 0 804 165 b 387 979 804 814 663 979 z m 242 853 l 371 853 b 659 491 566 853 659 736 b 371 125 659 241 568 125 l 242 125 z m 385 -341 l 479 -98 l 340 -98 l 261 -341 z "},"Ḏ":{"ha":859,"x_min":0,"x_max":0,"o":"m 100 979 l 100 0 l 387 0 b 804 492 664 0 804 165 b 387 979 804 814 663 979 z m 242 853 l 371 853 b 659 491 566 853 659 736 b 371 125 659 241 568 125 l 242 125 z m 625 -272 l 625 -169 l 166 -169 l 166 -272 z "},"Ď":{"ha":859,"x_min":0,"x_max":0,"o":"m 653 1303 l 517 1303 l 401 1169 l 391 1169 l 275 1303 l 139 1303 l 332 1089 l 460 1089 z m 242 853 l 371 853 b 659 491 566 853 659 736 b 371 125 659 241 568 125 l 242 125 z m 100 979 l 100 0 l 387 0 b 804 492 664 0 804 165 b 387 979 804 814 663 979 z "},"Ḍ":{"ha":859,"x_min":0,"x_max":0,"o":"m 100 979 l 100 0 l 387 0 b 804 492 664 0 804 165 b 387 979 804 814 663 979 z m 242 853 l 371 853 b 659 491 566 853 659 736 b 371 125 659 241 568 125 l 242 125 z m 396 -311 b 488 -217 446 -311 488 -268 b 396 -123 488 -166 446 -123 b 304 -217 346 -123 304 -166 b 396 -311 304 -268 346 -311 z "},"Đ":{"ha":859,"x_min":0,"x_max":0,"o":"m 250 120 l 250 442 l 437 442 l 437 557 l 250 557 l 250 859 l 374 859 b 663 491 570 859 663 741 b 376 120 663 235 573 120 z m 117 979 l 117 557 l 17 557 l 17 442 l 117 442 l 117 0 l 387 0 b 804 492 664 0 804 165 b 387 979 804 814 663 979 z "},"E":{"ha":859,"x_min":0,"x_max":0,"o":"m 739 125 l 292 125 l 292 439 l 713 439 l 713 557 l 292 557 l 292 853 l 739 853 l 739 979 l 150 979 l 150 0 l 739 0 z "},"È":{"ha":859,"x_min":0,"x_max":0,"o":"m 328 1300 l 170 1300 l 387 1092 l 527 1092 z m 739 125 l 292 125 l 292 439 l 713 439 l 713 557 l 292 557 l 292 853 l 739 853 l 739 979 l 150 979 l 150 0 l 739 0 z "},"Ȅ":{"ha":859,"x_min":0,"x_max":0,"o":"m 469 1300 l 326 1300 l 530 1092 l 661 1092 z m 204 1300 l 61 1300 l 266 1092 l 395 1092 z m 739 125 l 292 125 l 292 439 l 713 439 l 713 557 l 292 557 l 292 853 l 739 853 l 739 979 l 150 979 l 150 0 l 739 0 z "},"É":{"ha":859,"x_min":0,"x_max":0,"o":"m 739 125 l 292 125 l 292 439 l 713 439 l 713 557 l 292 557 l 292 853 l 739 853 l 739 979 l 150 979 l 150 0 l 739 0 z m 357 1092 l 497 1092 l 713 1300 l 555 1300 z "},"Ê":{"ha":859,"x_min":0,"x_max":0,"o":"m 739 125 l 292 125 l 292 439 l 713 439 l 713 557 l 292 557 l 292 853 l 739 853 l 739 979 l 150 979 l 150 0 l 739 0 z m 508 1305 l 380 1305 l 187 1092 l 323 1092 l 439 1225 l 449 1225 l 566 1092 l 701 1092 z "},"Ể":{"ha":859,"x_min":0,"x_max":0,"o":"m 739 125 l 292 125 l 292 439 l 713 439 l 713 557 l 292 557 l 292 853 l 739 853 l 739 979 l 150 979 l 150 0 l 739 0 z m 532 1357 b 595 1369 547 1364 573 1369 b 657 1320 633 1369 657 1350 b 600 1253 657 1293 637 1267 l 659 1200 b 752 1331 717 1223 752 1272 b 618 1446 752 1400 699 1446 b 532 1432 585 1446 550 1440 z m 514 1235 l 374 1235 l 184 1070 l 328 1070 l 439 1169 l 450 1169 l 561 1070 l 704 1070 z "},"Ề":{"ha":859,"x_min":0,"x_max":0,"o":"m 739 125 l 292 125 l 292 439 l 713 439 l 713 557 l 292 557 l 292 853 l 739 853 l 739 979 l 150 979 l 150 0 l 739 0 z m 757 1257 l 618 1428 l 475 1428 l 629 1257 z m 514 1235 l 374 1235 l 184 1070 l 328 1070 l 439 1169 l 450 1169 l 561 1070 l 704 1070 z "},"Ễ":{"ha":859,"x_min":0,"x_max":0,"o":"m 739 125 l 292 125 l 292 439 l 713 439 l 713 557 l 292 557 l 292 853 l 739 853 l 739 979 l 150 979 l 150 0 l 739 0 z m 514 1235 l 374 1235 l 184 1070 l 328 1070 l 439 1169 l 450 1169 l 561 1070 l 704 1070 z m 541 1270 b 688 1439 627 1270 688 1335 l 598 1439 b 536 1359 595 1386 572 1359 b 348 1448 467 1359 460 1448 b 201 1280 260 1448 201 1384 l 291 1280 b 353 1359 293 1332 315 1359 b 541 1270 422 1359 429 1270 z "},"Ệ":{"ha":859,"x_min":0,"x_max":0,"o":"m 739 125 l 292 125 l 292 439 l 713 439 l 713 557 l 292 557 l 292 853 l 739 853 l 739 979 l 150 979 l 150 0 l 739 0 z m 508 1305 l 380 1305 l 187 1092 l 323 1092 l 439 1225 l 449 1225 l 566 1092 l 701 1092 z m 444 -302 b 536 -208 494 -302 536 -260 b 444 -115 536 -157 494 -115 b 353 -208 395 -115 353 -157 b 444 -302 353 -260 395 -302 z "},"Ế":{"ha":859,"x_min":0,"x_max":0,"o":"m 739 125 l 292 125 l 292 439 l 713 439 l 713 557 l 292 557 l 292 853 l 739 853 l 739 979 l 150 979 l 150 0 l 739 0 z m 587 1257 l 714 1257 l 869 1428 l 726 1428 z m 514 1235 l 374 1235 l 184 1070 l 328 1070 l 439 1169 l 450 1169 l 561 1070 l 704 1070 z "},"Ë":{"ha":859,"x_min":0,"x_max":0,"o":"m 739 125 l 292 125 l 292 439 l 713 439 l 713 557 l 292 557 l 292 853 l 739 853 l 739 979 l 150 979 l 150 0 l 739 0 z m 302 1114 b 387 1202 347 1114 387 1154 b 302 1289 387 1249 347 1289 b 216 1202 256 1289 216 1249 b 302 1114 216 1154 256 1114 z m 587 1114 b 672 1202 633 1114 672 1154 b 587 1289 672 1249 633 1289 b 502 1202 541 1289 502 1249 b 587 1114 502 1154 541 1114 z "},"Ẹ":{"ha":859,"x_min":0,"x_max":0,"o":"m 739 125 l 292 125 l 292 439 l 713 439 l 713 557 l 292 557 l 292 853 l 739 853 l 739 979 l 150 979 l 150 0 l 739 0 z m 444 -302 b 536 -208 494 -302 536 -260 b 444 -115 536 -157 494 -115 b 353 -208 395 -115 353 -157 b 444 -302 353 -260 395 -302 z "},"Ȇ":{"ha":859,"x_min":0,"x_max":0,"o":"m 307 1088 b 444 1214 307 1162 363 1214 b 582 1088 525 1214 581 1162 l 687 1088 b 444 1302 687 1215 589 1302 b 202 1088 299 1302 202 1215 z m 739 125 l 292 125 l 292 439 l 713 439 l 713 557 l 292 557 l 292 853 l 739 853 l 739 979 l 150 979 l 150 0 l 739 0 z "},"Ẻ":{"ha":859,"x_min":0,"x_max":0,"o":"m 739 125 l 292 125 l 292 439 l 713 439 l 713 557 l 292 557 l 292 853 l 739 853 l 739 979 l 150 979 l 150 0 l 739 0 z m 321 1234 b 396 1249 338 1243 367 1249 b 467 1198 439 1249 467 1228 b 398 1126 467 1168 439 1141 l 448 1064 b 564 1210 518 1090 564 1146 b 416 1335 564 1286 504 1335 b 321 1318 379 1335 342 1327 z "},"Ě":{"ha":859,"x_min":0,"x_max":0,"o":"m 701 1303 l 566 1303 l 449 1169 l 439 1169 l 323 1303 l 187 1303 l 380 1089 l 508 1089 z m 739 125 l 292 125 l 292 439 l 713 439 l 713 557 l 292 557 l 292 853 l 739 853 l 739 979 l 150 979 l 150 0 l 739 0 z "},"Ē":{"ha":859,"x_min":0,"x_max":0,"o":"m 739 125 l 292 125 l 292 439 l 713 439 l 713 557 l 292 557 l 292 853 l 739 853 l 739 979 l 150 979 l 150 0 l 739 0 z m 674 1143 l 674 1245 l 214 1245 l 214 1143 z "},"Ḕ":{"ha":859,"x_min":0,"x_max":0,"o":"m 739 125 l 292 125 l 292 439 l 713 439 l 713 557 l 292 557 l 292 853 l 739 853 l 739 979 l 150 979 l 150 0 l 739 0 z m 675 1094 l 675 1184 l 212 1184 l 212 1094 z m 530 1265 l 399 1428 l 253 1428 l 399 1265 z "},"Ḗ":{"ha":859,"x_min":0,"x_max":0,"o":"m 488 1265 l 635 1427 l 489 1427 l 357 1265 z m 675 1094 l 675 1184 l 212 1184 l 212 1094 z m 739 125 l 292 125 l 292 439 l 713 439 l 713 557 l 292 557 l 292 853 l 739 853 l 739 979 l 150 979 l 150 0 l 739 0 z "},"Ẽ":{"ha":859,"x_min":0,"x_max":0,"o":"m 739 125 l 292 125 l 292 439 l 713 439 l 713 557 l 292 557 l 292 853 l 739 853 l 739 979 l 150 979 l 150 0 l 739 0 z m 547 1093 b 696 1281 635 1093 696 1165 l 603 1281 b 538 1186 600 1217 576 1186 b 342 1289 477 1186 453 1289 b 193 1100 252 1289 193 1218 l 286 1100 b 351 1196 288 1165 311 1196 b 547 1093 420 1196 440 1093 z "},"Ḙ":{"ha":859,"x_min":0,"x_max":0,"o":"m 739 125 l 292 125 l 292 439 l 713 439 l 713 557 l 292 557 l 292 853 l 739 853 l 739 979 l 150 979 l 150 0 l 739 0 z m 368 -111 l 183 -346 l 328 -346 l 439 -196 l 450 -196 l 561 -346 l 705 -346 l 521 -111 z "},"Ĕ":{"ha":859,"x_min":0,"x_max":0,"o":"m 739 125 l 292 125 l 292 439 l 713 439 l 713 557 l 292 557 l 292 853 l 739 853 l 739 979 l 150 979 l 150 0 l 739 0 z m 202 1302 b 444 1088 202 1176 299 1088 b 687 1302 589 1088 687 1176 l 582 1302 b 444 1177 581 1228 525 1177 b 307 1302 363 1177 307 1228 z "},"Ḛ":{"ha":859,"x_min":0,"x_max":0,"o":"m 739 125 l 292 125 l 292 439 l 713 439 l 713 557 l 292 557 l 292 853 l 739 853 l 739 979 l 150 979 l 150 0 l 739 0 z m 350 -205 b 541 -309 407 -205 437 -309 b 701 -105 639 -309 701 -230 l 597 -105 b 539 -207 597 -175 578 -207 b 348 -103 482 -207 452 -103 b 189 -308 250 -103 189 -182 l 292 -308 b 350 -205 292 -237 311 -205 z "},"Ė":{"ha":859,"x_min":0,"x_max":0,"o":"m 739 125 l 292 125 l 292 439 l 713 439 l 713 557 l 292 557 l 292 853 l 739 853 l 739 979 l 150 979 l 150 0 l 739 0 z m 446 1104 b 538 1198 496 1104 538 1147 b 446 1291 538 1249 496 1291 b 355 1198 397 1291 355 1249 b 446 1104 355 1147 397 1104 z "},"Ȩ":{"ha":859,"x_min":0,"x_max":0,"o":"m 739 853 l 739 979 l 150 979 l 150 0 l 403 0 l 363 -96 l 363 -160 l 402 -160 b 496 -203 469 -160 496 -173 b 420 -249 496 -233 469 -249 b 340 -239 394 -249 355 -244 l 340 -319 b 431 -331 370 -327 397 -331 b 597 -199 533 -331 597 -280 b 465 -85 597 -127 551 -87 l 500 0 l 739 0 l 739 125 l 292 125 l 292 439 l 713 439 l 713 557 l 292 557 l 292 853 z "},"Ḝ":{"ha":859,"x_min":0,"x_max":0,"o":"m 582 1302 b 444 1177 581 1228 525 1177 b 307 1302 363 1177 307 1228 l 202 1302 b 444 1088 202 1176 299 1088 b 687 1302 589 1088 687 1176 z m 739 853 l 739 979 l 150 979 l 150 0 l 403 0 l 363 -96 l 363 -160 l 402 -160 b 496 -203 469 -160 496 -173 b 420 -249 496 -233 469 -249 b 340 -239 394 -249 355 -244 l 340 -319 b 431 -331 370 -327 397 -331 b 597 -199 533 -331 597 -280 b 465 -85 597 -127 551 -87 l 500 0 l 739 0 l 739 125 l 292 125 l 292 439 l 713 439 l 713 557 l 292 557 l 292 853 z "},"Ę":{"ha":859,"x_min":0,"x_max":0,"o":"m 595 0 l 595 -9 b 500 -158 532 -49 500 -98 b 665 -297 500 -240 568 -297 b 743 -285 693 -297 722 -293 l 743 -197 b 697 -202 732 -200 713 -202 b 614 -128 649 -202 614 -171 b 729 1 614 -76 651 -31 l 739 5 l 739 125 l 292 125 l 292 439 l 713 439 l 713 557 l 292 557 l 292 853 l 739 853 l 739 979 l 150 979 l 150 0 z "},"F":{"ha":859,"x_min":0,"x_max":0,"o":"m 306 0 l 306 416 l 715 416 l 715 537 l 306 537 l 306 853 l 754 853 l 754 979 l 164 979 l 164 0 z "},"Ḟ":{"ha":859,"x_min":0,"x_max":0,"o":"m 306 0 l 306 416 l 715 416 l 715 537 l 306 537 l 306 853 l 754 853 l 754 979 l 164 979 l 164 0 z m 433 1104 b 526 1198 484 1104 526 1147 b 433 1291 526 1249 484 1291 b 342 1198 384 1291 342 1249 b 433 1104 342 1147 384 1104 z "},"G":{"ha":859,"x_min":0,"x_max":0,"o":"m 646 305 b 446 109 646 184 570 109 b 221 399 298 109 221 208 l 221 580 b 444 869 221 770 298 869 b 647 667 560 869 642 789 l 789 667 b 447 999 785 873 654 999 b 79 580 214 999 79 845 l 79 399 b 447 -20 79 134 214 -20 b 789 297 650 -20 789 108 l 789 504 l 434 504 l 434 390 l 646 390 z "},"Ǵ":{"ha":859,"x_min":0,"x_max":0,"o":"m 646 305 b 446 109 646 184 570 109 b 221 399 298 109 221 208 l 221 580 b 444 869 221 770 298 869 b 647 667 560 869 642 789 l 789 667 b 447 999 785 873 654 999 b 79 580 214 999 79 845 l 79 399 b 447 -20 79 134 214 -20 b 789 297 650 -20 789 108 l 789 504 l 434 504 l 434 390 l 646 390 z m 359 1092 l 499 1092 l 716 1300 l 558 1300 z "},"Ǧ":{"ha":859,"x_min":0,"x_max":0,"o":"m 694 1303 l 559 1303 l 443 1169 l 433 1169 l 316 1303 l 181 1303 l 374 1089 l 502 1089 z m 646 305 b 446 109 646 184 570 109 b 221 399 298 109 221 208 l 221 580 b 444 869 221 770 298 869 b 647 667 560 869 642 789 l 789 667 b 447 999 785 873 654 999 b 79 580 214 999 79 845 l 79 399 b 447 -20 79 134 214 -20 b 789 297 650 -20 789 108 l 789 504 l 434 504 l 434 390 l 646 390 z "},"Ĝ":{"ha":859,"x_min":0,"x_max":0,"o":"m 646 305 b 446 109 646 184 570 109 b 221 399 298 109 221 208 l 221 580 b 444 869 221 770 298 869 b 647 667 560 869 642 789 l 789 667 b 447 999 785 873 654 999 b 79 580 214 999 79 845 l 79 399 b 447 -20 79 134 214 -20 b 789 297 650 -20 789 108 l 789 504 l 434 504 l 434 390 l 646 390 z m 502 1305 l 374 1305 l 181 1092 l 316 1092 l 433 1225 l 443 1225 l 559 1092 l 694 1092 z "},"Ğ":{"ha":859,"x_min":0,"x_max":0,"o":"m 646 305 b 446 109 646 184 570 109 b 221 399 298 109 221 208 l 221 580 b 444 869 221 770 298 869 b 647 667 560 869 642 789 l 789 667 b 447 999 785 873 654 999 b 79 580 214 999 79 845 l 79 399 b 447 -20 79 134 214 -20 b 789 297 650 -20 789 108 l 789 504 l 434 504 l 434 390 l 646 390 z m 195 1302 b 438 1088 195 1176 293 1088 b 680 1302 583 1088 680 1176 l 575 1302 b 438 1177 574 1228 518 1177 b 300 1302 357 1177 301 1228 z "},"Ḡ":{"ha":859,"x_min":0,"x_max":0,"o":"m 646 305 b 446 109 646 184 570 109 b 221 399 298 109 221 208 l 221 580 b 444 869 221 770 298 869 b 647 667 560 869 642 789 l 789 667 b 447 999 785 873 654 999 b 79 580 214 999 79 845 l 79 399 b 447 -20 79 134 214 -20 b 789 297 650 -20 789 108 l 789 504 l 434 504 l 434 390 l 646 390 z m 667 1143 l 667 1245 l 208 1245 l 208 1143 z "},"Ġ":{"ha":859,"x_min":0,"x_max":0,"o":"m 646 305 b 446 109 646 184 570 109 b 221 399 298 109 221 208 l 221 580 b 444 869 221 770 298 869 b 647 667 560 869 642 789 l 789 667 b 447 999 785 873 654 999 b 79 580 214 999 79 845 l 79 399 b 447 -20 79 134 214 -20 b 789 297 650 -20 789 108 l 789 504 l 434 504 l 434 390 l 646 390 z m 438 1104 b 530 1198 488 1104 530 1147 b 438 1291 530 1249 488 1291 b 346 1198 388 1291 346 1249 b 438 1104 346 1147 388 1104 z "},"Ģ":{"ha":859,"x_min":0,"x_max":0,"o":"m 646 305 b 446 109 646 184 570 109 b 221 399 298 109 221 208 l 221 580 b 444 869 221 770 298 869 b 647 667 560 869 642 789 l 789 667 b 447 999 785 873 654 999 b 79 580 214 999 79 845 l 79 399 b 447 -20 79 134 214 -20 b 789 297 650 -20 789 108 l 789 504 l 434 504 l 434 390 l 646 390 z m 429 -341 l 523 -98 l 384 -98 l 304 -341 z "},"H":{"ha":859,"x_min":0,"x_max":0,"o":"m 762 0 l 762 979 l 622 979 l 622 562 l 237 562 l 237 979 l 97 979 l 97 0 l 237 0 l 237 436 l 622 436 l 622 0 z "},"Ḧ":{"ha":859,"x_min":0,"x_max":0,"o":"m 762 0 l 762 979 l 622 979 l 622 562 l 237 562 l 237 979 l 97 979 l 97 0 l 237 0 l 237 436 l 622 436 l 622 0 z m 287 1114 b 372 1202 332 1114 372 1154 b 287 1289 372 1249 332 1289 b 201 1202 241 1289 201 1249 b 287 1114 201 1154 241 1114 z m 572 1114 b 657 1202 618 1114 657 1154 b 572 1289 657 1249 618 1289 b 486 1202 526 1289 486 1249 b 572 1114 486 1154 526 1114 z "},"Ȟ":{"ha":859,"x_min":0,"x_max":0,"o":"m 686 1303 l 551 1303 l 434 1169 l 425 1169 l 308 1303 l 172 1303 l 366 1089 l 493 1089 z m 762 0 l 762 979 l 622 979 l 622 562 l 237 562 l 237 979 l 97 979 l 97 0 l 237 0 l 237 436 l 622 436 l 622 0 z "},"Ĥ":{"ha":859,"x_min":0,"x_max":0,"o":"m 762 0 l 762 979 l 622 979 l 622 562 l 237 562 l 237 979 l 97 979 l 97 0 l 237 0 l 237 436 l 622 436 l 622 0 z m 493 1305 l 366 1305 l 172 1092 l 308 1092 l 425 1225 l 434 1225 l 551 1092 l 686 1092 z "},"Ḥ":{"ha":859,"x_min":0,"x_max":0,"o":"m 762 0 l 762 979 l 622 979 l 622 562 l 237 562 l 237 979 l 97 979 l 97 0 l 237 0 l 237 436 l 622 436 l 622 0 z m 429 -311 b 522 -217 479 -311 522 -268 b 429 -123 522 -166 479 -123 b 337 -217 380 -123 337 -166 b 429 -311 337 -268 380 -311 z "},"Ḣ":{"ha":859,"x_min":0,"x_max":0,"o":"m 762 0 l 762 979 l 622 979 l 622 562 l 237 562 l 237 979 l 97 979 l 97 0 l 237 0 l 237 436 l 622 436 l 622 0 z m 429 1104 b 522 1198 479 1104 522 1147 b 429 1291 522 1249 479 1291 b 337 1198 380 1291 337 1249 b 429 1104 337 1147 380 1104 z "},"Ḫ":{"ha":859,"x_min":0,"x_max":0,"o":"m 762 0 l 762 979 l 622 979 l 622 562 l 237 562 l 237 979 l 97 979 l 97 0 l 237 0 l 237 436 l 622 436 l 622 0 z m 429 -221 b 295 -90 343 -221 295 -166 l 181 -90 b 429 -319 181 -224 276 -319 b 677 -90 583 -319 677 -224 l 564 -90 b 429 -221 564 -166 515 -221 z "},"Ḩ":{"ha":859,"x_min":0,"x_max":0,"o":"m 622 979 l 622 562 l 237 562 l 237 979 l 97 979 l 97 0 l 139 0 l 100 -96 l 100 -160 l 139 -160 b 233 -203 205 -160 233 -173 b 156 -249 233 -233 205 -249 b 77 -239 131 -249 92 -244 l 77 -319 b 168 -331 106 -327 133 -331 b 334 -199 270 -331 334 -280 b 202 -85 334 -127 288 -87 l 237 0 l 237 436 l 622 436 l 622 0 l 762 0 l 762 979 z "},"Ħ":{"ha":859,"x_min":0,"x_max":0,"o":"m 244 559 l 244 733 l 613 733 l 613 559 z m 247 436 l 610 436 l 610 0 l 752 0 l 752 731 l 831 731 l 831 836 l 752 836 l 752 979 l 610 979 l 610 836 l 247 836 l 247 979 l 105 979 l 105 836 l 28 836 l 28 731 l 105 731 l 105 0 l 247 0 z "},"I":{"ha":859,"x_min":0,"x_max":0,"o":"m 699 0 l 699 123 l 500 123 l 500 856 l 699 856 l 699 979 l 159 979 l 159 856 l 359 856 l 359 123 l 159 123 l 159 0 z "},"İ":{"ha":859,"x_min":0,"x_max":0,"o":"m 699 0 l 699 123 l 500 123 l 500 856 l 699 856 l 699 979 l 159 979 l 159 856 l 359 856 l 359 123 l 159 123 l 159 0 z m 429 1104 b 522 1198 479 1104 522 1147 b 429 1291 522 1249 479 1291 b 337 1198 380 1291 337 1249 b 429 1104 337 1147 380 1104 z "},"Ì":{"ha":859,"x_min":0,"x_max":0,"o":"m 313 1300 l 155 1300 l 371 1092 l 512 1092 z m 699 0 l 699 123 l 500 123 l 500 856 l 699 856 l 699 979 l 159 979 l 159 856 l 359 856 l 359 123 l 159 123 l 159 0 z "},"Ȉ":{"ha":859,"x_min":0,"x_max":0,"o":"m 454 1300 l 311 1300 l 515 1092 l 645 1092 z m 189 1300 l 46 1300 l 251 1092 l 380 1092 z m 699 0 l 699 123 l 500 123 l 500 856 l 699 856 l 699 979 l 159 979 l 159 856 l 359 856 l 359 123 l 159 123 l 159 0 z "},"Í":{"ha":859,"x_min":0,"x_max":0,"o":"m 699 0 l 699 123 l 500 123 l 500 856 l 699 856 l 699 979 l 159 979 l 159 856 l 359 856 l 359 123 l 159 123 l 159 0 z m 346 1092 l 486 1092 l 703 1300 l 545 1300 z "},"Î":{"ha":859,"x_min":0,"x_max":0,"o":"m 699 0 l 699 123 l 500 123 l 500 856 l 699 856 l 699 979 l 159 979 l 159 856 l 359 856 l 359 123 l 159 123 l 159 0 z m 493 1305 l 366 1305 l 172 1092 l 308 1092 l 425 1225 l 434 1225 l 551 1092 l 686 1092 z "},"Ǐ":{"ha":859,"x_min":0,"x_max":0,"o":"m 686 1303 l 551 1303 l 434 1169 l 425 1169 l 308 1303 l 172 1303 l 366 1089 l 493 1089 z m 699 0 l 699 123 l 500 123 l 500 856 l 699 856 l 699 979 l 159 979 l 159 856 l 359 856 l 359 123 l 159 123 l 159 0 z "},"Ï":{"ha":859,"x_min":0,"x_max":0,"o":"m 699 0 l 699 123 l 500 123 l 500 856 l 699 856 l 699 979 l 159 979 l 159 856 l 359 856 l 359 123 l 159 123 l 159 0 z m 287 1114 b 372 1202 332 1114 372 1154 b 287 1289 372 1249 332 1289 b 201 1202 241 1289 201 1249 b 287 1114 201 1154 241 1114 z m 572 1114 b 657 1202 618 1114 657 1154 b 572 1289 657 1249 618 1289 b 486 1202 526 1289 486 1249 b 572 1114 486 1154 526 1114 z "},"Ḯ":{"ha":859,"x_min":0,"x_max":0,"o":"m 699 0 l 699 123 l 500 123 l 500 856 l 699 856 l 699 979 l 159 979 l 159 856 l 359 856 l 359 123 l 159 123 l 159 0 z m 343 1272 l 471 1272 l 623 1428 l 475 1428 z m 292 1061 b 371 1143 335 1061 371 1098 b 292 1225 371 1188 335 1225 b 212 1143 248 1225 212 1188 b 292 1061 212 1098 248 1061 z m 568 1061 b 648 1143 612 1061 648 1098 b 568 1225 648 1188 612 1225 b 489 1143 524 1225 489 1188 b 568 1061 489 1098 524 1061 z "},"Ĭ":{"ha":859,"x_min":0,"x_max":0,"o":"m 699 0 l 699 123 l 500 123 l 500 856 l 699 856 l 699 979 l 159 979 l 159 856 l 359 856 l 359 123 l 159 123 l 159 0 z m 187 1302 b 429 1088 187 1176 284 1088 b 671 1302 574 1088 671 1176 l 567 1302 b 429 1177 566 1228 510 1177 b 292 1302 349 1177 292 1228 z "},"Ị":{"ha":859,"x_min":0,"x_max":0,"o":"m 699 0 l 699 123 l 500 123 l 500 856 l 699 856 l 699 979 l 159 979 l 159 856 l 359 856 l 359 123 l 159 123 l 159 0 z m 429 -311 b 521 -217 479 -311 521 -268 b 429 -123 521 -166 479 -123 b 337 -217 379 -123 337 -166 b 429 -311 337 -268 379 -311 z "},"Ȋ":{"ha":859,"x_min":0,"x_max":0,"o":"m 292 1088 b 429 1214 292 1162 349 1214 b 567 1088 510 1214 566 1162 l 671 1088 b 429 1302 671 1215 574 1302 b 187 1088 284 1302 187 1215 z m 699 0 l 699 123 l 500 123 l 500 856 l 699 856 l 699 979 l 159 979 l 159 856 l 359 856 l 359 123 l 159 123 l 159 0 z "},"Ī":{"ha":859,"x_min":0,"x_max":0,"o":"m 699 0 l 699 123 l 500 123 l 500 856 l 699 856 l 699 979 l 159 979 l 159 856 l 359 856 l 359 123 l 159 123 l 159 0 z m 659 1143 l 659 1245 l 199 1245 l 199 1143 z "},"Ḭ":{"ha":859,"x_min":0,"x_max":0,"o":"m 699 0 l 699 123 l 500 123 l 500 856 l 699 856 l 699 979 l 159 979 l 159 856 l 359 856 l 359 123 l 159 123 l 159 0 z m 334 -213 b 526 -317 391 -213 421 -317 b 685 -114 623 -317 685 -239 l 581 -114 b 524 -216 581 -184 563 -216 b 332 -112 467 -216 437 -112 b 173 -317 234 -112 173 -191 l 277 -317 b 334 -213 277 -246 295 -213 z "},"Ỉ":{"ha":859,"x_min":0,"x_max":0,"o":"m 699 0 l 699 123 l 500 123 l 500 856 l 699 856 l 699 979 l 159 979 l 159 856 l 359 856 l 359 123 l 159 123 l 159 0 z m 306 1234 b 381 1249 323 1243 352 1249 b 452 1198 425 1249 452 1228 b 383 1126 452 1168 424 1141 l 433 1064 b 549 1210 503 1090 549 1146 b 400 1335 549 1286 489 1335 b 306 1318 364 1335 328 1327 z "},"Ĩ":{"ha":859,"x_min":0,"x_max":0,"o":"m 699 0 l 699 123 l 500 123 l 500 856 l 699 856 l 699 979 l 159 979 l 159 856 l 359 856 l 359 123 l 159 123 l 159 0 z m 532 1093 b 681 1281 620 1093 681 1165 l 588 1281 b 523 1186 585 1217 562 1186 b 327 1289 462 1186 438 1289 b 178 1100 237 1289 178 1218 l 271 1100 b 336 1196 273 1165 296 1196 b 532 1093 404 1196 425 1093 z "},"Į":{"ha":859,"x_min":0,"x_max":0,"o":"m 699 856 l 699 979 l 159 979 l 159 856 l 359 856 l 359 123 l 159 123 l 159 0 l 581 0 b 474 -168 512 -39 474 -99 b 620 -297 474 -243 534 -297 b 699 -284 647 -297 676 -292 l 699 -194 b 656 -199 688 -197 672 -199 b 585 -135 612 -199 585 -174 b 697 -1 585 -86 621 -42 l 699 0 l 699 123 l 500 123 l 500 856 z "},"J":{"ha":859,"x_min":0,"x_max":0,"o":"m 401 -20 b 703 286 590 -20 703 94 l 703 979 l 221 979 l 221 856 l 562 856 l 562 289 b 399 111 562 174 503 111 b 239 257 307 111 242 170 l 101 257 b 401 -20 102 91 222 -20 z "},"Ĵ":{"ha":859,"x_min":0,"x_max":0,"o":"m 401 -20 b 703 286 590 -20 703 94 l 703 979 l 221 979 l 221 856 l 562 856 l 562 289 b 399 111 562 174 503 111 b 239 257 307 111 242 170 l 101 257 b 401 -20 102 91 222 -20 z m 523 1305 l 395 1305 l 202 1092 l 338 1092 l 454 1225 l 464 1225 l 581 1092 l 716 1092 z "},"K":{"ha":859,"x_min":0,"x_max":0,"o":"m 272 0 l 272 323 l 369 441 l 680 0 l 850 0 l 465 546 l 819 979 l 661 979 l 281 503 l 272 503 l 272 979 l 135 979 l 135 0 z "},"Ḱ":{"ha":859,"x_min":0,"x_max":0,"o":"m 272 0 l 272 323 l 369 441 l 680 0 l 850 0 l 465 546 l 819 979 l 661 979 l 281 503 l 272 503 l 272 979 l 135 979 l 135 0 z m 369 1092 l 509 1092 l 726 1300 l 568 1300 z "},"Ǩ":{"ha":859,"x_min":0,"x_max":0,"o":"m 709 1303 l 574 1303 l 458 1169 l 448 1169 l 331 1303 l 196 1303 l 389 1089 l 516 1089 z m 272 0 l 272 323 l 369 441 l 680 0 l 850 0 l 465 546 l 819 979 l 661 979 l 281 503 l 272 503 l 272 979 l 135 979 l 135 0 z "},"Ḳ":{"ha":859,"x_min":0,"x_max":0,"o":"m 272 0 l 272 323 l 369 441 l 680 0 l 850 0 l 465 546 l 819 979 l 661 979 l 281 503 l 272 503 l 272 979 l 135 979 l 135 0 z m 464 -311 b 556 -217 513 -311 556 -268 b 464 -123 556 -166 513 -123 b 372 -217 414 -123 372 -166 b 464 -311 372 -268 414 -311 z "},"Ḵ":{"ha":859,"x_min":0,"x_max":0,"o":"m 272 0 l 272 323 l 369 441 l 680 0 l 850 0 l 465 546 l 819 979 l 661 979 l 281 503 l 272 503 l 272 979 l 135 979 l 135 0 z m 694 -272 l 694 -169 l 234 -169 l 234 -272 z "},"Ķ":{"ha":859,"x_min":0,"x_max":0,"o":"m 272 0 l 272 323 l 369 441 l 680 0 l 850 0 l 465 546 l 819 979 l 661 979 l 281 503 l 272 503 l 272 979 l 135 979 l 135 0 z m 442 -341 l 537 -98 l 397 -98 l 319 -341 z "},"L":{"ha":859,"x_min":0,"x_max":0,"o":"m 766 127 l 312 127 l 312 979 l 172 979 l 172 0 l 766 0 z "},"Ĺ":{"ha":859,"x_min":0,"x_max":0,"o":"m 766 127 l 312 127 l 312 979 l 172 979 l 172 0 l 766 0 z m 159 1092 l 299 1092 l 515 1300 l 358 1300 z "},"Ḽ":{"ha":859,"x_min":0,"x_max":0,"o":"m 766 127 l 312 127 l 312 979 l 172 979 l 172 0 l 766 0 z m 391 -111 l 206 -346 l 351 -346 l 462 -196 l 473 -196 l 584 -346 l 728 -346 l 544 -111 z "},"Ḷ":{"ha":859,"x_min":0,"x_max":0,"o":"m 766 127 l 312 127 l 312 979 l 172 979 l 172 0 l 766 0 z m 467 -311 b 559 -217 517 -311 559 -268 b 467 -123 559 -166 517 -123 b 376 -217 418 -123 376 -166 b 467 -311 376 -268 418 -311 z "},"Ḹ":{"ha":859,"x_min":0,"x_max":0,"o":"m 766 127 l 312 127 l 312 979 l 172 979 l 172 0 l 766 0 z m 467 -311 b 559 -217 517 -311 559 -268 b 467 -123 559 -166 517 -123 b 376 -217 418 -123 376 -166 b 467 -311 376 -268 418 -311 z m 472 1143 l 472 1245 l 13 1245 l 13 1143 z "},"Ḻ":{"ha":859,"x_min":0,"x_max":0,"o":"m 766 127 l 312 127 l 312 979 l 172 979 l 172 0 l 766 0 z m 697 -272 l 697 -169 l 238 -169 l 238 -272 z "},"Ļ":{"ha":859,"x_min":0,"x_max":0,"o":"m 766 127 l 312 127 l 312 979 l 172 979 l 172 0 l 766 0 z m 456 -341 l 551 -98 l 412 -98 l 333 -341 z "},"Ľ":{"ha":859,"x_min":0,"x_max":0,"o":"m 529 979 l 529 649 l 623 649 l 650 979 z m 766 127 l 312 127 l 312 979 l 172 979 l 172 0 l 766 0 z "},"Ŀ":{"ha":859,"x_min":0,"x_max":0,"o":"m 766 127 l 312 127 l 312 979 l 172 979 l 172 0 l 766 0 z m 657 576 b 749 669 707 576 749 618 b 657 763 749 720 707 763 b 566 669 608 763 566 720 b 657 576 566 618 608 576 z "},"Ł":{"ha":859,"x_min":0,"x_max":0,"o":"m 312 127 l 312 454 l 651 644 l 651 767 l 312 575 l 312 979 l 172 979 l 172 496 l 58 431 l 58 312 l 172 376 l 172 0 l 766 0 l 766 127 z "},"M":{"ha":859,"x_min":0,"x_max":0,"o":"m 188 361 l 176 756 l 186 756 l 377 230 l 481 230 l 672 756 l 682 756 l 671 361 l 671 0 l 793 0 l 793 979 l 642 979 l 434 385 l 425 385 l 216 979 l 65 979 l 65 0 l 188 0 z "},"Ḿ":{"ha":859,"x_min":0,"x_max":0,"o":"m 188 361 l 176 756 l 186 756 l 377 230 l 481 230 l 672 756 l 682 756 l 671 361 l 671 0 l 793 0 l 793 979 l 642 979 l 434 385 l 425 385 l 216 979 l 65 979 l 65 0 l 188 0 z m 345 1092 l 486 1092 l 703 1300 l 545 1300 z "},"Ṁ":{"ha":859,"x_min":0,"x_max":0,"o":"m 188 361 l 176 756 l 186 756 l 377 230 l 481 230 l 672 756 l 682 756 l 671 361 l 671 0 l 793 0 l 793 979 l 642 979 l 434 385 l 425 385 l 216 979 l 65 979 l 65 0 l 188 0 z m 429 1104 b 521 1198 479 1104 521 1147 b 429 1291 521 1249 479 1291 b 337 1198 379 1291 337 1249 b 429 1104 337 1147 379 1104 z "},"Ṃ":{"ha":859,"x_min":0,"x_max":0,"o":"m 188 361 l 176 756 l 186 756 l 377 230 l 481 230 l 672 756 l 682 756 l 671 361 l 671 0 l 793 0 l 793 979 l 642 979 l 434 385 l 425 385 l 216 979 l 65 979 l 65 0 l 188 0 z m 429 -311 b 522 -217 479 -311 522 -268 b 429 -123 522 -166 479 -123 b 337 -217 380 -123 337 -166 b 429 -311 337 -268 380 -311 z "},"N":{"ha":859,"x_min":0,"x_max":0,"o":"m 224 0 l 224 734 l 234 734 l 630 0 l 760 0 l 760 979 l 635 979 l 635 247 l 625 247 l 230 979 l 98 979 l 98 0 z "},"Ǹ":{"ha":859,"x_min":0,"x_max":0,"o":"m 311 1300 l 153 1300 l 370 1092 l 510 1092 z m 224 0 l 224 734 l 234 734 l 630 0 l 760 0 l 760 979 l 635 979 l 635 247 l 625 247 l 230 979 l 98 979 l 98 0 z "},"Ń":{"ha":859,"x_min":0,"x_max":0,"o":"m 224 0 l 224 734 l 234 734 l 630 0 l 760 0 l 760 979 l 635 979 l 635 247 l 625 247 l 230 979 l 98 979 l 98 0 z m 344 1092 l 484 1092 l 701 1300 l 543 1300 z "},"Ñ":{"ha":859,"x_min":0,"x_max":0,"o":"m 224 0 l 224 734 l 234 734 l 630 0 l 760 0 l 760 979 l 635 979 l 635 247 l 625 247 l 230 979 l 98 979 l 98 0 z m 530 1093 b 680 1281 618 1093 680 1165 l 587 1281 b 522 1186 584 1217 559 1186 b 325 1289 460 1186 436 1289 b 176 1100 235 1289 176 1218 l 269 1100 b 334 1196 271 1165 294 1196 b 530 1093 403 1196 423 1093 z "},"Ṇ":{"ha":859,"x_min":0,"x_max":0,"o":"m 224 0 l 224 734 l 234 734 l 630 0 l 760 0 l 760 979 l 635 979 l 635 247 l 625 247 l 230 979 l 98 979 l 98 0 z m 429 -311 b 520 -217 478 -311 520 -268 b 429 -123 520 -166 478 -123 b 336 -217 378 -123 336 -166 b 429 -311 336 -268 378 -311 z "},"Ṅ":{"ha":859,"x_min":0,"x_max":0,"o":"m 224 0 l 224 734 l 234 734 l 630 0 l 760 0 l 760 979 l 635 979 l 635 247 l 625 247 l 230 979 l 98 979 l 98 0 z m 427 1104 b 519 1198 477 1104 519 1147 b 427 1291 519 1249 477 1291 b 336 1198 378 1291 336 1249 b 427 1104 336 1147 378 1104 z "},"Ň":{"ha":859,"x_min":0,"x_max":0,"o":"m 684 1303 l 549 1303 l 432 1169 l 422 1169 l 306 1303 l 170 1303 l 363 1089 l 491 1089 z m 224 0 l 224 734 l 234 734 l 630 0 l 760 0 l 760 979 l 635 979 l 635 247 l 625 247 l 230 979 l 98 979 l 98 0 z "},"Ṋ":{"ha":859,"x_min":0,"x_max":0,"o":"m 224 0 l 224 734 l 234 734 l 630 0 l 760 0 l 760 979 l 635 979 l 635 247 l 625 247 l 230 979 l 98 979 l 98 0 z m 352 -111 l 168 -346 l 312 -346 l 423 -196 l 434 -196 l 545 -346 l 690 -346 l 505 -111 z "},"Ṉ":{"ha":859,"x_min":0,"x_max":0,"o":"m 224 0 l 224 734 l 234 734 l 630 0 l 760 0 l 760 979 l 635 979 l 635 247 l 625 247 l 230 979 l 98 979 l 98 0 z m 658 -272 l 658 -169 l 199 -169 l 199 -272 z "},"Ņ":{"ha":859,"x_min":0,"x_max":0,"o":"m 224 0 l 224 734 l 234 734 l 630 0 l 760 0 l 760 979 l 635 979 l 635 247 l 625 247 l 230 979 l 98 979 l 98 0 z m 405 -341 l 499 -98 l 360 -98 l 281 -341 z "},"O":{"ha":859,"x_min":0,"x_max":0,"o":"m 793 412 l 793 567 b 429 999 793 838 655 999 b 66 567 203 999 66 838 l 66 412 b 429 -20 66 140 203 -20 b 793 412 655 -20 793 140 z m 429 109 b 208 412 290 109 208 216 l 208 566 b 429 870 208 763 290 870 b 650 566 569 870 650 763 l 650 412 b 429 109 650 216 569 109 z "},"Ö":{"ha":859,"x_min":0,"x_max":0,"o":"m 793 412 l 793 567 b 429 999 793 838 655 999 b 66 567 203 999 66 838 l 66 412 b 429 -20 66 140 203 -20 b 793 412 655 -20 793 140 z m 429 109 b 208 412 290 109 208 216 l 208 566 b 429 870 208 763 290 870 b 650 566 569 870 650 763 l 650 412 b 429 109 650 216 569 109 z m 287 1114 b 372 1202 332 1114 372 1154 b 287 1289 372 1249 332 1289 b 201 1202 241 1289 201 1249 b 287 1114 201 1154 241 1114 z m 572 1114 b 657 1202 618 1114 657 1154 b 572 1289 657 1249 618 1289 b 486 1202 526 1289 486 1249 b 572 1114 486 1154 526 1114 z "},"Ø":{"ha":859,"x_min":0,"x_max":0,"o":"m 650 412 b 429 109 650 216 569 109 b 271 180 362 109 309 133 l 629 720 b 650 566 643 677 650 626 z m 208 566 b 429 870 208 763 290 870 b 587 799 496 870 549 846 l 229 260 b 208 412 216 302 208 353 z m 800 979 l 706 979 l 665 916 b 429 999 604 970 525 999 b 66 567 203 999 66 838 l 66 412 b 140 125 66 294 92 197 l 57 0 l 151 0 l 193 63 b 429 -20 253 9 333 -20 b 793 412 655 -20 793 140 l 793 567 b 718 855 793 686 766 783 z "},"Õ":{"ha":859,"x_min":0,"x_max":0,"o":"m 793 412 l 793 567 b 429 999 793 838 655 999 b 66 567 203 999 66 838 l 66 412 b 429 -20 66 140 203 -20 b 793 412 655 -20 793 140 z m 429 109 b 208 412 290 109 208 216 l 208 566 b 429 870 208 763 290 870 b 650 566 569 870 650 763 l 650 412 b 429 109 650 216 569 109 z m 532 1093 b 681 1281 620 1093 681 1165 l 588 1281 b 523 1186 585 1217 562 1186 b 327 1289 462 1186 438 1289 b 178 1100 237 1289 178 1218 l 271 1100 b 336 1196 273 1165 296 1196 b 532 1093 404 1196 425 1093 z "},"Ó":{"ha":859,"x_min":0,"x_max":0,"o":"m 793 412 l 793 567 b 429 999 793 838 655 999 b 66 567 203 999 66 838 l 66 412 b 429 -20 66 140 203 -20 b 793 412 655 -20 793 140 z m 429 109 b 208 412 290 109 208 216 l 208 566 b 429 870 208 763 290 870 b 650 566 569 870 650 763 l 650 412 b 429 109 650 216 569 109 z m 346 1092 l 486 1092 l 703 1300 l 545 1300 z "},"Ô":{"ha":859,"x_min":0,"x_max":0,"o":"m 793 412 l 793 567 b 429 999 793 838 655 999 b 66 567 203 999 66 838 l 66 412 b 429 -20 66 140 203 -20 b 793 412 655 -20 793 140 z m 429 109 b 208 412 290 109 208 216 l 208 566 b 429 870 208 763 290 870 b 650 566 569 870 650 763 l 650 412 b 429 109 650 216 569 109 z m 493 1305 l 366 1305 l 172 1092 l 308 1092 l 425 1225 l 434 1225 l 551 1092 l 686 1092 z "},"Ò":{"ha":859,"x_min":0,"x_max":0,"o":"m 313 1300 l 155 1300 l 371 1092 l 512 1092 z m 208 566 b 429 870 208 763 290 870 b 650 566 569 870 650 763 l 650 412 b 429 109 650 216 569 109 b 208 412 290 109 208 216 z m 793 567 b 429 999 793 838 655 999 b 66 567 203 999 66 838 l 66 412 b 429 -20 66 140 203 -20 b 793 412 655 -20 793 140 z "},"Ổ":{"ha":859,"x_min":0,"x_max":0,"o":"m 793 412 l 793 567 b 429 999 793 838 655 999 b 66 567 203 999 66 838 l 66 412 b 429 -20 66 140 203 -20 b 793 412 655 -20 793 140 z m 429 109 b 208 412 290 109 208 216 l 208 566 b 429 870 208 763 290 870 b 650 566 569 870 650 763 l 650 412 b 429 109 650 216 569 109 z m 517 1357 b 581 1369 532 1364 557 1369 b 642 1320 618 1369 642 1350 b 585 1253 642 1293 622 1267 l 644 1200 b 737 1331 702 1223 737 1272 b 604 1446 737 1400 684 1446 b 517 1432 570 1446 534 1440 z m 499 1235 l 359 1235 l 170 1070 l 313 1070 l 424 1169 l 435 1169 l 546 1070 l 689 1070 z "},"Ồ":{"ha":859,"x_min":0,"x_max":0,"o":"m 793 412 l 793 567 b 429 999 793 838 655 999 b 66 567 203 999 66 838 l 66 412 b 429 -20 66 140 203 -20 b 793 412 655 -20 793 140 z m 429 109 b 208 412 290 109 208 216 l 208 566 b 429 870 208 763 290 870 b 650 566 569 870 650 763 l 650 412 b 429 109 650 216 569 109 z m 741 1257 l 602 1428 l 460 1428 l 614 1257 z m 499 1235 l 359 1235 l 170 1070 l 313 1070 l 424 1169 l 435 1169 l 546 1070 l 689 1070 z "},"Ọ":{"ha":859,"x_min":0,"x_max":0,"o":"m 793 412 l 793 567 b 429 999 793 838 655 999 b 66 567 203 999 66 838 l 66 412 b 429 -20 66 140 203 -20 b 793 412 655 -20 793 140 z m 429 109 b 208 412 290 109 208 216 l 208 566 b 429 870 208 763 290 870 b 650 566 569 870 650 763 l 650 412 b 429 109 650 216 569 109 z m 429 -311 b 522 -217 479 -311 522 -268 b 429 -123 522 -166 479 -123 b 337 -217 380 -123 337 -166 b 429 -311 337 -268 380 -311 z "},"Ȍ":{"ha":859,"x_min":0,"x_max":0,"o":"m 454 1300 l 311 1300 l 515 1092 l 645 1092 z m 189 1300 l 46 1300 l 251 1092 l 380 1092 z m 208 566 b 429 870 208 763 290 870 b 650 566 569 870 650 763 l 650 412 b 429 109 650 216 569 109 b 208 412 290 109 208 216 z m 793 567 b 429 999 793 838 655 999 b 66 567 203 999 66 838 l 66 412 b 429 -20 66 140 203 -20 b 793 412 655 -20 793 140 z "},"Ṍ":{"ha":859,"x_min":0,"x_max":0,"o":"m 793 412 l 793 567 b 429 999 793 838 655 999 b 66 567 203 999 66 838 l 66 412 b 429 -20 66 140 203 -20 b 793 412 655 -20 793 140 z m 429 109 b 208 412 290 109 208 216 l 208 566 b 429 870 208 763 290 870 b 650 566 569 870 650 763 l 650 412 b 429 109 650 216 569 109 z m 374 1292 l 493 1292 l 604 1444 l 468 1444 z m 527 1055 b 676 1223 614 1055 676 1120 l 583 1223 b 521 1145 581 1171 557 1145 b 332 1233 452 1145 443 1233 b 182 1063 243 1233 182 1168 l 276 1063 b 338 1143 278 1116 300 1143 b 527 1055 407 1143 416 1055 z "},"Ṓ":{"ha":859,"x_min":0,"x_max":0,"o":"m 473 1265 l 620 1427 l 473 1427 l 342 1265 z m 661 1094 l 661 1184 l 197 1184 l 197 1094 z m 208 566 b 429 870 208 763 290 870 b 650 566 569 870 650 763 l 650 412 b 429 109 650 216 569 109 b 208 412 290 109 208 216 z m 793 567 b 429 999 793 838 655 999 b 66 567 203 999 66 838 l 66 412 b 429 -20 66 140 203 -20 b 793 412 655 -20 793 140 z "},"Ỗ":{"ha":859,"x_min":0,"x_max":0,"o":"m 793 412 l 793 567 b 429 999 793 838 655 999 b 66 567 203 999 66 838 l 66 412 b 429 -20 66 140 203 -20 b 793 412 655 -20 793 140 z m 429 109 b 208 412 290 109 208 216 l 208 566 b 429 870 208 763 290 870 b 650 566 569 870 650 763 l 650 412 b 429 109 650 216 569 109 z m 499 1235 l 359 1235 l 170 1070 l 313 1070 l 424 1169 l 435 1169 l 546 1070 l 689 1070 z m 526 1270 b 673 1439 612 1270 673 1335 l 583 1439 b 521 1359 581 1386 557 1359 b 333 1448 452 1359 445 1448 b 186 1280 245 1448 186 1384 l 276 1280 b 338 1359 278 1332 300 1359 b 526 1270 407 1359 414 1270 z "},"Ȱ":{"ha":859,"x_min":0,"x_max":0,"o":"m 430 1238 b 345 1152 383 1238 345 1200 b 430 1066 345 1104 383 1066 b 514 1152 477 1066 514 1104 b 430 1238 514 1200 477 1238 z m 198 1316 l 661 1316 l 661 1407 l 198 1407 z m 208 566 b 429 870 208 763 290 870 b 650 566 569 870 650 763 l 650 412 b 429 109 650 216 569 109 b 208 412 290 109 208 216 z m 793 567 b 429 999 793 838 655 999 b 66 567 203 999 66 838 l 66 412 b 429 -20 66 140 203 -20 b 793 412 655 -20 793 140 z "},"Ṑ":{"ha":859,"x_min":0,"x_max":0,"o":"m 793 412 l 793 567 b 429 999 793 838 655 999 b 66 567 203 999 66 838 l 66 412 b 429 -20 66 140 203 -20 b 793 412 655 -20 793 140 z m 429 109 b 208 412 290 109 208 216 l 208 566 b 429 870 208 763 290 870 b 650 566 569 870 650 763 l 650 412 b 429 109 650 216 569 109 z m 661 1094 l 661 1184 l 197 1184 l 197 1094 z m 515 1265 l 384 1428 l 238 1428 l 385 1265 z "},"Ǒ":{"ha":859,"x_min":0,"x_max":0,"o":"m 686 1303 l 551 1303 l 434 1169 l 425 1169 l 308 1303 l 172 1303 l 366 1089 l 493 1089 z m 208 566 b 429 870 208 763 290 870 b 650 566 569 870 650 763 l 650 412 b 429 109 650 216 569 109 b 208 412 290 109 208 216 z m 793 567 b 429 999 793 838 655 999 b 66 567 203 999 66 838 l 66 412 b 429 -20 66 140 203 -20 b 793 412 655 -20 793 140 z "},"Ǿ":{"ha":859,"x_min":0,"x_max":0,"o":"m 682 1300 l 525 1300 l 326 1092 l 466 1092 z m 650 412 b 429 109 650 216 569 109 b 271 180 362 109 309 133 l 629 720 b 650 566 643 677 650 626 z m 208 566 b 429 870 208 763 290 870 b 587 799 496 870 549 846 l 229 260 b 208 412 216 302 208 353 z m 800 979 l 706 979 l 665 916 b 429 999 604 970 525 999 b 66 567 203 999 66 838 l 66 412 b 140 125 66 294 92 197 l 57 0 l 151 0 l 193 63 b 429 -20 253 9 333 -20 b 793 412 655 -20 793 140 l 793 567 b 718 855 793 686 766 783 z "},"Ő":{"ha":859,"x_min":0,"x_max":0,"o":"m 793 412 l 793 567 b 429 999 793 838 655 999 b 66 567 203 999 66 838 l 66 412 b 429 -20 66 140 203 -20 b 793 412 655 -20 793 140 z m 429 109 b 208 412 290 109 208 216 l 208 566 b 429 870 208 763 290 870 b 650 566 569 870 650 763 l 650 412 b 429 109 650 216 569 109 z m 460 1092 l 590 1092 l 794 1300 l 652 1300 z m 195 1092 l 325 1092 l 530 1300 l 387 1300 z "},"Ŏ":{"ha":859,"x_min":0,"x_max":0,"o":"m 793 412 l 793 567 b 429 999 793 838 655 999 b 66 567 203 999 66 838 l 66 412 b 429 -20 66 140 203 -20 b 793 412 655 -20 793 140 z m 429 109 b 208 412 290 109 208 216 l 208 566 b 429 870 208 763 290 870 b 650 566 569 870 650 763 l 650 412 b 429 109 650 216 569 109 z m 187 1302 b 429 1088 187 1176 284 1088 b 671 1302 574 1088 671 1176 l 567 1302 b 429 1177 566 1228 510 1177 b 292 1302 349 1177 292 1228 z "},"Ȏ":{"ha":859,"x_min":0,"x_max":0,"o":"m 292 1088 b 429 1214 292 1162 349 1214 b 567 1088 510 1214 566 1162 l 671 1088 b 429 1302 671 1215 574 1302 b 187 1088 284 1302 187 1215 z m 208 566 b 429 870 208 763 290 870 b 650 566 569 870 650 763 l 650 412 b 429 109 650 216 569 109 b 208 412 290 109 208 216 z m 793 567 b 429 999 793 838 655 999 b 66 567 203 999 66 838 l 66 412 b 429 -20 66 140 203 -20 b 793 412 655 -20 793 140 z "},"Ỏ":{"ha":859,"x_min":0,"x_max":0,"o":"m 793 412 l 793 567 b 429 999 793 838 655 999 b 66 567 203 999 66 838 l 66 412 b 429 -20 66 140 203 -20 b 793 412 655 -20 793 140 z m 429 109 b 208 412 290 109 208 216 l 208 566 b 429 870 208 763 290 870 b 650 566 569 870 650 763 l 650 412 b 429 109 650 216 569 109 z m 306 1234 b 381 1249 323 1243 352 1249 b 452 1198 425 1249 452 1228 b 383 1126 452 1168 424 1141 l 433 1064 b 549 1210 503 1090 549 1146 b 400 1335 549 1286 489 1335 b 306 1318 364 1335 328 1327 z "},"Ȫ":{"ha":859,"x_min":0,"x_max":0,"o":"m 568 1225 b 489 1143 524 1225 489 1188 b 568 1061 489 1098 524 1061 b 648 1143 612 1061 648 1098 b 568 1225 648 1188 612 1225 z m 197 1316 l 661 1316 l 661 1407 l 197 1407 z m 291 1225 b 212 1143 248 1225 212 1188 b 291 1061 212 1098 248 1061 b 370 1143 335 1061 370 1098 b 291 1225 370 1188 335 1225 z m 208 566 b 429 870 208 763 290 870 b 650 566 569 870 650 763 l 650 412 b 429 109 650 216 569 109 b 208 412 290 109 208 216 z m 793 567 b 429 999 793 838 655 999 b 66 567 203 999 66 838 l 66 412 b 429 -20 66 140 203 -20 b 793 412 655 -20 793 140 z "},"Ȭ":{"ha":859,"x_min":0,"x_max":0,"o":"m 793 412 l 793 567 b 429 999 793 838 655 999 b 66 567 203 999 66 838 l 66 412 b 429 -20 66 140 203 -20 b 793 412 655 -20 793 140 z m 429 109 b 208 412 290 109 208 216 l 208 566 b 429 870 208 763 290 870 b 650 566 569 870 650 763 l 650 412 b 429 109 650 216 569 109 z m 661 1320 l 661 1411 l 198 1411 l 198 1320 z m 527 1055 b 676 1223 614 1055 676 1120 l 583 1223 b 521 1145 581 1171 557 1145 b 332 1233 452 1145 443 1233 b 182 1063 243 1233 182 1168 l 276 1063 b 338 1143 278 1116 300 1143 b 527 1055 407 1143 416 1055 z "},"Ȯ":{"ha":859,"x_min":0,"x_max":0,"o":"m 793 412 l 793 567 b 429 999 793 838 655 999 b 66 567 203 999 66 838 l 66 412 b 429 -20 66 140 203 -20 b 793 412 655 -20 793 140 z m 429 109 b 208 412 290 109 208 216 l 208 566 b 429 870 208 763 290 870 b 650 566 569 870 650 763 l 650 412 b 429 109 650 216 569 109 z m 429 1104 b 522 1198 479 1104 522 1147 b 429 1291 522 1249 479 1291 b 337 1198 380 1291 337 1249 b 429 1104 337 1147 380 1104 z "},"Ộ":{"ha":859,"x_min":0,"x_max":0,"o":"m 793 412 l 793 567 b 429 999 793 838 655 999 b 66 567 203 999 66 838 l 66 412 b 429 -20 66 140 203 -20 b 793 412 655 -20 793 140 z m 429 109 b 208 412 290 109 208 216 l 208 566 b 429 870 208 763 290 870 b 650 566 569 870 650 763 l 650 412 b 429 109 650 216 569 109 z m 493 1305 l 366 1305 l 172 1092 l 308 1092 l 425 1225 l 434 1225 l 551 1092 l 686 1092 z m 429 -311 b 522 -217 479 -311 522 -268 b 429 -123 522 -166 479 -123 b 337 -217 380 -123 337 -166 b 429 -311 337 -268 380 -311 z "},"Ố":{"ha":859,"x_min":0,"x_max":0,"o":"m 793 412 l 793 567 b 429 999 793 838 655 999 b 66 567 203 999 66 838 l 66 412 b 429 -20 66 140 203 -20 b 793 412 655 -20 793 140 z m 429 109 b 208 412 290 109 208 216 l 208 566 b 429 870 208 763 290 870 b 650 566 569 870 650 763 l 650 412 b 429 109 650 216 569 109 z m 572 1257 l 699 1257 l 854 1428 l 711 1428 z m 499 1235 l 359 1235 l 170 1070 l 313 1070 l 424 1169 l 435 1169 l 546 1070 l 689 1070 z "},"Ṏ":{"ha":859,"x_min":0,"x_max":0,"o":"m 793 412 l 793 567 b 429 999 793 838 655 999 b 66 567 203 999 66 838 l 66 412 b 429 -20 66 140 203 -20 b 793 412 655 -20 793 140 z m 429 109 b 208 412 290 109 208 216 l 208 566 b 429 870 208 763 290 870 b 650 566 569 870 650 763 l 650 412 b 429 109 650 216 569 109 z m 527 1055 b 676 1223 614 1055 676 1120 l 583 1223 b 521 1145 581 1171 557 1145 b 332 1233 452 1145 443 1233 b 182 1063 243 1233 182 1168 l 276 1063 b 338 1143 278 1116 300 1143 b 527 1055 407 1143 416 1055 z m 291 1281 b 366 1358 332 1281 366 1315 b 291 1434 366 1400 332 1434 b 216 1358 249 1434 216 1400 b 291 1281 216 1315 249 1281 z m 568 1281 b 643 1358 610 1281 643 1315 b 568 1434 643 1400 610 1434 b 492 1358 526 1434 492 1400 b 568 1281 492 1315 526 1281 z "},"Ō":{"ha":859,"x_min":0,"x_max":0,"o":"m 793 412 l 793 567 b 429 999 793 838 655 999 b 66 567 203 999 66 838 l 66 412 b 429 -20 66 140 203 -20 b 793 412 655 -20 793 140 z m 429 109 b 208 412 290 109 208 216 l 208 566 b 429 870 208 763 290 870 b 650 566 569 870 650 763 l 650 412 b 429 109 650 216 569 109 z m 659 1143 l 659 1245 l 199 1245 l 199 1143 z "},"Ǫ":{"ha":859,"x_min":0,"x_max":0,"o":"m 429 109 b 208 412 288 109 208 218 l 208 566 b 429 870 208 760 288 870 b 650 566 571 870 650 760 l 650 412 b 429 109 650 218 571 109 z m 559 -295 b 640 -282 589 -295 620 -290 l 640 -195 b 591 -199 629 -198 612 -199 b 509 -127 543 -199 509 -170 b 631 32 509 -77 535 -42 b 793 412 747 123 793 234 l 793 567 b 429 999 793 836 657 999 b 66 567 201 999 66 836 l 66 412 b 407 -18 66 151 198 -18 b 493 -1 441 -18 474 -12 l 493 -12 b 397 -159 425 -56 397 -100 b 559 -295 397 -239 463 -295 z "},"Ǭ":{"ha":859,"x_min":0,"x_max":0,"o":"m 659 1143 l 659 1245 l 199 1245 l 199 1143 z m 429 109 b 208 412 288 109 208 218 l 208 566 b 429 870 208 760 288 870 b 650 566 571 870 650 760 l 650 412 b 429 109 650 218 571 109 z m 559 -295 b 640 -282 589 -295 620 -290 l 640 -195 b 591 -199 629 -198 612 -199 b 509 -127 543 -199 509 -170 b 631 32 509 -77 535 -42 b 793 412 747 123 793 234 l 793 567 b 429 999 793 836 657 999 b 66 567 201 999 66 836 l 66 412 b 407 -18 66 151 198 -18 b 493 -1 441 -18 474 -12 l 493 -12 b 397 -159 425 -56 397 -100 b 559 -295 397 -239 463 -295 z "},"Ơ":{"ha":859,"x_min":0,"x_max":0,"o":"m 429 -20 b 793 412 656 -20 793 142 l 793 567 b 689 866 793 709 755 814 l 689 874 l 736 874 b 877 1003 827 874 877 920 l 877 1137 l 763 1137 l 763 1038 b 675 970 763 989 739 970 b 429 999 572 970 525 999 b 66 567 202 999 66 837 l 66 412 b 429 -20 66 142 202 -20 z m 429 109 b 208 412 288 109 208 217 l 208 566 b 429 870 208 762 288 870 b 650 566 570 870 650 762 l 650 412 b 429 109 650 217 570 109 z "},"Ợ":{"ha":859,"x_min":0,"x_max":0,"o":"m 429 -20 b 793 412 656 -20 793 142 l 793 567 b 689 866 793 709 755 814 l 689 874 l 736 874 b 877 1003 827 874 877 920 l 877 1137 l 763 1137 l 763 1038 b 675 970 763 989 739 970 b 429 999 572 970 525 999 b 66 567 202 999 66 837 l 66 412 b 429 -20 66 142 202 -20 z m 429 109 b 208 412 288 109 208 217 l 208 566 b 429 870 208 762 288 870 b 650 566 570 870 650 762 l 650 412 b 429 109 650 217 570 109 z m 429 -311 b 522 -217 479 -311 522 -268 b 429 -123 522 -166 479 -123 b 337 -217 380 -123 337 -166 b 429 -311 337 -268 380 -311 z "},"Ở":{"ha":859,"x_min":0,"x_max":0,"o":"m 306 1234 b 381 1249 323 1243 352 1249 b 452 1198 425 1249 452 1228 b 383 1126 452 1168 424 1141 l 433 1064 b 549 1210 503 1090 549 1146 b 400 1335 549 1286 489 1335 b 306 1318 364 1335 328 1327 z m 429 -20 b 793 412 656 -20 793 142 l 793 567 b 689 866 793 709 755 814 l 689 874 l 736 874 b 877 1003 827 874 877 920 l 877 1137 l 763 1137 l 763 1038 b 675 970 763 989 739 970 b 429 999 572 970 525 999 b 66 567 202 999 66 837 l 66 412 b 429 -20 66 142 202 -20 z m 429 109 b 208 412 288 109 208 217 l 208 566 b 429 870 208 762 288 870 b 650 566 570 870 650 762 l 650 412 b 429 109 650 217 570 109 z "},"Ỡ":{"ha":859,"x_min":0,"x_max":0,"o":"m 532 1093 b 681 1281 620 1093 681 1165 l 588 1281 b 523 1186 585 1217 562 1186 b 327 1289 462 1186 438 1289 b 178 1100 237 1289 178 1218 l 271 1100 b 336 1196 273 1165 296 1196 b 532 1093 404 1196 425 1093 z m 429 -20 b 793 412 656 -20 793 142 l 793 567 b 689 866 793 709 755 814 l 689 874 l 736 874 b 877 1003 827 874 877 920 l 877 1137 l 763 1137 l 763 1038 b 675 970 763 989 739 970 b 429 999 572 970 525 999 b 66 567 202 999 66 837 l 66 412 b 429 -20 66 142 202 -20 z m 429 109 b 208 412 288 109 208 217 l 208 566 b 429 870 208 762 288 870 b 650 566 570 870 650 762 l 650 412 b 429 109 650 217 570 109 z "},"Ờ":{"ha":859,"x_min":0,"x_max":0,"o":"m 208 566 b 429 870 208 762 288 870 b 650 566 570 870 650 762 l 650 412 b 429 109 650 217 570 109 b 208 412 288 109 208 217 z m 793 567 b 689 866 793 709 755 814 l 689 874 l 736 874 b 877 1003 827 874 877 920 l 877 1137 l 763 1137 l 763 1038 b 675 970 763 989 739 970 b 429 999 572 970 525 999 b 66 567 202 999 66 837 l 66 412 b 429 -20 66 142 202 -20 b 793 412 656 -20 793 142 z m 333 1300 l 175 1300 l 391 1092 l 532 1092 z "},"Ớ":{"ha":859,"x_min":0,"x_max":0,"o":"m 300 1092 l 440 1092 l 656 1300 l 498 1300 z m 429 -20 b 793 412 656 -20 793 142 l 793 567 b 689 866 793 709 755 814 l 689 874 l 736 874 b 877 1003 827 874 877 920 l 877 1137 l 763 1137 l 763 1038 b 675 970 763 989 739 970 b 429 999 572 970 525 999 b 66 567 202 999 66 837 l 66 412 b 429 -20 66 142 202 -20 z m 429 109 b 208 412 288 109 208 217 l 208 566 b 429 870 208 762 288 870 b 650 566 570 870 650 762 l 650 412 b 429 109 650 217 570 109 z "},"P":{"ha":859,"x_min":0,"x_max":0,"o":"m 124 979 l 124 0 l 266 0 l 266 340 l 455 340 b 781 659 652 340 781 466 b 459 979 781 853 654 979 z m 266 858 l 425 858 b 637 659 562 858 637 789 b 425 460 637 530 562 460 l 266 460 z "},"Ṗ":{"ha":859,"x_min":0,"x_max":0,"o":"m 124 979 l 124 0 l 266 0 l 266 340 l 455 340 b 781 659 652 340 781 466 b 459 979 781 853 654 979 z m 266 858 l 425 858 b 637 659 562 858 637 789 b 425 460 637 530 562 460 l 266 460 z m 396 1104 b 488 1198 446 1104 488 1147 b 396 1291 488 1249 446 1291 b 304 1198 346 1291 304 1249 b 396 1104 304 1147 346 1104 z "},"Ṕ":{"ha":859,"x_min":0,"x_max":0,"o":"m 124 979 l 124 0 l 266 0 l 266 340 l 455 340 b 781 659 652 340 781 466 b 459 979 781 853 654 979 z m 266 858 l 425 858 b 637 659 562 858 637 789 b 425 460 637 530 562 460 l 266 460 z m 313 1092 l 453 1092 l 669 1300 l 511 1300 z "},"Q":{"ha":859,"x_min":0,"x_max":0,"o":"m 206 562 b 429 870 206 762 288 870 b 652 562 570 870 652 762 l 652 411 b 602 194 652 319 635 246 l 528 313 l 385 313 l 508 117 b 429 103 484 108 458 103 b 206 411 288 103 206 212 z m 793 -111 l 677 74 b 793 412 751 148 793 263 l 793 567 b 429 999 793 838 655 999 b 66 567 203 999 66 838 l 66 412 b 429 -20 66 140 203 -20 b 576 7 484 -20 533 -11 l 650 -111 z "},"R":{"ha":859,"x_min":0,"x_max":0,"o":"m 256 859 l 437 859 b 633 677 561 859 633 792 b 432 496 633 562 560 496 l 256 496 z m 456 382 l 635 0 l 793 0 l 595 408 b 775 680 705 446 775 552 b 452 979 775 865 652 979 l 115 979 l 115 0 l 256 0 l 256 382 z "},"Ř":{"ha":859,"x_min":0,"x_max":0,"o":"m 659 1303 l 524 1303 l 408 1169 l 397 1169 l 281 1303 l 146 1303 l 338 1089 l 467 1089 z m 456 382 l 635 0 l 793 0 l 595 408 b 775 680 705 446 775 552 b 452 979 775 865 652 979 l 115 979 l 115 0 l 256 0 l 256 382 z m 256 859 l 437 859 b 633 677 561 859 633 792 b 432 496 633 562 560 496 l 256 496 z "},"Ṟ":{"ha":859,"x_min":0,"x_max":0,"o":"m 256 859 l 437 859 b 633 677 561 859 633 792 b 432 496 633 562 560 496 l 256 496 z m 456 382 l 635 0 l 793 0 l 595 408 b 775 680 705 446 775 552 b 452 979 775 865 652 979 l 115 979 l 115 0 l 256 0 l 256 382 z m 664 -271 l 664 -169 l 205 -169 l 205 -271 z "},"Ṝ":{"ha":859,"x_min":0,"x_max":0,"o":"m 256 859 l 437 859 b 633 677 561 859 633 792 b 432 496 633 562 560 496 l 256 496 z m 456 382 l 635 0 l 793 0 l 595 408 b 775 680 705 446 775 552 b 452 979 775 865 652 979 l 115 979 l 115 0 l 256 0 l 256 382 z m 435 -311 b 526 -217 484 -311 526 -268 b 435 -123 526 -166 484 -123 b 342 -217 385 -123 342 -166 b 435 -311 342 -268 385 -311 z m 632 1143 l 632 1245 l 173 1245 l 173 1143 z "},"Ȑ":{"ha":859,"x_min":0,"x_max":0,"o":"m 427 1300 l 284 1300 l 489 1092 l 618 1092 z m 162 1300 l 19 1300 l 224 1092 l 353 1092 z m 456 382 l 635 0 l 793 0 l 595 408 b 775 680 705 446 775 552 b 452 979 775 865 652 979 l 115 979 l 115 0 l 256 0 l 256 382 z m 256 859 l 437 859 b 633 677 561 859 633 792 b 432 496 633 562 560 496 l 256 496 z "},"Ȓ":{"ha":859,"x_min":0,"x_max":0,"o":"m 265 1088 b 402 1214 266 1162 322 1214 b 540 1088 483 1214 539 1162 l 645 1088 b 402 1302 645 1215 547 1302 b 160 1088 257 1302 160 1215 z m 456 382 l 635 0 l 793 0 l 595 408 b 775 680 705 446 775 552 b 452 979 775 865 652 979 l 115 979 l 115 0 l 256 0 l 256 382 z m 256 859 l 437 859 b 633 677 561 859 633 792 b 432 496 633 562 560 496 l 256 496 z "},"Ŕ":{"ha":859,"x_min":0,"x_max":0,"o":"m 256 859 l 437 859 b 633 677 561 859 633 792 b 432 496 633 562 560 496 l 256 496 z m 456 382 l 635 0 l 793 0 l 595 408 b 775 680 705 446 775 552 b 452 979 775 865 652 979 l 115 979 l 115 0 l 256 0 l 256 382 z m 319 1092 l 459 1092 l 676 1300 l 518 1300 z "},"Ṛ":{"ha":859,"x_min":0,"x_max":0,"o":"m 256 859 l 437 859 b 633 677 561 859 633 792 b 432 496 633 562 560 496 l 256 496 z m 456 382 l 635 0 l 793 0 l 595 408 b 775 680 705 446 775 552 b 452 979 775 865 652 979 l 115 979 l 115 0 l 256 0 l 256 382 z m 435 -311 b 526 -217 484 -311 526 -268 b 435 -123 526 -166 484 -123 b 342 -217 385 -123 342 -166 b 435 -311 342 -268 385 -311 z "},"Ṙ":{"ha":859,"x_min":0,"x_max":0,"o":"m 256 859 l 437 859 b 633 677 561 859 633 792 b 432 496 633 562 560 496 l 256 496 z m 456 382 l 635 0 l 793 0 l 595 408 b 775 680 705 446 775 552 b 452 979 775 865 652 979 l 115 979 l 115 0 l 256 0 l 256 382 z m 402 1104 b 494 1198 452 1104 494 1147 b 402 1291 494 1249 452 1291 b 311 1198 353 1291 311 1249 b 402 1104 311 1147 353 1104 z "},"Ŗ":{"ha":859,"x_min":0,"x_max":0,"o":"m 256 859 l 437 859 b 633 677 561 859 633 792 b 432 496 633 562 560 496 l 256 496 z m 456 382 l 635 0 l 793 0 l 595 408 b 775 680 705 446 775 552 b 452 979 775 865 652 979 l 115 979 l 115 0 l 256 0 l 256 382 z m 423 -341 l 518 -98 l 379 -98 l 300 -341 z "},"S":{"ha":859,"x_min":0,"x_max":0,"o":"m 85 264 b 437 -20 95 88 229 -20 b 783 273 649 -20 783 93 b 512 550 783 421 702 505 l 422 572 b 250 728 301 602 250 648 b 438 876 250 821 321 876 b 629 724 547 876 618 820 l 765 724 b 437 999 758 890 627 999 b 109 718 237 999 109 888 b 372 442 109 575 192 487 l 462 421 b 641 264 589 390 641 343 b 438 102 641 165 562 102 b 222 264 313 102 233 163 z "},"Š":{"ha":859,"x_min":0,"x_max":0,"o":"m 694 1303 l 559 1303 l 442 1169 l 432 1169 l 316 1303 l 180 1303 l 374 1089 l 501 1089 z m 85 264 b 437 -20 95 88 229 -20 b 783 273 649 -20 783 93 b 512 550 783 421 702 505 l 422 572 b 250 728 301 602 250 648 b 438 876 250 821 321 876 b 629 724 547 876 618 820 l 765 724 b 437 999 758 890 627 999 b 109 718 237 999 109 888 b 372 442 109 575 192 487 l 462 421 b 641 264 589 390 641 343 b 438 102 641 165 562 102 b 222 264 313 102 233 163 z "},"Ş":{"ha":859,"x_min":0,"x_max":0,"o":"m 422 572 b 250 728 301 602 250 648 b 438 876 250 821 321 876 b 629 724 547 876 618 820 l 765 724 b 437 999 758 890 627 999 b 109 718 237 999 109 888 b 372 442 109 575 192 487 l 462 421 b 641 264 589 390 641 343 b 438 102 641 165 562 102 b 222 264 313 102 233 163 l 85 264 b 389 -18 94 102 208 -3 l 356 -96 l 356 -160 l 395 -160 b 489 -203 462 -160 489 -173 b 413 -249 489 -233 463 -249 b 334 -239 387 -249 349 -244 l 334 -319 b 424 -331 363 -327 389 -331 b 591 -199 526 -331 591 -280 b 458 -85 591 -127 544 -87 l 486 -18 b 783 273 669 -2 783 107 b 512 550 783 421 702 505 z "},"Ṡ":{"ha":859,"x_min":0,"x_max":0,"o":"m 85 264 b 437 -20 95 88 229 -20 b 783 273 649 -20 783 93 b 512 550 783 421 702 505 l 422 572 b 250 728 301 602 250 648 b 438 876 250 821 321 876 b 629 724 547 876 618 820 l 765 724 b 437 999 758 890 627 999 b 109 718 237 999 109 888 b 372 442 109 575 192 487 l 462 421 b 641 264 589 390 641 343 b 438 102 641 165 562 102 b 222 264 313 102 233 163 z m 437 1104 b 529 1198 487 1104 529 1147 b 437 1291 529 1249 487 1291 b 345 1198 387 1291 345 1249 b 437 1104 345 1147 387 1104 z "},"Ṣ":{"ha":859,"x_min":0,"x_max":0,"o":"m 85 264 b 437 -20 95 88 229 -20 b 783 273 649 -20 783 93 b 512 550 783 421 702 505 l 422 572 b 250 728 301 602 250 648 b 438 876 250 821 321 876 b 629 724 547 876 618 820 l 765 724 b 437 999 758 890 627 999 b 109 718 237 999 109 888 b 372 442 109 575 192 487 l 462 421 b 641 264 589 390 641 343 b 438 102 641 165 562 102 b 222 264 313 102 233 163 z m 437 -302 b 529 -208 487 -302 529 -260 b 437 -115 529 -157 487 -115 b 345 -208 387 -115 345 -157 b 437 -302 345 -260 387 -302 z "},"Ș":{"ha":859,"x_min":0,"x_max":0,"o":"m 85 264 b 437 -20 95 88 229 -20 b 783 273 649 -20 783 93 b 512 550 783 421 702 505 l 422 572 b 250 728 301 602 250 648 b 438 876 250 821 321 876 b 629 724 547 876 618 820 l 765 724 b 437 999 758 890 627 999 b 109 718 237 999 109 888 b 372 442 109 575 192 487 l 462 421 b 641 264 589 390 641 343 b 438 102 641 165 562 102 b 222 264 313 102 233 163 z m 426 -341 l 521 -98 l 382 -98 l 302 -341 z "},"Ṩ":{"ha":859,"x_min":0,"x_max":0,"o":"m 85 264 b 437 -20 95 88 229 -20 b 783 273 649 -20 783 93 b 512 550 783 421 702 505 l 422 572 b 250 728 301 602 250 648 b 438 876 250 821 321 876 b 629 724 547 876 618 820 l 765 724 b 437 999 758 890 627 999 b 109 718 237 999 109 888 b 372 442 109 575 192 487 l 462 421 b 641 264 589 390 641 343 b 438 102 641 165 562 102 b 222 264 313 102 233 163 z m 437 -311 b 529 -217 487 -311 529 -268 b 437 -123 529 -166 487 -123 b 345 -217 387 -123 345 -166 b 437 -311 345 -268 387 -311 z m 437 1104 b 529 1198 487 1104 529 1147 b 437 1291 529 1249 487 1291 b 345 1198 387 1291 345 1249 b 437 1104 345 1147 387 1104 z "},"Ṧ":{"ha":859,"x_min":0,"x_max":0,"o":"m 85 264 b 437 -20 95 88 229 -20 b 783 273 649 -20 783 93 b 512 550 783 421 702 505 l 422 572 b 250 728 301 602 250 648 b 438 876 250 821 321 876 b 629 724 547 876 618 820 l 765 724 b 437 999 758 890 627 999 b 109 718 237 999 109 888 b 372 442 109 575 192 487 l 462 421 b 641 264 589 390 641 343 b 438 102 641 165 562 102 b 222 264 313 102 233 163 z m 437 1274 b 523 1358 486 1274 523 1311 b 437 1442 523 1407 486 1442 b 351 1358 388 1442 351 1407 b 437 1274 351 1311 388 1274 z m 507 1070 l 697 1236 l 554 1236 l 442 1137 l 432 1137 l 321 1236 l 177 1236 l 367 1070 z "},"Ŝ":{"ha":859,"x_min":0,"x_max":0,"o":"m 85 264 b 437 -20 95 88 229 -20 b 783 273 649 -20 783 93 b 512 550 783 421 702 505 l 422 572 b 250 728 301 602 250 648 b 438 876 250 821 321 876 b 629 724 547 876 618 820 l 765 724 b 437 999 758 890 627 999 b 109 718 237 999 109 888 b 372 442 109 575 192 487 l 462 421 b 641 264 589 390 641 343 b 438 102 641 165 562 102 b 222 264 313 102 233 163 z m 501 1305 l 374 1305 l 180 1092 l 316 1092 l 432 1225 l 442 1225 l 559 1092 l 694 1092 z "},"Ṥ":{"ha":859,"x_min":0,"x_max":0,"o":"m 85 264 b 437 -20 95 88 229 -20 b 783 273 649 -20 783 93 b 512 550 783 421 702 505 l 422 572 b 250 728 301 602 250 648 b 438 876 250 821 321 876 b 629 724 547 876 618 820 l 765 724 b 437 999 758 890 627 999 b 109 718 237 999 109 888 b 372 442 109 575 192 487 l 462 421 b 641 264 589 390 641 343 b 438 102 641 165 562 102 b 222 264 313 102 233 163 z m 420 1092 l 561 1092 l 777 1300 l 620 1300 z m 316 1133 b 408 1227 366 1133 408 1176 b 316 1320 408 1278 366 1320 b 224 1227 267 1320 224 1278 b 316 1133 224 1176 267 1133 z "},"Ś":{"ha":859,"x_min":0,"x_max":0,"o":"m 85 264 b 437 -20 95 88 229 -20 b 783 273 649 -20 783 93 b 512 550 783 421 702 505 l 422 572 b 250 728 301 602 250 648 b 438 876 250 821 321 876 b 629 724 547 876 618 820 l 765 724 b 437 999 758 890 627 999 b 109 718 237 999 109 888 b 372 442 109 575 192 487 l 462 421 b 641 264 589 390 641 343 b 438 102 641 165 562 102 b 222 264 313 102 233 163 z m 353 1092 l 494 1092 l 711 1300 l 553 1300 z "},"T":{"ha":859,"x_min":0,"x_max":0,"o":"m 500 0 l 500 853 l 791 853 l 791 979 l 68 979 l 68 853 l 359 853 l 359 0 z "},"Ṱ":{"ha":859,"x_min":0,"x_max":0,"o":"m 500 0 l 500 853 l 791 853 l 791 979 l 68 979 l 68 853 l 359 853 l 359 0 z m 353 -111 l 168 -346 l 313 -346 l 424 -196 l 435 -196 l 546 -346 l 690 -346 l 506 -111 z "},"Ṭ":{"ha":859,"x_min":0,"x_max":0,"o":"m 500 0 l 500 853 l 791 853 l 791 979 l 68 979 l 68 853 l 359 853 l 359 0 z m 429 -311 b 522 -217 479 -311 522 -268 b 429 -123 522 -166 479 -123 b 337 -217 380 -123 337 -166 b 429 -311 337 -268 380 -311 z "},"Ț":{"ha":859,"x_min":0,"x_max":0,"o":"m 500 0 l 500 853 l 791 853 l 791 979 l 68 979 l 68 853 l 359 853 l 359 0 z m 414 -341 l 509 -98 l 370 -98 l 290 -341 z "},"Ṫ":{"ha":859,"x_min":0,"x_max":0,"o":"m 500 0 l 500 853 l 791 853 l 791 979 l 68 979 l 68 853 l 359 853 l 359 0 z m 429 1104 b 522 1198 479 1104 522 1147 b 429 1291 522 1249 479 1291 b 337 1198 380 1291 337 1249 b 429 1104 337 1147 380 1104 z "},"Ţ":{"ha":859,"x_min":0,"x_max":0,"o":"m 500 0 l 500 853 l 791 853 l 791 979 l 68 979 l 68 853 l 359 853 l 359 0 l 388 0 l 348 -96 l 348 -160 l 387 -160 b 481 -203 454 -160 481 -173 b 405 -249 481 -233 454 -249 b 326 -239 379 -249 340 -244 l 326 -319 b 416 -331 355 -327 381 -331 b 583 -199 518 -331 583 -280 b 450 -85 583 -127 536 -87 l 485 0 z "},"Ṯ":{"ha":859,"x_min":0,"x_max":0,"o":"m 500 0 l 500 853 l 791 853 l 791 979 l 68 979 l 68 853 l 359 853 l 359 0 z m 659 -272 l 659 -169 l 199 -169 l 199 -272 z "},"Ť":{"ha":859,"x_min":0,"x_max":0,"o":"m 686 1303 l 551 1303 l 434 1169 l 425 1169 l 308 1303 l 172 1303 l 366 1089 l 493 1089 z m 500 0 l 500 853 l 791 853 l 791 979 l 68 979 l 68 853 l 359 853 l 359 0 z "},"Ŧ":{"ha":859,"x_min":0,"x_max":0,"o":"m 791 853 l 791 979 l 68 979 l 68 853 l 359 853 l 359 538 l 159 538 l 159 431 l 359 431 l 359 0 l 500 0 l 500 431 l 699 431 l 699 538 l 500 538 l 500 853 z "},"U":{"ha":859,"x_min":0,"x_max":0,"o":"m 429 109 b 220 350 296 109 220 197 l 220 979 l 79 979 l 79 341 b 429 -20 79 115 210 -20 b 780 341 649 -20 780 115 l 780 979 l 639 979 l 639 350 b 429 109 639 197 562 109 z "},"Ù":{"ha":859,"x_min":0,"x_max":0,"o":"m 311 1300 l 153 1300 l 370 1092 l 511 1092 z m 220 979 l 79 979 l 79 341 b 429 -20 79 115 210 -20 b 780 341 649 -20 780 115 l 780 979 l 639 979 l 639 350 b 429 109 639 197 562 109 b 220 350 296 109 220 197 z "},"Ȕ":{"ha":859,"x_min":0,"x_max":0,"o":"m 452 1300 l 309 1300 l 514 1092 l 644 1092 z m 188 1300 l 45 1300 l 250 1092 l 379 1092 z m 220 979 l 79 979 l 79 341 b 429 -20 79 115 210 -20 b 780 341 649 -20 780 115 l 780 979 l 639 979 l 639 350 b 429 109 639 197 562 109 b 220 350 296 109 220 197 z "},"Ú":{"ha":859,"x_min":0,"x_max":0,"o":"m 429 109 b 220 350 296 109 220 197 l 220 979 l 79 979 l 79 341 b 429 -20 79 115 210 -20 b 780 341 649 -20 780 115 l 780 979 l 639 979 l 639 350 b 429 109 639 197 562 109 z m 345 1092 l 485 1092 l 701 1300 l 543 1300 z "},"Ű":{"ha":859,"x_min":0,"x_max":0,"o":"m 429 109 b 220 350 296 109 220 197 l 220 979 l 79 979 l 79 341 b 429 -20 79 115 210 -20 b 780 341 649 -20 780 115 l 780 979 l 639 979 l 639 350 b 429 109 639 197 562 109 z m 458 1092 l 589 1092 l 793 1300 l 650 1300 z m 194 1092 l 323 1092 l 528 1300 l 385 1300 z "},"Û":{"ha":859,"x_min":0,"x_max":0,"o":"m 429 109 b 220 350 296 109 220 197 l 220 979 l 79 979 l 79 341 b 429 -20 79 115 210 -20 b 780 341 649 -20 780 115 l 780 979 l 639 979 l 639 350 b 429 109 639 197 562 109 z m 492 1305 l 364 1305 l 171 1092 l 307 1092 l 423 1225 l 433 1225 l 549 1092 l 685 1092 z "},"Ǔ":{"ha":859,"x_min":0,"x_max":0,"o":"m 685 1303 l 549 1303 l 433 1169 l 423 1169 l 307 1303 l 171 1303 l 364 1089 l 492 1089 z m 220 979 l 79 979 l 79 341 b 429 -20 79 115 210 -20 b 780 341 649 -20 780 115 l 780 979 l 639 979 l 639 350 b 429 109 639 197 562 109 b 220 350 296 109 220 197 z "},"Ṷ":{"ha":859,"x_min":0,"x_max":0,"o":"m 429 109 b 220 350 296 109 220 197 l 220 979 l 79 979 l 79 341 b 429 -20 79 115 210 -20 b 780 341 649 -20 780 115 l 780 979 l 639 979 l 639 350 b 429 109 639 197 562 109 z m 351 -111 l 167 -346 l 311 -346 l 422 -196 l 433 -196 l 545 -346 l 689 -346 l 505 -111 z "},"Ü":{"ha":859,"x_min":0,"x_max":0,"o":"m 429 109 b 220 350 296 109 220 197 l 220 979 l 79 979 l 79 341 b 429 -20 79 115 210 -20 b 780 341 649 -20 780 115 l 780 979 l 639 979 l 639 350 b 429 109 639 197 562 109 z m 286 1114 b 371 1202 331 1114 371 1154 b 286 1289 371 1249 331 1289 b 200 1202 239 1289 200 1249 b 286 1114 200 1154 239 1114 z m 570 1114 b 656 1202 616 1114 656 1154 b 570 1289 656 1249 616 1289 b 485 1202 525 1289 485 1249 b 570 1114 485 1154 525 1114 z "},"Ǜ":{"ha":859,"x_min":0,"x_max":0,"o":"m 290 1061 b 370 1143 334 1061 370 1098 b 290 1225 370 1188 334 1225 b 211 1143 246 1225 211 1188 b 290 1061 211 1098 246 1061 z m 567 1061 b 646 1143 611 1061 646 1098 b 567 1225 646 1188 611 1225 b 488 1143 524 1225 488 1188 b 567 1061 488 1098 524 1061 z m 383 1428 l 235 1428 l 388 1272 l 515 1272 z m 220 979 l 79 979 l 79 341 b 429 -20 79 115 210 -20 b 780 341 649 -20 780 115 l 780 979 l 639 979 l 639 350 b 429 109 639 197 562 109 b 220 350 296 109 220 197 z "},"Ǘ":{"ha":859,"x_min":0,"x_max":0,"o":"m 429 109 b 220 350 296 109 220 197 l 220 979 l 79 979 l 79 341 b 429 -20 79 115 210 -20 b 780 341 649 -20 780 115 l 780 979 l 639 979 l 639 350 b 429 109 639 197 562 109 z m 342 1272 l 469 1272 l 621 1428 l 474 1428 z m 290 1061 b 369 1143 334 1061 369 1098 b 290 1225 369 1188 334 1225 b 210 1143 246 1225 210 1188 b 290 1061 210 1098 246 1061 z m 567 1061 b 646 1143 611 1061 646 1098 b 567 1225 646 1188 611 1225 b 488 1143 523 1225 488 1188 b 567 1061 488 1098 523 1061 z "},"Ǖ":{"ha":859,"x_min":0,"x_max":0,"o":"m 567 1225 b 488 1143 524 1225 488 1188 b 567 1061 488 1098 524 1061 b 646 1143 611 1061 646 1098 b 567 1225 646 1188 611 1225 z m 197 1316 l 660 1316 l 660 1407 l 197 1407 z m 290 1225 b 211 1143 246 1225 211 1188 b 290 1061 211 1098 246 1061 b 370 1143 334 1061 370 1098 b 290 1225 370 1188 334 1225 z m 220 979 l 79 979 l 79 341 b 429 -20 79 115 210 -20 b 780 341 649 -20 780 115 l 780 979 l 639 979 l 639 350 b 429 109 639 197 562 109 b 220 350 296 109 220 197 z "},"Ǚ":{"ha":859,"x_min":0,"x_max":0,"o":"m 429 109 b 220 350 296 109 220 197 l 220 979 l 79 979 l 79 341 b 429 -20 79 115 210 -20 b 780 341 649 -20 780 115 l 780 979 l 639 979 l 639 350 b 429 109 639 197 562 109 z m 495 1265 l 685 1442 l 544 1442 l 433 1335 l 422 1335 l 312 1442 l 171 1442 l 361 1265 z m 290 1061 b 369 1143 334 1061 369 1098 b 290 1225 369 1188 334 1225 b 210 1143 246 1225 210 1188 b 290 1061 210 1098 246 1061 z m 567 1061 b 646 1143 611 1061 646 1098 b 567 1225 646 1188 611 1225 b 488 1143 523 1225 488 1188 b 567 1061 488 1098 523 1061 z "},"Ṳ":{"ha":859,"x_min":0,"x_max":0,"o":"m 429 109 b 220 350 296 109 220 197 l 220 979 l 79 979 l 79 341 b 429 -20 79 115 210 -20 b 780 341 649 -20 780 115 l 780 979 l 639 979 l 639 350 b 429 109 639 197 562 109 z m 286 -304 b 371 -217 331 -304 371 -264 b 286 -130 371 -170 331 -130 b 200 -217 239 -130 200 -170 b 286 -304 200 -264 239 -304 z m 570 -304 b 656 -217 616 -304 656 -264 b 570 -130 656 -170 616 -130 b 485 -217 525 -130 485 -170 b 570 -304 485 -264 525 -304 z "},"Ṵ":{"ha":859,"x_min":0,"x_max":0,"o":"m 429 109 b 220 350 296 109 220 197 l 220 979 l 79 979 l 79 341 b 429 -20 79 115 210 -20 b 780 341 649 -20 780 115 l 780 979 l 639 979 l 639 350 b 429 109 639 197 562 109 z m 334 -213 b 524 -317 391 -213 420 -317 b 684 -114 623 -317 684 -239 l 581 -114 b 522 -216 580 -184 562 -216 b 332 -112 465 -216 435 -112 b 172 -317 233 -112 172 -191 l 276 -317 b 334 -213 276 -246 294 -213 z "},"Ủ":{"ha":859,"x_min":0,"x_max":0,"o":"m 429 109 b 220 350 296 109 220 197 l 220 979 l 79 979 l 79 341 b 429 -20 79 115 210 -20 b 780 341 649 -20 780 115 l 780 979 l 639 979 l 639 350 b 429 109 639 197 562 109 z m 304 1234 b 380 1249 321 1243 351 1249 b 451 1198 423 1249 451 1228 b 382 1126 451 1168 422 1141 l 431 1064 b 547 1210 502 1090 547 1146 b 399 1335 547 1286 488 1335 b 304 1318 363 1335 326 1327 z "},"Ŭ":{"ha":859,"x_min":0,"x_max":0,"o":"m 429 109 b 220 350 296 109 220 197 l 220 979 l 79 979 l 79 341 b 429 -20 79 115 210 -20 b 780 341 649 -20 780 115 l 780 979 l 639 979 l 639 350 b 429 109 639 197 562 109 z m 185 1302 b 428 1088 185 1176 283 1088 b 670 1302 573 1088 670 1176 l 566 1302 b 428 1177 565 1228 509 1177 b 290 1302 347 1177 291 1228 z "},"Ȗ":{"ha":859,"x_min":0,"x_max":0,"o":"m 290 1088 b 428 1214 291 1162 347 1214 b 566 1088 509 1214 565 1162 l 670 1088 b 428 1302 670 1215 573 1302 b 185 1088 283 1302 185 1215 z m 220 979 l 79 979 l 79 341 b 429 -20 79 115 210 -20 b 780 341 649 -20 780 115 l 780 979 l 639 979 l 639 350 b 429 109 639 197 562 109 b 220 350 296 109 220 197 z "},"Ṹ":{"ha":859,"x_min":0,"x_max":0,"o":"m 429 109 b 220 350 296 109 220 197 l 220 979 l 79 979 l 79 341 b 429 -20 79 115 210 -20 b 780 341 649 -20 780 115 l 780 979 l 639 979 l 639 350 b 429 109 639 197 562 109 z m 372 1292 l 492 1292 l 602 1444 l 467 1444 z m 526 1055 b 675 1223 612 1055 675 1120 l 581 1223 b 519 1145 579 1171 555 1145 b 330 1233 450 1145 441 1233 b 181 1063 242 1233 181 1168 l 275 1063 b 336 1143 277 1116 299 1143 b 526 1055 406 1143 414 1055 z "},"Ụ":{"ha":859,"x_min":0,"x_max":0,"o":"m 429 109 b 220 350 296 109 220 197 l 220 979 l 79 979 l 79 341 b 429 -20 79 115 210 -20 b 780 341 649 -20 780 115 l 780 979 l 639 979 l 639 350 b 429 109 639 197 562 109 z m 428 -311 b 519 -217 477 -311 519 -268 b 428 -123 519 -166 477 -123 b 336 -217 378 -123 336 -166 b 428 -311 336 -268 378 -311 z "},"Ũ":{"ha":859,"x_min":0,"x_max":0,"o":"m 429 109 b 220 350 296 109 220 197 l 220 979 l 79 979 l 79 341 b 429 -20 79 115 210 -20 b 780 341 649 -20 780 115 l 780 979 l 639 979 l 639 350 b 429 109 639 197 562 109 z m 530 1093 b 680 1281 618 1093 680 1165 l 587 1281 b 522 1186 584 1217 560 1186 b 326 1289 460 1186 437 1289 b 176 1100 236 1289 176 1218 l 270 1100 b 334 1196 272 1165 295 1196 b 530 1093 403 1196 424 1093 z "},"Ū":{"ha":859,"x_min":0,"x_max":0,"o":"m 429 109 b 220 350 296 109 220 197 l 220 979 l 79 979 l 79 341 b 429 -20 79 115 210 -20 b 780 341 649 -20 780 115 l 780 979 l 639 979 l 639 350 b 429 109 639 197 562 109 z m 658 1143 l 658 1245 l 198 1245 l 198 1143 z "},"Ṻ":{"ha":859,"x_min":0,"x_max":0,"o":"m 429 109 b 220 350 296 109 220 197 l 220 979 l 79 979 l 79 341 b 429 -20 79 115 210 -20 b 780 341 649 -20 780 115 l 780 979 l 639 979 l 639 350 b 429 109 639 197 562 109 z m 290 1276 b 369 1358 334 1276 369 1312 b 290 1439 369 1403 334 1439 b 210 1358 246 1439 210 1403 b 290 1276 210 1312 246 1276 z m 196 1094 l 659 1094 l 659 1184 l 196 1184 z m 567 1276 b 646 1358 611 1276 646 1312 b 567 1439 646 1403 611 1439 b 488 1358 523 1439 488 1403 b 567 1276 488 1312 523 1276 z "},"Ů":{"ha":859,"x_min":0,"x_max":0,"o":"m 429 109 b 220 350 296 109 220 197 l 220 979 l 79 979 l 79 341 b 429 -20 79 115 210 -20 b 780 341 649 -20 780 115 l 780 979 l 639 979 l 639 350 b 429 109 639 197 562 109 z m 428 1056 b 561 1187 503 1056 561 1113 b 428 1318 561 1261 503 1318 b 295 1187 353 1318 295 1261 b 428 1056 295 1113 353 1056 z m 428 1119 b 360 1187 389 1119 360 1147 b 428 1254 360 1225 389 1254 b 496 1187 467 1254 496 1225 b 428 1119 496 1148 467 1119 z "},"Ų":{"ha":859,"x_min":0,"x_max":0,"o":"m 581 -295 b 657 -283 610 -295 637 -291 l 657 -195 b 611 -199 644 -198 628 -199 b 528 -121 560 -199 528 -169 b 634 24 528 -72 559 -29 b 780 341 734 96 780 195 l 780 979 l 639 979 l 639 350 b 429 109 639 197 562 109 b 220 350 296 109 220 197 l 220 979 l 79 979 l 79 341 b 416 -20 79 118 208 -20 b 507 -1 448 -20 484 -12 l 507 -12 b 414 -157 444 -54 414 -100 b 581 -295 414 -238 483 -295 z "},"Ư":{"ha":859,"x_min":0,"x_max":0,"o":"m 425 -20 b 769 341 643 -20 769 113 l 769 880 l 800 880 b 938 1009 887 880 938 928 l 938 1153 l 825 1153 l 825 1037 b 760 979 825 998 802 979 l 628 979 l 628 343 b 425 109 628 195 554 109 b 222 343 296 109 222 195 l 222 979 l 81 979 l 81 341 b 425 -20 81 113 208 -20 z "},"Ừ":{"ha":859,"x_min":0,"x_max":0,"o":"m 769 880 l 800 880 b 938 1009 887 880 938 928 l 938 1153 l 825 1153 l 825 1037 b 760 979 825 998 802 979 l 628 979 l 628 343 b 425 109 628 195 554 109 b 222 343 296 109 222 195 l 222 979 l 81 979 l 81 341 b 425 -20 81 113 208 -20 b 769 341 643 -20 769 113 z m 317 1300 l 159 1300 l 375 1092 l 516 1092 z "},"Ứ":{"ha":859,"x_min":0,"x_max":0,"o":"m 313 1092 l 453 1092 l 669 1300 l 512 1300 z m 425 -20 b 769 341 643 -20 769 113 l 769 880 l 800 880 b 938 1009 887 880 938 928 l 938 1153 l 825 1153 l 825 1037 b 760 979 825 998 802 979 l 628 979 l 628 343 b 425 109 628 195 554 109 b 222 343 296 109 222 195 l 222 979 l 81 979 l 81 341 b 425 -20 81 113 208 -20 z "},"Ự":{"ha":859,"x_min":0,"x_max":0,"o":"m 429 -311 b 522 -217 479 -311 522 -268 b 429 -123 522 -166 479 -123 b 337 -217 380 -123 337 -166 b 429 -311 337 -268 380 -311 z m 425 -20 b 769 341 643 -20 769 113 l 769 880 l 800 880 b 938 1009 887 880 938 928 l 938 1153 l 825 1153 l 825 1037 b 760 979 825 998 802 979 l 628 979 l 628 343 b 425 109 628 195 554 109 b 222 343 296 109 222 195 l 222 979 l 81 979 l 81 341 b 425 -20 81 113 208 -20 z "},"Ử":{"ha":859,"x_min":0,"x_max":0,"o":"m 306 1234 b 381 1249 323 1243 352 1249 b 452 1198 425 1249 452 1228 b 383 1126 452 1168 424 1141 l 433 1064 b 549 1210 503 1090 549 1146 b 400 1335 549 1286 489 1335 b 306 1318 364 1335 328 1327 z m 425 -20 b 769 341 643 -20 769 113 l 769 880 l 800 880 b 938 1009 887 880 938 928 l 938 1153 l 825 1153 l 825 1037 b 760 979 825 998 802 979 l 628 979 l 628 343 b 425 109 628 195 554 109 b 222 343 296 109 222 195 l 222 979 l 81 979 l 81 341 b 425 -20 81 113 208 -20 z "},"Ữ":{"ha":859,"x_min":0,"x_max":0,"o":"m 532 1093 b 681 1281 620 1093 681 1165 l 588 1281 b 523 1186 585 1217 562 1186 b 327 1289 462 1186 438 1289 b 178 1100 237 1289 178 1218 l 271 1100 b 336 1196 273 1165 296 1196 b 532 1093 404 1196 425 1093 z m 425 -20 b 769 341 643 -20 769 113 l 769 880 l 800 880 b 938 1009 887 880 938 928 l 938 1153 l 825 1153 l 825 1037 b 760 979 825 998 802 979 l 628 979 l 628 343 b 425 109 628 195 554 109 b 222 343 296 109 222 195 l 222 979 l 81 979 l 81 341 b 425 -20 81 113 208 -20 z "},"V":{"ha":859,"x_min":0,"x_max":0,"o":"m 435 157 l 430 157 l 191 979 l 42 979 l 351 0 l 508 0 l 817 979 l 675 979 z "},"Ṽ":{"ha":859,"x_min":0,"x_max":0,"o":"m 435 157 l 430 157 l 191 979 l 42 979 l 351 0 l 508 0 l 817 979 l 675 979 z m 532 1093 b 681 1281 620 1093 681 1165 l 588 1281 b 523 1186 585 1217 562 1186 b 327 1289 462 1186 438 1289 b 178 1100 237 1289 178 1218 l 271 1100 b 336 1196 273 1165 296 1196 b 532 1093 404 1196 425 1093 z "},"Ṿ":{"ha":859,"x_min":0,"x_max":0,"o":"m 435 157 l 430 157 l 191 979 l 42 979 l 351 0 l 508 0 l 817 979 l 675 979 z m 429 -311 b 522 -217 479 -311 522 -268 b 429 -123 522 -166 479 -123 b 337 -217 380 -123 337 -166 b 429 -311 337 -268 380 -311 z "},"W":{"ha":859,"x_min":0,"x_max":0,"o":"m 433 599 l 566 0 l 695 0 l 859 979 l 727 979 l 674 602 l 621 199 l 612 199 l 490 755 l 369 755 l 246 199 l 237 199 l 184 602 l 132 979 l 0 979 l 163 0 l 293 0 l 425 599 z "},"Ẁ":{"ha":859,"x_min":0,"x_max":0,"o":"m 313 1300 l 155 1300 l 372 1092 l 512 1092 z m 433 599 l 566 0 l 695 0 l 859 979 l 727 979 l 674 602 l 621 199 l 612 199 l 490 755 l 369 755 l 246 199 l 237 199 l 184 602 l 132 979 l 0 979 l 163 0 l 293 0 l 425 599 z "},"Ẃ":{"ha":859,"x_min":0,"x_max":0,"o":"m 433 599 l 566 0 l 695 0 l 859 979 l 727 979 l 674 602 l 621 199 l 612 199 l 490 755 l 369 755 l 246 199 l 237 199 l 184 602 l 132 979 l 0 979 l 163 0 l 293 0 l 425 599 z m 346 1092 l 486 1092 l 703 1300 l 545 1300 z "},"Ẇ":{"ha":859,"x_min":0,"x_max":0,"o":"m 433 599 l 566 0 l 695 0 l 859 979 l 727 979 l 674 602 l 621 199 l 612 199 l 490 755 l 369 755 l 246 199 l 237 199 l 184 602 l 132 979 l 0 979 l 163 0 l 293 0 l 425 599 z m 429 1104 b 522 1198 479 1104 522 1147 b 429 1291 522 1249 479 1291 b 338 1198 380 1291 338 1249 b 429 1104 338 1147 380 1104 z "},"Ẉ":{"ha":859,"x_min":0,"x_max":0,"o":"m 433 599 l 566 0 l 695 0 l 859 979 l 727 979 l 674 602 l 621 199 l 612 199 l 490 755 l 369 755 l 246 199 l 237 199 l 184 602 l 132 979 l 0 979 l 163 0 l 293 0 l 425 599 z m 429 -311 b 522 -217 479 -311 522 -268 b 429 -123 522 -166 479 -123 b 337 -217 380 -123 337 -166 b 429 -311 337 -268 380 -311 z "},"Ẅ":{"ha":859,"x_min":0,"x_max":0,"o":"m 433 599 l 566 0 l 695 0 l 859 979 l 727 979 l 674 602 l 621 199 l 612 199 l 490 755 l 369 755 l 246 199 l 237 199 l 184 602 l 132 979 l 0 979 l 163 0 l 293 0 l 425 599 z m 287 1114 b 372 1202 333 1114 372 1154 b 287 1289 372 1249 333 1289 b 201 1202 241 1289 201 1249 b 287 1114 201 1154 241 1114 z m 572 1114 b 658 1202 618 1114 658 1154 b 572 1289 658 1249 618 1289 b 487 1202 526 1289 487 1249 b 572 1114 487 1154 526 1114 z "},"Ŵ":{"ha":859,"x_min":0,"x_max":0,"o":"m 433 599 l 566 0 l 695 0 l 859 979 l 727 979 l 674 602 l 621 199 l 612 199 l 490 755 l 369 755 l 246 199 l 237 199 l 184 602 l 132 979 l 0 979 l 163 0 l 293 0 l 425 599 z m 493 1305 l 366 1305 l 173 1092 l 308 1092 l 425 1225 l 435 1225 l 551 1092 l 686 1092 z "},"X":{"ha":859,"x_min":0,"x_max":0,"o":"m 40 0 l 184 0 l 420 375 l 427 375 l 661 0 l 814 0 l 509 489 l 819 979 l 671 979 l 437 597 l 431 597 l 200 979 l 42 979 l 345 492 z "},"Ẋ":{"ha":859,"x_min":0,"x_max":0,"o":"m 40 0 l 184 0 l 420 375 l 427 375 l 661 0 l 814 0 l 509 489 l 819 979 l 671 979 l 437 597 l 431 597 l 200 979 l 42 979 l 345 492 z m 429 1104 b 522 1198 479 1104 522 1147 b 429 1291 522 1249 479 1291 b 337 1198 380 1291 337 1249 b 429 1104 337 1147 380 1104 z "},"Ẍ":{"ha":859,"x_min":0,"x_max":0,"o":"m 40 0 l 184 0 l 420 375 l 427 375 l 661 0 l 814 0 l 509 489 l 819 979 l 671 979 l 437 597 l 431 597 l 200 979 l 42 979 l 345 492 z m 287 1114 b 372 1202 332 1114 372 1154 b 287 1289 372 1249 332 1289 b 201 1202 241 1289 201 1249 b 287 1114 201 1154 241 1114 z m 572 1114 b 657 1202 618 1114 657 1154 b 572 1289 657 1249 618 1289 b 486 1202 526 1289 486 1249 b 572 1114 486 1154 526 1114 z "},"Y":{"ha":859,"x_min":0,"x_max":0,"o":"m 500 0 l 500 393 l 823 979 l 667 979 l 434 539 l 425 539 l 192 979 l 36 979 l 359 393 l 359 0 z "},"Ỳ":{"ha":859,"x_min":0,"x_max":0,"o":"m 315 1300 l 157 1300 l 374 1092 l 514 1092 z m 500 0 l 500 393 l 823 979 l 667 979 l 434 539 l 425 539 l 192 979 l 36 979 l 359 393 l 359 0 z "},"Ý":{"ha":859,"x_min":0,"x_max":0,"o":"m 500 0 l 500 393 l 823 979 l 667 979 l 434 539 l 425 539 l 192 979 l 36 979 l 359 393 l 359 0 z m 344 1092 l 484 1092 l 701 1300 l 543 1300 z "},"Ẏ":{"ha":859,"x_min":0,"x_max":0,"o":"m 500 0 l 500 393 l 823 979 l 667 979 l 434 539 l 425 539 l 192 979 l 36 979 l 359 393 l 359 0 z m 429 1104 b 522 1198 479 1104 522 1147 b 429 1291 522 1249 479 1291 b 337 1198 380 1291 337 1249 b 429 1104 337 1147 380 1104 z "},"Ỵ":{"ha":859,"x_min":0,"x_max":0,"o":"m 500 0 l 500 393 l 823 979 l 667 979 l 434 539 l 425 539 l 192 979 l 36 979 l 359 393 l 359 0 z m 429 -311 b 522 -217 479 -311 522 -268 b 429 -123 522 -166 479 -123 b 337 -217 380 -123 337 -166 b 429 -311 337 -268 380 -311 z "},"Ÿ":{"ha":859,"x_min":0,"x_max":0,"o":"m 500 0 l 500 393 l 823 979 l 667 979 l 434 539 l 425 539 l 192 979 l 36 979 l 359 393 l 359 0 z m 287 1114 b 372 1202 332 1114 372 1154 b 287 1289 372 1249 332 1289 b 201 1202 241 1289 201 1249 b 287 1114 201 1154 241 1114 z m 572 1114 b 657 1202 618 1114 657 1154 b 572 1289 657 1249 618 1289 b 486 1202 526 1289 486 1249 b 572 1114 486 1154 526 1114 z "},"Ỹ":{"ha":859,"x_min":0,"x_max":0,"o":"m 500 0 l 500 393 l 823 979 l 667 979 l 434 539 l 425 539 l 192 979 l 36 979 l 359 393 l 359 0 z m 532 1093 b 681 1281 620 1093 681 1165 l 588 1281 b 523 1186 585 1217 562 1186 b 327 1289 462 1186 438 1289 b 178 1100 237 1289 178 1218 l 271 1100 b 336 1196 273 1165 296 1196 b 532 1093 404 1196 425 1093 z "},"Ŷ":{"ha":859,"x_min":0,"x_max":0,"o":"m 500 0 l 500 393 l 823 979 l 667 979 l 434 539 l 425 539 l 192 979 l 36 979 l 359 393 l 359 0 z m 493 1305 l 366 1305 l 172 1092 l 308 1092 l 425 1225 l 434 1225 l 551 1092 l 686 1092 z "},"Ȳ":{"ha":859,"x_min":0,"x_max":0,"o":"m 500 0 l 500 393 l 823 979 l 667 979 l 434 539 l 425 539 l 192 979 l 36 979 l 359 393 l 359 0 z m 659 1143 l 659 1245 l 199 1245 l 199 1143 z "},"Ỷ":{"ha":859,"x_min":0,"x_max":0,"o":"m 500 0 l 500 393 l 823 979 l 667 979 l 434 539 l 425 539 l 192 979 l 36 979 l 359 393 l 359 0 z m 306 1234 b 381 1249 323 1243 352 1249 b 452 1198 425 1249 452 1228 b 383 1126 452 1168 424 1141 l 433 1064 b 549 1210 503 1090 549 1146 b 400 1335 549 1286 489 1335 b 306 1318 364 1335 328 1327 z "},"Z":{"ha":859,"x_min":0,"x_max":0,"o":"m 92 0 l 772 0 l 772 125 l 270 125 l 270 135 l 762 879 l 762 979 l 108 979 l 108 853 l 585 853 l 585 844 l 92 100 z "},"Ź":{"ha":859,"x_min":0,"x_max":0,"o":"m 92 0 l 772 0 l 772 125 l 270 125 l 270 135 l 762 879 l 762 979 l 108 979 l 108 853 l 585 853 l 585 844 l 92 100 z m 349 1092 l 489 1092 l 705 1300 l 548 1300 z "},"Ž":{"ha":859,"x_min":0,"x_max":0,"o":"m 689 1303 l 553 1303 l 437 1169 l 427 1169 l 311 1303 l 175 1303 l 368 1089 l 496 1089 z m 92 0 l 772 0 l 772 125 l 270 125 l 270 135 l 762 879 l 762 979 l 108 979 l 108 853 l 585 853 l 585 844 l 92 100 z "},"Ẑ":{"ha":859,"x_min":0,"x_max":0,"o":"m 92 0 l 772 0 l 772 125 l 270 125 l 270 135 l 762 879 l 762 979 l 108 979 l 108 853 l 585 853 l 585 844 l 92 100 z m 496 1305 l 368 1305 l 175 1092 l 311 1092 l 427 1225 l 437 1225 l 553 1092 l 689 1092 z "},"Ẕ":{"ha":859,"x_min":0,"x_max":0,"o":"m 92 0 l 772 0 l 772 125 l 270 125 l 270 135 l 762 879 l 762 979 l 108 979 l 108 853 l 585 853 l 585 844 l 92 100 z m 659 -272 l 659 -169 l 199 -169 l 199 -272 z "},"Ẓ":{"ha":859,"x_min":0,"x_max":0,"o":"m 92 0 l 772 0 l 772 125 l 270 125 l 270 135 l 762 879 l 762 979 l 108 979 l 108 853 l 585 853 l 585 844 l 92 100 z m 429 -311 b 522 -217 479 -311 522 -268 b 429 -123 522 -166 479 -123 b 337 -217 380 -123 337 -166 b 429 -311 337 -268 380 -311 z "},"Ż":{"ha":859,"x_min":0,"x_max":0,"o":"m 92 0 l 772 0 l 772 125 l 270 125 l 270 135 l 762 879 l 762 979 l 108 979 l 108 853 l 585 853 l 585 844 l 92 100 z m 432 1104 b 524 1198 482 1104 524 1147 b 432 1291 524 1249 482 1291 b 340 1198 382 1291 340 1249 b 432 1104 340 1147 382 1104 z "},"Æ":{"ha":859,"x_min":0,"x_max":0,"o":"m 250 399 l 368 846 l 429 846 l 429 399 z m 839 854 l 839 979 l 278 979 l 2 0 l 145 0 l 219 280 l 429 280 l 429 0 l 839 0 l 839 125 l 557 125 l 557 433 l 814 433 l 814 553 l 557 553 l 557 854 z "},"Ǣ":{"ha":859,"x_min":0,"x_max":0,"o":"m 787 1245 l 327 1245 l 327 1143 l 787 1143 z m 250 399 l 368 846 l 429 846 l 429 399 z m 839 854 l 839 979 l 278 979 l 2 0 l 145 0 l 219 280 l 429 280 l 429 0 l 839 0 l 839 125 l 557 125 l 557 433 l 814 433 l 814 553 l 557 553 l 557 854 z "},"Ǽ":{"ha":859,"x_min":0,"x_max":0,"o":"m 830 1300 l 673 1300 l 473 1092 l 614 1092 z m 250 399 l 368 846 l 429 846 l 429 399 z m 839 854 l 839 979 l 278 979 l 2 0 l 145 0 l 219 280 l 429 280 l 429 0 l 839 0 l 839 125 l 557 125 l 557 433 l 814 433 l 814 553 l 557 553 l 557 854 z "},"Œ":{"ha":859,"x_min":0,"x_max":0,"o":"m 153 554 b 300 861 153 771 196 861 b 451 541 405 861 451 763 l 451 439 b 300 118 451 216 405 118 b 153 425 196 118 153 208 z m 458 139 l 468 139 l 468 0 l 853 0 l 853 128 l 581 128 l 581 435 l 829 435 l 829 560 l 581 560 l 581 850 l 853 850 l 853 979 l 468 979 l 468 837 l 458 837 b 262 1002 429 949 368 1002 b 18 565 96 1002 18 862 l 18 414 b 262 -22 18 117 96 -22 b 458 139 369 -22 431 30 z "},"Ð":{"ha":859,"x_min":0,"x_max":0,"o":"m 242 125 l 242 438 l 414 438 l 414 558 l 242 558 l 242 853 l 371 853 b 659 491 566 853 659 736 b 371 125 659 241 568 125 z m 100 979 l 100 558 l 12 558 l 12 438 l 100 438 l 100 0 l 387 0 b 804 492 664 0 804 165 b 387 979 804 814 663 979 z "},"Þ":{"ha":859,"x_min":0,"x_max":0,"o":"m 124 979 l 124 0 l 271 0 l 271 221 l 483 221 b 779 514 661 221 779 341 b 488 806 779 687 664 806 l 270 806 l 270 979 z m 271 677 l 446 677 b 629 514 569 677 629 623 b 446 349 629 405 569 349 l 271 349 z "},"Α":{"ha":859,"x_min":0,"x_max":0,"o":"m 296 385 l 424 822 l 429 822 l 555 385 z m 667 0 l 817 0 l 508 979 l 351 979 l 42 0 l 184 0 l 263 270 l 589 270 z "},"Β":{"ha":859,"x_min":0,"x_max":0,"o":"m 453 0 b 789 275 663 0 789 103 b 570 513 789 404 701 501 l 570 523 b 741 736 670 540 741 629 b 448 979 741 888 631 979 l 119 979 l 119 0 z m 258 863 l 414 863 b 599 711 532 863 599 809 b 398 562 599 615 528 562 l 258 562 z m 258 117 l 258 451 l 414 451 b 643 286 565 451 643 395 b 418 117 643 173 567 117 z "},"Γ":{"ha":859,"x_min":0,"x_max":0,"o":"m 169 0 l 310 0 l 310 853 l 758 853 l 758 979 l 169 979 z "},"Δ":{"ha":859,"x_min":0,"x_max":0,"o":"m 55 0 l 804 0 l 804 90 l 508 979 l 351 979 l 55 90 z m 205 125 l 205 135 l 424 824 l 429 824 l 646 135 l 646 125 z "},"Ε":{"ha":859,"x_min":0,"x_max":0,"o":"m 739 125 l 292 125 l 292 439 l 713 439 l 713 557 l 292 557 l 292 853 l 739 853 l 739 979 l 150 979 l 150 0 l 739 0 z "},"Ζ":{"ha":859,"x_min":0,"x_max":0,"o":"m 92 0 l 772 0 l 772 125 l 270 125 l 270 135 l 762 879 l 762 979 l 108 979 l 108 853 l 585 853 l 585 844 l 92 100 z "},"Η":{"ha":859,"x_min":0,"x_max":0,"o":"m 762 0 l 762 979 l 622 979 l 622 562 l 237 562 l 237 979 l 97 979 l 97 0 l 237 0 l 237 436 l 622 436 l 622 0 z "},"Θ":{"ha":859,"x_min":0,"x_max":0,"o":"m 429 109 b 191 412 282 109 191 223 l 191 566 b 429 870 191 755 282 870 b 667 566 576 870 667 755 l 667 412 b 429 109 667 223 576 109 z m 802 412 l 802 567 b 429 999 802 835 661 999 b 56 567 198 999 56 835 l 56 412 b 429 -20 56 144 198 -20 b 802 412 661 -20 802 144 z m 272 427 l 587 427 l 587 550 l 272 550 z "},"Ι":{"ha":859,"x_min":0,"x_max":0,"o":"m 699 0 l 699 123 l 500 123 l 500 856 l 699 856 l 699 979 l 159 979 l 159 856 l 359 856 l 359 123 l 159 123 l 159 0 z "},"Κ":{"ha":859,"x_min":0,"x_max":0,"o":"m 272 0 l 272 323 l 369 441 l 680 0 l 850 0 l 465 546 l 819 979 l 661 979 l 281 503 l 272 503 l 272 979 l 135 979 l 135 0 z "},"Λ":{"ha":859,"x_min":0,"x_max":0,"o":"m 52 0 l 194 0 l 424 817 l 429 817 l 657 0 l 807 0 l 508 979 l 351 979 z "},"Μ":{"ha":859,"x_min":0,"x_max":0,"o":"m 188 361 l 176 756 l 186 756 l 377 230 l 481 230 l 672 756 l 682 756 l 671 361 l 671 0 l 793 0 l 793 979 l 642 979 l 434 385 l 425 385 l 216 979 l 65 979 l 65 0 l 188 0 z "},"Ν":{"ha":859,"x_min":0,"x_max":0,"o":"m 224 0 l 224 734 l 234 734 l 630 0 l 760 0 l 760 979 l 635 979 l 635 247 l 625 247 l 230 979 l 98 979 l 98 0 z "},"Ξ":{"ha":859,"x_min":0,"x_max":0,"o":"m 105 0 l 753 0 l 753 129 l 105 129 z m 160 432 l 699 432 l 699 559 l 160 559 z m 105 850 l 753 850 l 753 979 l 105 979 z "},"Ο":{"ha":859,"x_min":0,"x_max":0,"o":"m 793 412 l 793 567 b 429 999 793 838 655 999 b 66 567 203 999 66 838 l 66 412 b 429 -20 66 140 203 -20 b 793 412 655 -20 793 140 z m 429 109 b 208 412 290 109 208 216 l 208 566 b 429 870 208 763 290 870 b 650 566 569 870 650 763 l 650 412 b 429 109 650 216 569 109 z "},"Π":{"ha":859,"x_min":0,"x_max":0,"o":"m 102 0 l 243 0 l 243 853 l 615 853 l 615 0 l 757 0 l 757 979 l 102 979 z "},"Ρ":{"ha":859,"x_min":0,"x_max":0,"o":"m 124 979 l 124 0 l 266 0 l 266 340 l 455 340 b 781 659 652 340 781 466 b 459 979 781 853 654 979 z m 266 858 l 425 858 b 637 659 562 858 637 789 b 425 460 637 530 562 460 l 266 460 z "},"Σ":{"ha":859,"x_min":0,"x_max":0,"o":"m 89 0 l 742 0 l 742 125 l 266 125 l 266 135 l 492 488 l 492 508 l 280 844 l 280 853 l 729 853 l 729 979 l 102 979 l 102 867 l 342 494 l 89 96 z "},"Τ":{"ha":859,"x_min":0,"x_max":0,"o":"m 500 0 l 500 853 l 791 853 l 791 979 l 68 979 l 68 853 l 359 853 l 359 0 z "},"Υ":{"ha":859,"x_min":0,"x_max":0,"o":"m 500 0 l 500 393 l 823 979 l 667 979 l 434 539 l 425 539 l 192 979 l 36 979 l 359 393 l 359 0 z "},"Φ":{"ha":859,"x_min":0,"x_max":0,"o":"m 365 -57 l 494 -57 l 494 47 b 823 486 707 57 823 211 b 494 926 823 761 707 916 l 494 1028 l 365 1028 l 365 926 b 36 486 151 916 36 761 b 365 47 36 211 151 57 z m 369 158 b 160 486 230 167 160 275 b 369 815 160 697 230 806 z m 490 158 l 490 815 b 699 486 629 806 699 696 b 490 158 699 275 629 167 z "},"Χ":{"ha":859,"x_min":0,"x_max":0,"o":"m 40 0 l 184 0 l 420 375 l 427 375 l 661 0 l 814 0 l 509 489 l 819 979 l 671 979 l 437 597 l 431 597 l 200 979 l 42 979 l 345 492 z "},"Ψ":{"ha":859,"x_min":0,"x_max":0,"o":"m 361 0 l 497 0 l 497 219 b 804 594 715 229 804 331 l 804 979 l 678 979 l 678 604 b 492 336 678 404 632 342 l 492 979 l 366 979 l 366 336 b 180 604 227 342 180 404 l 180 979 l 55 979 l 55 594 b 361 219 55 331 142 229 z "},"Ω":{"ha":859,"x_min":0,"x_max":0,"o":"m 429 999 b 34 542 178 999 34 833 b 249 132 34 354 109 212 l 249 122 l 28 122 l 28 0 l 385 0 l 385 157 b 172 533 238 233 172 347 b 429 870 172 757 258 870 b 686 533 600 870 686 757 b 474 157 686 347 621 233 l 474 0 l 830 0 l 830 122 l 610 122 l 610 132 b 825 542 749 212 825 354 b 429 999 825 833 681 999 z "},"Ά":{"ha":859,"x_min":0,"x_max":0,"o":"m 255 979 l 118 979 l 62 741 l 165 741 z m 349 385 l 452 812 l 458 812 l 560 385 z m 652 0 l 801 0 l 536 979 l 379 979 l 116 0 l 256 0 l 321 270 l 588 270 z "},"Έ":{"ha":859,"x_min":0,"x_max":0,"o":"m 766 125 l 446 125 l 446 439 l 741 439 l 741 557 l 446 557 l 446 853 l 766 853 l 766 979 l 309 979 l 309 0 l 766 0 z m 33 741 l 135 741 l 225 979 l 88 979 z "},"Ή":{"ha":859,"x_min":0,"x_max":0,"o":"m 800 0 l 800 979 l 674 979 l 674 560 l 415 560 l 415 979 l 289 979 l 289 0 l 415 0 l 415 438 l 674 438 l 674 0 z m 21 741 l 123 741 l 214 979 l 77 979 z "},"Ί":{"ha":859,"x_min":0,"x_max":0,"o":"m 803 0 l 803 123 l 624 123 l 624 856 l 803 856 l 803 979 l 317 979 l 317 856 l 496 856 l 496 123 l 317 123 l 317 0 z m 63 741 l 165 741 l 256 979 l 119 979 z "},"Ϊ":{"ha":859,"x_min":0,"x_max":0,"o":"m 699 0 l 699 123 l 500 123 l 500 856 l 699 856 l 699 979 l 159 979 l 159 856 l 359 856 l 359 123 l 159 123 l 159 0 z m 287 1114 b 372 1202 332 1114 372 1154 b 287 1289 372 1249 332 1289 b 201 1202 241 1289 201 1249 b 287 1114 201 1154 241 1114 z m 572 1114 b 657 1202 618 1114 657 1154 b 572 1289 657 1249 618 1289 b 486 1202 526 1289 486 1249 b 572 1114 486 1154 526 1114 z "},"Ό":{"ha":859,"x_min":0,"x_max":0,"o":"m 814 412 l 814 567 b 519 999 814 849 711 999 b 224 567 327 999 224 849 l 224 412 b 519 -20 224 130 327 -20 b 814 412 711 -20 814 130 z m 519 109 b 352 403 410 109 352 210 l 352 576 b 519 870 352 769 410 870 b 686 576 628 870 686 769 l 686 403 b 519 109 686 210 628 109 z m 37 741 l 138 741 l 229 979 l 92 979 z "},"Ύ":{"ha":859,"x_min":0,"x_max":0,"o":"m 614 0 l 614 387 l 846 979 l 702 979 l 552 539 l 543 539 l 393 979 l 250 979 l 481 387 l 481 0 z m 26 741 l 128 741 l 218 979 l 82 979 z "},"Ϋ":{"ha":859,"x_min":0,"x_max":0,"o":"m 500 0 l 500 393 l 823 979 l 667 979 l 434 539 l 425 539 l 192 979 l 36 979 l 359 393 l 359 0 z m 287 1114 b 372 1202 332 1114 372 1154 b 287 1289 372 1249 332 1289 b 201 1202 241 1289 201 1249 b 287 1114 201 1154 241 1114 z m 572 1114 b 657 1202 618 1114 657 1154 b 572 1289 657 1249 618 1289 b 486 1202 526 1289 486 1249 b 572 1114 486 1154 526 1114 z "},"Ώ":{"ha":859,"x_min":0,"x_max":0,"o":"m 503 999 b 174 545 292 999 174 837 b 353 124 174 346 233 196 l 353 115 l 172 115 l 172 0 l 463 0 l 463 172 b 300 543 349 244 300 345 b 503 870 300 764 368 870 b 705 543 638 870 705 764 b 543 172 705 345 656 244 l 543 0 l 833 0 l 833 115 l 653 115 l 653 124 b 832 545 772 196 832 347 b 503 999 832 837 714 999 z m 5 741 l 107 741 l 197 979 l 60 979 z "},"А":{"ha":859,"x_min":0,"x_max":0,"o":"m 296 385 l 424 822 l 429 822 l 555 385 z m 667 0 l 817 0 l 508 979 l 351 979 l 42 0 l 184 0 l 263 270 l 589 270 z "},"Ӑ":{"ha":859,"x_min":0,"x_max":0,"o":"m 545 1309 b 422 1178 544 1231 494 1178 b 300 1309 351 1178 301 1231 l 191 1309 b 422 1092 191 1179 284 1092 b 654 1309 561 1092 654 1179 z m 296 385 l 424 822 l 429 822 l 555 385 z m 667 0 l 817 0 l 508 979 l 351 979 l 42 0 l 184 0 l 263 270 l 589 270 z "},"Ӓ":{"ha":859,"x_min":0,"x_max":0,"o":"m 572 1114 b 657 1202 618 1114 657 1154 b 572 1289 657 1249 618 1289 b 486 1202 526 1289 486 1249 b 572 1114 486 1154 526 1114 z m 287 1114 b 372 1202 332 1114 372 1154 b 287 1289 372 1249 332 1289 b 201 1202 241 1289 201 1249 b 287 1114 201 1154 241 1114 z m 296 385 l 424 822 l 429 822 l 555 385 z m 667 0 l 817 0 l 508 979 l 351 979 l 42 0 l 184 0 l 263 270 l 589 270 z "},"Б":{"ha":859,"x_min":0,"x_max":0,"o":"m 256 475 l 439 475 b 647 298 570 475 647 410 b 439 122 647 187 570 122 l 256 122 z m 256 593 l 256 853 l 704 853 l 704 979 l 115 979 l 115 0 l 473 0 b 791 298 663 0 791 120 b 470 593 791 474 661 593 z "},"В":{"ha":859,"x_min":0,"x_max":0,"o":"m 453 0 b 789 275 663 0 789 103 b 570 513 789 404 701 501 l 570 523 b 741 736 670 540 741 629 b 448 979 741 888 631 979 l 119 979 l 119 0 z m 258 863 l 414 863 b 599 711 532 863 599 809 b 398 562 599 615 528 562 l 258 562 z m 258 117 l 258 451 l 414 451 b 643 286 565 451 643 395 b 418 117 643 173 567 117 z "},"Г":{"ha":859,"x_min":0,"x_max":0,"o":"m 833 979 l 52 979 l 52 856 l 232 856 l 232 123 l 52 123 l 52 0 l 576 0 l 576 123 l 373 123 l 373 856 l 705 856 l 705 683 l 833 683 z "},"Ѓ":{"ha":859,"x_min":0,"x_max":0,"o":"m 725 1300 l 567 1300 l 368 1092 l 509 1092 z m 833 979 l 52 979 l 52 856 l 232 856 l 232 123 l 52 123 l 52 0 l 576 0 l 576 123 l 373 123 l 373 856 l 705 856 l 705 683 l 833 683 z "},"Ӷ":{"ha":859,"x_min":0,"x_max":0,"o":"m 833 979 l 52 979 l 52 856 l 232 856 l 232 123 l 52 123 l 52 0 l 444 0 l 444 -194 l 576 -194 l 576 123 l 373 123 l 373 856 l 705 856 l 705 683 l 833 683 z "},"Ґ":{"ha":859,"x_min":0,"x_max":0,"o":"m 709 1166 l 709 979 l 50 979 l 50 853 l 213 853 l 213 125 l 50 125 l 50 0 l 532 0 l 532 125 l 355 125 l 355 853 l 709 853 l 709 683 l 837 683 l 837 1166 z "},"Ғ":{"ha":859,"x_min":0,"x_max":0,"o":"m 833 979 l 52 979 l 52 856 l 232 856 l 232 555 l 43 555 l 43 440 l 232 440 l 232 123 l 52 123 l 52 0 l 576 0 l 576 123 l 373 123 l 373 440 l 578 440 l 578 555 l 373 555 l 373 856 l 705 856 l 705 683 l 833 683 z "},"Ӻ":{"ha":859,"x_min":0,"x_max":0,"o":"m 833 979 l 52 979 l 52 853 l 215 853 l 215 555 l 52 555 l 52 440 l 215 440 l 215 0 b 115 -109 215 -67 186 -109 b 57 -106 90 -109 68 -108 l 57 -224 b 138 -229 73 -227 102 -229 b 357 0 256 -229 357 -165 l 357 440 l 588 440 l 588 555 l 357 555 l 357 853 l 705 853 l 705 683 l 833 683 z "},"Д":{"ha":859,"x_min":0,"x_max":0,"o":"m 715 0 l 715 -193 l 844 -193 l 844 125 l 741 125 l 741 979 l 189 979 l 157 385 b 68 125 149 235 124 163 l 13 125 l 13 -193 l 142 -193 l 142 0 z m 315 854 l 600 854 l 600 125 l 228 125 l 228 137 b 288 375 264 183 281 252 z "},"Е":{"ha":859,"x_min":0,"x_max":0,"o":"m 739 125 l 292 125 l 292 439 l 713 439 l 713 557 l 292 557 l 292 853 l 739 853 l 739 979 l 150 979 l 150 0 l 739 0 z "},"Ё":{"ha":859,"x_min":0,"x_max":0,"o":"m 739 125 l 292 125 l 292 439 l 713 439 l 713 557 l 292 557 l 292 853 l 739 853 l 739 979 l 150 979 l 150 0 l 739 0 z m 302 1114 b 387 1202 347 1114 387 1154 b 302 1289 387 1249 347 1289 b 216 1202 256 1289 216 1249 b 302 1114 216 1154 256 1114 z m 587 1114 b 672 1202 633 1114 672 1154 b 587 1289 672 1249 633 1289 b 502 1202 541 1289 502 1249 b 587 1114 502 1154 541 1114 z "},"Ӗ":{"ha":859,"x_min":0,"x_max":0,"o":"m 739 125 l 292 125 l 292 439 l 713 439 l 713 557 l 292 557 l 292 853 l 739 853 l 739 979 l 150 979 l 150 0 l 739 0 z m 209 1309 b 441 1092 209 1179 302 1092 b 673 1309 579 1092 673 1179 l 563 1309 b 441 1178 562 1231 512 1178 b 319 1309 370 1178 319 1231 z "},"Ѐ":{"ha":859,"x_min":0,"x_max":0,"o":"m 328 1300 l 170 1300 l 387 1092 l 527 1092 z m 739 125 l 292 125 l 292 439 l 713 439 l 713 557 l 292 557 l 292 853 l 739 853 l 739 979 l 150 979 l 150 0 l 739 0 z "},"Ж":{"ha":859,"x_min":0,"x_max":0,"o":"m 126 0 l 329 440 l 369 440 l 369 0 l 489 0 l 489 440 l 529 440 l 731 0 l 865 0 l 629 500 l 842 979 l 712 979 l 530 553 l 489 553 l 489 979 l 369 979 l 369 553 l 328 553 l 145 979 l 14 979 l 227 498 l -7 0 z "},"Ӂ":{"ha":859,"x_min":0,"x_max":0,"o":"m 126 0 l 329 440 l 369 440 l 369 0 l 489 0 l 489 440 l 529 440 l 731 0 l 865 0 l 629 500 l 842 979 l 712 979 l 530 553 l 489 553 l 489 979 l 369 979 l 369 553 l 328 553 l 145 979 l 14 979 l 227 498 l -7 0 z m 197 1309 b 429 1092 197 1179 291 1092 b 661 1309 568 1092 661 1179 l 551 1309 b 429 1178 551 1231 500 1178 b 307 1309 358 1178 308 1231 z "},"Ӝ":{"ha":859,"x_min":0,"x_max":0,"o":"m 126 0 l 329 440 l 369 440 l 369 0 l 489 0 l 489 440 l 529 440 l 731 0 l 865 0 l 629 500 l 842 979 l 712 979 l 530 553 l 489 553 l 489 979 l 369 979 l 369 553 l 328 553 l 145 979 l 14 979 l 227 498 l -7 0 z m 287 1114 b 372 1202 332 1114 372 1154 b 287 1289 372 1249 332 1289 b 201 1202 241 1289 201 1249 b 287 1114 201 1154 241 1114 z m 572 1114 b 657 1202 618 1114 657 1154 b 572 1289 657 1249 618 1289 b 486 1202 526 1289 486 1249 b 572 1114 486 1154 526 1114 z "},"Җ":{"ha":859,"x_min":0,"x_max":0,"o":"m 759 122 l 592 500 l 791 979 l 669 979 l 498 553 l 459 553 l 459 979 l 347 979 l 347 553 l 308 553 l 137 979 l 13 979 l 213 498 l -7 0 l 119 0 l 309 440 l 347 440 l 347 0 l 459 0 l 459 440 l 497 440 l 687 0 l 748 0 l 748 -194 l 859 -194 l 859 122 z "},"З":{"ha":859,"x_min":0,"x_max":0,"o":"m 292 441 l 420 441 b 646 276 562 441 646 380 b 426 103 646 173 557 103 b 201 266 299 103 208 169 l 66 266 b 425 -20 73 96 219 -20 b 791 269 636 -20 791 102 b 565 505 791 401 702 492 l 565 515 b 749 739 675 538 749 628 b 425 999 749 892 615 999 b 85 718 226 999 94 889 l 218 718 b 420 880 225 816 304 880 b 612 722 536 880 612 818 b 416 560 612 625 534 560 l 292 560 z "},"Ӟ":{"ha":859,"x_min":0,"x_max":0,"o":"m 292 441 l 420 441 b 646 276 562 441 646 380 b 426 103 646 173 557 103 b 201 266 299 103 208 169 l 66 266 b 425 -20 73 96 219 -20 b 791 269 636 -20 791 102 b 565 505 791 401 702 492 l 565 515 b 749 739 675 538 749 628 b 425 999 749 892 615 999 b 85 718 226 999 94 889 l 218 718 b 420 880 225 816 304 880 b 612 722 536 880 612 818 b 416 560 612 625 534 560 l 292 560 z m 275 1114 b 360 1202 321 1114 360 1154 b 275 1289 360 1249 321 1289 b 189 1202 229 1289 189 1249 b 275 1114 189 1154 229 1114 z m 560 1114 b 646 1202 606 1114 646 1154 b 560 1289 646 1249 606 1289 b 475 1202 515 1289 475 1249 b 560 1114 475 1154 515 1114 z "},"Ҙ":{"ha":859,"x_min":0,"x_max":0,"o":"m 565 515 b 749 739 675 538 749 628 b 425 999 749 892 615 999 b 85 718 226 999 94 889 l 218 718 b 420 880 225 816 304 880 b 612 722 536 880 612 818 b 416 560 612 625 534 560 l 292 560 l 292 441 l 420 441 b 646 276 562 441 646 380 b 426 103 646 173 557 103 b 201 266 299 103 208 169 l 66 266 b 366 -17 73 113 191 3 l 366 -194 l 498 -194 l 498 -15 b 791 269 671 9 791 122 b 565 505 791 401 702 492 z "},"И":{"ha":859,"x_min":0,"x_max":0,"o":"m 98 979 l 98 0 l 224 0 l 627 730 l 637 730 l 637 0 l 761 0 l 761 979 l 632 979 l 231 248 l 222 248 l 222 979 z "},"Й":{"ha":859,"x_min":0,"x_max":0,"o":"m 197 1309 b 429 1092 197 1179 291 1092 b 661 1309 568 1092 661 1179 l 551 1309 b 429 1178 551 1231 500 1178 b 307 1309 358 1178 308 1231 z m 98 979 l 98 0 l 224 0 l 627 730 l 637 730 l 637 0 l 761 0 l 761 979 l 632 979 l 231 248 l 222 248 l 222 979 z "},"Ѝ":{"ha":859,"x_min":0,"x_max":0,"o":"m 319 1300 l 162 1300 l 378 1092 l 519 1092 z m 98 979 l 98 0 l 224 0 l 627 730 l 637 730 l 637 0 l 761 0 l 761 979 l 632 979 l 231 248 l 222 248 l 222 979 z "},"Ӣ":{"ha":859,"x_min":0,"x_max":0,"o":"m 654 1141 l 654 1243 l 195 1243 l 195 1141 z m 98 979 l 98 0 l 224 0 l 627 730 l 637 730 l 637 0 l 761 0 l 761 979 l 632 979 l 231 248 l 222 248 l 222 979 z "},"Ӥ":{"ha":859,"x_min":0,"x_max":0,"o":"m 567 1114 b 652 1202 612 1114 652 1154 b 567 1289 652 1249 612 1289 b 481 1202 521 1289 481 1249 b 567 1114 481 1154 521 1114 z m 281 1114 b 367 1202 328 1114 367 1154 b 281 1289 367 1249 328 1289 b 196 1202 236 1289 196 1249 b 281 1114 196 1154 236 1114 z m 98 979 l 98 0 l 224 0 l 627 730 l 637 730 l 637 0 l 761 0 l 761 979 l 632 979 l 231 248 l 222 248 l 222 979 z "},"Ҋ":{"ha":859,"x_min":0,"x_max":0,"o":"m 532 1309 b 412 1178 531 1231 482 1178 b 292 1309 342 1178 294 1231 l 186 1309 b 412 1092 186 1179 277 1092 b 639 1309 547 1092 639 1179 z m 742 130 l 742 979 l 616 979 l 219 248 l 209 248 l 209 979 l 88 979 l 88 0 l 212 0 l 611 730 l 621 730 l 621 0 l 710 0 l 644 -194 l 762 -194 l 854 94 l 854 130 z "},"К":{"ha":859,"x_min":0,"x_max":0,"o":"m 239 979 l 100 979 l 100 0 l 239 0 l 239 435 l 269 435 l 662 0 l 836 0 l 387 503 l 804 979 l 642 979 l 269 549 l 239 549 z "},"Ќ":{"ha":859,"x_min":0,"x_max":0,"o":"m 351 1092 l 492 1092 l 709 1300 l 551 1300 z m 239 979 l 100 979 l 100 0 l 239 0 l 239 435 l 269 435 l 662 0 l 836 0 l 387 503 l 804 979 l 642 979 l 269 549 l 239 549 z "},"Қ":{"ha":859,"x_min":0,"x_max":0,"o":"m 715 130 l 385 503 l 799 979 l 639 979 l 267 549 l 238 549 l 238 979 l 100 979 l 100 0 l 238 0 l 238 435 l 268 435 l 659 0 l 722 0 l 722 -194 l 849 -194 l 849 130 z "},"Ҝ":{"ha":859,"x_min":0,"x_max":0,"o":"m 96 0 l 229 0 l 229 979 l 96 979 z m 569 509 l 812 979 l 664 979 l 449 558 l 440 558 l 440 785 l 342 785 l 342 208 l 440 208 l 440 436 l 449 436 l 681 0 l 837 0 z "},"Ҟ":{"ha":859,"x_min":0,"x_max":0,"o":"m 401 503 l 808 979 l 646 979 l 283 549 l 253 549 l 253 789 l 416 789 l 416 905 l 253 905 l 253 979 l 114 979 l 114 905 l 8 905 l 8 789 l 114 789 l 114 0 l 253 0 l 253 435 l 283 435 l 667 0 l 841 0 z "},"Ҡ":{"ha":859,"x_min":0,"x_max":0,"o":"m 393 0 l 393 435 l 420 435 l 705 0 l 856 0 l 531 503 l 825 979 l 684 979 l 420 549 l 393 549 l 393 979 l 11 979 l 11 853 l 264 853 l 264 0 z "},"Ӄ":{"ha":859,"x_min":0,"x_max":0,"o":"m 806 979 l 638 979 l 273 557 l 239 557 l 239 979 l 100 979 l 100 0 l 239 0 l 239 435 l 284 435 b 622 136 490 435 622 321 b 414 -114 622 -9 543 -114 b 363 -111 394 -114 377 -113 l 363 -235 b 425 -242 377 -239 401 -242 b 763 140 629 -242 763 -77 b 422 538 763 356 629 497 z "},"Л":{"ha":859,"x_min":0,"x_max":0,"o":"m 768 979 l 195 979 l 165 374 b 41 126 156 197 120 126 b 3 131 28 126 12 128 l 3 1 b 58 -7 18 -4 39 -7 b 296 364 209 -7 283 109 l 322 853 l 629 853 l 629 0 l 768 0 z "},"Ӆ":{"ha":859,"x_min":0,"x_max":0,"o":"m 747 130 l 747 979 l 190 979 l 161 374 b 39 126 152 197 117 126 b 3 131 27 126 12 128 l 3 1 b 56 -7 18 -4 38 -7 b 285 364 201 -7 272 109 l 311 853 l 615 853 l 615 130 l 614 130 l 614 0 l 704 0 l 635 -194 l 759 -194 l 852 94 l 852 130 z "},"Ԯ":{"ha":859,"x_min":0,"x_max":0,"o":"m 753 130 l 753 979 l 192 979 l 162 374 b 40 126 153 197 118 126 b 3 131 27 126 12 128 l 3 1 b 57 -7 18 -4 39 -7 b 289 364 203 -7 276 109 l 315 853 l 619 853 l 619 0 l 733 0 l 733 -194 l 859 -194 l 859 130 z "},"Ԓ":{"ha":859,"x_min":0,"x_max":0,"o":"m 195 979 l 165 374 b 41 126 156 197 120 126 b 3 131 28 126 12 128 l 3 1 b 58 -7 18 -4 39 -7 b 296 364 209 -7 283 109 l 322 853 l 629 853 l 629 0 b 530 -109 629 -67 600 -109 b 471 -106 505 -109 483 -108 l 471 -224 b 552 -229 488 -227 516 -229 b 768 0 677 -229 768 -165 l 768 979 z "},"М":{"ha":859,"x_min":0,"x_max":0,"o":"m 188 361 l 176 756 l 186 756 l 377 230 l 481 230 l 672 756 l 682 756 l 671 361 l 671 0 l 793 0 l 793 979 l 642 979 l 434 385 l 425 385 l 216 979 l 65 979 l 65 0 l 188 0 z "},"Ӎ":{"ha":859,"x_min":0,"x_max":0,"o":"m 756 130 l 756 979 l 608 979 l 416 385 l 406 385 l 214 979 l 65 979 l 65 0 l 185 0 l 185 361 l 174 756 l 184 756 l 359 230 l 462 230 l 637 756 l 647 756 l 635 361 l 635 0 l 719 0 l 651 -194 l 766 -194 l 859 94 l 859 130 z "},"Н":{"ha":859,"x_min":0,"x_max":0,"o":"m 762 0 l 762 979 l 622 979 l 622 562 l 237 562 l 237 979 l 97 979 l 97 0 l 237 0 l 237 436 l 622 436 l 622 0 z "},"Ӈ":{"ha":859,"x_min":0,"x_max":0,"o":"m 622 979 l 622 562 l 237 562 l 237 979 l 97 979 l 97 0 l 237 0 l 237 436 l 622 436 l 622 0 b 523 -109 622 -67 593 -109 b 465 -106 497 -109 476 -108 l 465 -224 b 545 -229 481 -227 509 -229 b 762 0 670 -229 762 -165 l 762 979 z "},"Ң":{"ha":859,"x_min":0,"x_max":0,"o":"m 749 130 l 749 979 l 610 979 l 610 562 l 229 562 l 229 979 l 90 979 l 90 0 l 229 0 l 229 436 l 610 436 l 610 0 l 724 0 l 724 -194 l 857 -194 l 857 130 z "},"Ӊ":{"ha":859,"x_min":0,"x_max":0,"o":"m 763 130 l 763 979 l 623 979 l 623 562 l 237 562 l 237 979 l 97 979 l 97 0 l 237 0 l 237 436 l 623 436 l 623 0 l 711 0 l 646 -194 l 764 -194 l 855 94 l 855 130 z "},"Ҥ":{"ha":859,"x_min":0,"x_max":0,"o":"m 854 979 l 440 979 l 440 562 l 177 562 l 177 979 l 45 979 l 45 0 l 177 0 l 177 436 l 440 436 l 440 0 l 572 0 l 572 854 l 854 854 z "},"О":{"ha":859,"x_min":0,"x_max":0,"o":"m 793 412 l 793 567 b 429 999 793 838 655 999 b 66 567 203 999 66 838 l 66 412 b 429 -20 66 140 203 -20 b 793 412 655 -20 793 140 z m 429 109 b 208 412 290 109 208 216 l 208 566 b 429 870 208 763 290 870 b 650 566 569 870 650 763 l 650 412 b 429 109 650 216 569 109 z "},"Ӧ":{"ha":859,"x_min":0,"x_max":0,"o":"m 793 412 l 793 567 b 429 999 793 838 655 999 b 66 567 203 999 66 838 l 66 412 b 429 -20 66 140 203 -20 b 793 412 655 -20 793 140 z m 429 109 b 208 412 290 109 208 216 l 208 566 b 429 870 208 763 290 870 b 650 566 569 870 650 763 l 650 412 b 429 109 650 216 569 109 z m 287 1114 b 372 1202 332 1114 372 1154 b 287 1289 372 1249 332 1289 b 201 1202 241 1289 201 1249 b 287 1114 201 1154 241 1114 z m 572 1114 b 657 1202 618 1114 657 1154 b 572 1289 657 1249 618 1289 b 486 1202 526 1289 486 1249 b 572 1114 486 1154 526 1114 z "},"Ө":{"ha":859,"x_min":0,"x_max":0,"o":"m 208 435 l 650 435 l 650 412 b 429 109 650 216 569 109 b 208 412 290 109 208 216 z m 650 555 l 208 555 l 208 566 b 429 870 208 763 290 870 b 650 566 569 870 650 763 z m 66 412 b 429 -20 66 140 203 -20 b 793 412 655 -20 793 140 l 793 567 b 429 999 793 838 655 999 b 66 567 203 999 66 838 z "},"Ӫ":{"ha":859,"x_min":0,"x_max":0,"o":"m 564 1114 b 649 1202 610 1114 649 1154 b 564 1289 649 1249 610 1289 b 478 1202 517 1289 478 1249 b 564 1114 478 1154 517 1114 z m 278 1114 b 363 1202 324 1114 363 1154 b 278 1289 363 1249 324 1289 b 193 1202 233 1289 193 1249 b 278 1114 193 1154 233 1114 z m 208 435 l 650 435 l 650 412 b 429 109 650 216 569 109 b 208 412 290 109 208 216 z m 650 555 l 208 555 l 208 566 b 429 870 208 763 290 870 b 650 566 569 870 650 763 z m 66 412 b 429 -20 66 140 203 -20 b 793 412 655 -20 793 140 l 793 567 b 429 999 793 838 655 999 b 66 567 203 999 66 838 z "},"Ѳ":{"ha":859,"x_min":0,"x_max":0,"o":"m 650 413 b 429 109 650 216 569 109 b 208 408 291 109 210 214 b 305 458 224 431 254 458 b 536 396 399 458 419 396 b 650 443 584 396 622 415 z m 650 566 b 553 516 633 543 605 516 b 323 578 460 516 439 578 b 208 532 275 578 237 560 l 208 567 b 429 870 208 764 290 870 b 650 567 569 870 650 764 z m 66 412 b 429 -20 66 140 203 -20 b 793 412 655 -20 793 140 l 793 568 b 429 999 793 839 655 999 b 66 568 203 999 66 839 z "},"П":{"ha":859,"x_min":0,"x_max":0,"o":"m 779 979 l 80 979 l 80 0 l 222 0 l 222 853 l 637 853 l 637 0 l 779 0 z "},"Ԥ":{"ha":859,"x_min":0,"x_max":0,"o":"m 755 130 l 755 979 l 80 979 l 80 0 l 221 0 l 221 853 l 614 853 l 614 0 l 734 0 l 734 -194 l 859 -194 l 859 130 z "},"Р":{"ha":859,"x_min":0,"x_max":0,"o":"m 124 979 l 124 0 l 266 0 l 266 340 l 455 340 b 781 659 652 340 781 466 b 459 979 781 853 654 979 z m 266 858 l 425 858 b 637 659 562 858 637 789 b 425 460 637 530 562 460 l 266 460 z "},"Ҏ":{"ha":859,"x_min":0,"x_max":0,"o":"m 266 460 l 266 858 l 425 858 b 637 659 562 858 637 789 b 565 497 637 585 612 530 l 467 649 l 390 597 l 476 464 b 425 460 460 462 443 460 z m 124 979 l 124 0 l 266 0 l 266 340 l 455 340 b 538 349 484 340 512 343 l 649 176 l 743 243 l 647 392 b 781 659 731 446 781 540 b 459 979 781 853 654 979 z "},"С":{"ha":859,"x_min":0,"x_max":0,"o":"m 451 109 b 227 399 304 109 227 209 l 227 580 b 450 869 227 770 304 869 b 653 656 568 869 649 784 l 795 656 b 452 999 793 871 663 999 b 82 580 218 999 82 845 l 82 399 b 452 -20 82 134 218 -20 b 795 309 658 -20 795 111 l 653 309 b 451 109 650 185 573 109 z "},"Ҫ":{"ha":859,"x_min":0,"x_max":0,"o":"m 227 580 b 450 869 227 770 304 869 b 653 656 568 869 649 784 l 795 656 b 452 999 793 871 663 999 b 82 580 218 999 82 845 l 82 399 b 396 -17 82 155 197 5 l 363 -96 l 363 -160 l 403 -160 b 496 -203 469 -160 496 -173 b 420 -249 496 -233 470 -249 b 341 -239 395 -249 356 -244 l 341 -319 b 431 -331 371 -327 397 -331 b 598 -199 534 -331 598 -280 b 466 -85 598 -127 551 -87 l 493 -18 b 795 309 676 -2 795 124 l 653 309 b 451 109 650 185 573 109 b 227 399 304 109 227 209 z "},"Є":{"ha":859,"x_min":0,"x_max":0,"o":"m 227 439 l 566 439 l 566 558 l 227 558 l 227 580 b 450 869 227 770 304 869 b 653 656 568 869 649 784 l 795 656 b 452 999 793 871 663 999 b 82 580 218 999 82 845 l 82 399 b 452 -20 82 134 218 -20 b 795 309 658 -20 795 111 l 653 309 b 451 109 650 185 573 109 b 227 399 304 109 227 209 z "},"Т":{"ha":859,"x_min":0,"x_max":0,"o":"m 500 0 l 500 853 l 791 853 l 791 979 l 68 979 l 68 853 l 359 853 l 359 0 z "},"Ҭ":{"ha":859,"x_min":0,"x_max":0,"o":"m 791 853 l 791 979 l 68 979 l 68 853 l 359 853 l 359 0 l 483 0 l 483 -194 l 616 -194 l 616 132 l 500 132 l 500 853 z "},"У":{"ha":859,"x_min":0,"x_max":0,"o":"m 819 979 l 671 979 l 441 379 l 429 379 l 191 979 l 39 979 l 360 229 b 210 119 318 150 272 119 b 157 125 184 119 168 122 l 157 1 b 222 -8 163 -3 193 -8 b 525 274 366 -8 441 74 z "},"Ў":{"ha":859,"x_min":0,"x_max":0,"o":"m 819 979 l 671 979 l 441 379 l 429 379 l 191 979 l 39 979 l 360 229 b 210 119 318 150 272 119 b 157 125 184 119 168 122 l 157 1 b 222 -8 163 -3 193 -8 b 525 274 366 -8 441 74 z m 197 1309 b 429 1092 197 1179 290 1092 b 661 1309 567 1092 661 1179 l 551 1309 b 429 1178 550 1231 500 1178 b 307 1309 357 1178 308 1231 z "},"Ӯ":{"ha":859,"x_min":0,"x_max":0,"o":"m 663 1143 l 663 1245 l 203 1245 l 203 1143 z m 819 979 l 671 979 l 441 379 l 429 379 l 191 979 l 39 979 l 360 229 b 210 119 318 150 272 119 b 157 125 184 119 168 122 l 157 1 b 222 -8 163 -3 193 -8 b 525 274 366 -8 441 74 z "},"Ӱ":{"ha":859,"x_min":0,"x_max":0,"o":"m 576 1114 b 661 1201 622 1114 661 1154 b 576 1289 661 1249 622 1289 b 490 1201 530 1289 490 1249 b 576 1114 490 1154 530 1114 z m 291 1114 b 376 1201 336 1114 376 1154 b 291 1289 376 1249 336 1289 b 205 1201 245 1289 205 1249 b 291 1114 205 1154 245 1114 z m 819 979 l 671 979 l 441 379 l 429 379 l 191 979 l 39 979 l 360 229 b 210 119 318 150 272 119 b 157 125 184 119 168 122 l 157 1 b 222 -8 163 -3 193 -8 b 525 274 366 -8 441 74 z "},"Ӳ":{"ha":859,"x_min":0,"x_max":0,"o":"m 235 1093 l 364 1093 l 569 1301 l 426 1301 z m 499 1093 l 629 1093 l 833 1301 l 690 1301 z m 819 979 l 671 979 l 441 379 l 429 379 l 191 979 l 39 979 l 360 229 b 210 119 318 150 272 119 b 157 125 184 119 168 122 l 157 1 b 222 -8 163 -3 193 -8 b 525 274 366 -8 441 74 z "},"Ф":{"ha":859,"x_min":0,"x_max":0,"o":"m 362 -16 l 496 -16 l 496 94 b 852 491 721 100 852 245 b 496 888 852 736 721 882 l 496 994 l 362 994 l 362 888 b 6 491 138 882 6 736 b 362 94 6 245 138 100 z m 139 491 b 364 776 139 665 224 770 l 364 207 b 139 491 224 212 139 317 z m 494 776 b 720 491 634 770 720 665 b 494 207 720 317 635 212 z "},"Х":{"ha":859,"x_min":0,"x_max":0,"o":"m 40 0 l 184 0 l 420 375 l 427 375 l 661 0 l 814 0 l 509 489 l 819 979 l 671 979 l 437 597 l 431 597 l 200 979 l 42 979 l 345 492 z "},"Ҳ":{"ha":859,"x_min":0,"x_max":0,"o":"m 731 130 l 507 489 l 815 979 l 669 979 l 437 597 l 431 597 l 201 979 l 44 979 l 345 492 l 42 0 l 185 0 l 420 375 l 426 375 l 659 0 l 717 0 l 717 -194 l 844 -194 l 844 130 z "},"Ӿ":{"ha":859,"x_min":0,"x_max":0,"o":"m 774 427 l 774 542 l 542 542 l 819 979 l 671 979 l 437 597 l 431 597 l 200 979 l 42 979 l 313 542 l 79 542 l 79 427 l 304 427 l 40 0 l 184 0 l 420 375 l 427 375 l 661 0 l 814 0 l 547 427 z "},"Ӽ":{"ha":859,"x_min":0,"x_max":0,"o":"m 560 166 b 659 -45 620 68 659 17 b 563 -127 659 -96 618 -127 b 514 -123 539 -127 526 -126 l 514 -248 b 581 -254 529 -251 549 -254 b 796 -50 707 -254 796 -174 b 667 241 796 37 749 108 l 509 489 l 819 979 l 671 979 l 437 597 l 431 597 l 200 979 l 42 979 l 345 492 l 40 0 l 184 0 l 420 375 l 427 375 z "},"Ц":{"ha":859,"x_min":0,"x_max":0,"o":"m 858 125 l 754 125 l 754 979 l 612 979 l 612 125 l 210 125 l 210 979 l 69 979 l 69 0 l 728 0 l 728 -193 l 858 -193 z "},"Ҵ":{"ha":859,"x_min":0,"x_max":0,"o":"m 762 125 l 762 979 l 620 979 l 620 125 l 333 125 l 333 854 l 487 854 l 487 979 l 5 979 l 5 854 l 191 854 l 191 0 l 715 0 l 715 -193 l 844 -193 l 844 125 z "},"Ч":{"ha":859,"x_min":0,"x_max":0,"o":"m 768 979 l 627 979 l 627 557 b 414 490 578 513 509 490 b 202 709 285 490 202 570 l 202 979 l 60 979 l 60 700 b 393 359 60 497 186 359 b 618 421 485 359 562 380 l 627 421 l 627 0 l 768 0 z "},"Ӵ":{"ha":859,"x_min":0,"x_max":0,"o":"m 557 1114 b 643 1202 604 1114 643 1154 b 557 1289 643 1249 604 1289 b 472 1202 512 1289 472 1249 b 557 1114 472 1154 512 1114 z m 273 1114 b 358 1202 318 1114 358 1154 b 273 1289 358 1249 318 1289 b 187 1202 227 1289 187 1249 b 273 1114 187 1154 227 1114 z m 768 979 l 627 979 l 627 557 b 414 490 578 513 509 490 b 202 709 285 490 202 570 l 202 979 l 60 979 l 60 700 b 393 359 60 497 186 359 b 618 421 485 359 562 380 l 627 421 l 627 0 l 768 0 z "},"Ҷ":{"ha":859,"x_min":0,"x_max":0,"o":"m 732 130 l 732 979 l 595 979 l 595 557 b 394 490 547 514 484 490 b 198 709 274 490 198 570 l 198 979 l 60 979 l 60 700 b 374 359 60 497 178 359 b 587 421 460 359 532 381 l 595 421 l 595 0 l 709 0 l 709 -194 l 833 -194 l 833 130 z "},"Ӌ":{"ha":859,"x_min":0,"x_max":0,"o":"m 627 979 l 627 557 b 414 490 578 513 509 490 b 202 709 285 490 202 570 l 202 979 l 60 979 l 60 700 b 393 359 60 497 186 359 b 618 421 485 359 562 380 l 627 421 l 627 130 l 523 130 l 523 -194 l 647 -194 l 647 0 l 768 0 l 768 979 z "},"Ҹ":{"ha":859,"x_min":0,"x_max":0,"o":"m 628 979 l 628 555 b 467 490 588 519 535 497 l 467 723 l 370 723 l 370 490 b 201 701 264 505 201 578 l 201 979 l 60 979 l 60 700 b 370 363 60 505 176 373 l 370 155 l 467 155 l 467 367 b 619 423 528 375 579 394 l 628 423 l 628 0 l 768 0 l 768 979 z "},"Һ":{"ha":859,"x_min":0,"x_max":0,"o":"m 90 0 l 231 0 l 231 422 b 444 489 281 465 350 489 b 656 270 574 489 656 409 l 656 0 l 798 0 l 798 279 b 465 619 798 481 673 619 b 241 557 374 619 296 598 l 231 557 l 231 979 l 90 979 z "},"Ԧ":{"ha":859,"x_min":0,"x_max":0,"o":"m 749 130 l 749 301 b 435 619 749 494 641 619 b 235 557 351 619 279 591 l 226 557 l 226 979 l 90 979 l 90 0 l 226 0 l 226 422 b 419 489 274 465 338 489 b 613 279 543 489 613 413 l 613 0 l 723 0 l 723 -194 l 847 -194 l 847 130 z "},"Ђ":{"ha":859,"x_min":0,"x_max":0,"o":"m 511 -16 b 593 -26 526 -22 562 -26 b 851 292 753 -26 851 92 b 578 608 851 484 749 608 b 385 543 475 608 414 570 l 376 543 l 376 854 l 628 854 l 628 979 l 0 979 l 0 854 l 243 854 l 243 0 l 376 0 l 376 407 b 550 481 404 441 465 481 b 713 287 652 481 713 407 b 575 98 713 167 661 98 b 511 106 551 98 526 101 z "},"Ћ":{"ha":859,"x_min":0,"x_max":0,"o":"m 684 0 l 821 0 l 821 321 b 564 608 821 504 734 608 b 366 543 458 608 395 570 l 357 543 l 357 853 l 593 853 l 593 979 l 0 979 l 0 853 l 221 853 l 221 0 l 357 0 l 357 404 b 526 479 385 437 442 479 b 684 302 635 479 684 412 z "},"Ӏ":{"ha":859,"x_min":0,"x_max":0,"o":"m 699 0 l 699 123 l 500 123 l 500 856 l 699 856 l 699 979 l 159 979 l 159 856 l 359 856 l 359 123 l 159 123 l 159 0 z "},"І":{"ha":859,"x_min":0,"x_max":0,"o":"m 699 0 l 699 123 l 500 123 l 500 856 l 699 856 l 699 979 l 159 979 l 159 856 l 359 856 l 359 123 l 159 123 l 159 0 z "},"Ї":{"ha":859,"x_min":0,"x_max":0,"o":"m 699 0 l 699 123 l 500 123 l 500 856 l 699 856 l 699 979 l 159 979 l 159 856 l 359 856 l 359 123 l 159 123 l 159 0 z m 287 1114 b 372 1202 332 1114 372 1154 b 287 1289 372 1249 332 1289 b 201 1202 241 1289 201 1249 b 287 1114 201 1154 241 1114 z m 572 1114 b 657 1202 618 1114 657 1154 b 572 1289 657 1249 618 1289 b 486 1202 526 1289 486 1249 b 572 1114 486 1154 526 1114 z "},"Џ":{"ha":859,"x_min":0,"x_max":0,"o":"m 363 -193 l 496 -193 l 496 0 l 787 0 l 787 979 l 646 979 l 646 125 l 212 125 l 212 979 l 71 979 l 71 0 l 363 0 z "},"Ш":{"ha":859,"x_min":0,"x_max":0,"o":"m 809 0 l 809 979 l 688 979 l 688 121 l 490 121 l 490 979 l 369 979 l 369 121 l 170 121 l 170 979 l 50 979 l 50 0 z "},"Щ":{"ha":859,"x_min":0,"x_max":0,"o":"m 743 -193 l 859 -193 l 859 121 l 770 121 l 770 979 l 650 979 l 650 118 l 460 118 l 460 979 l 340 979 l 340 118 l 151 118 l 151 979 l 31 979 l 31 0 l 743 0 z "},"Ъ":{"ha":859,"x_min":0,"x_max":0,"o":"m 353 503 l 507 503 b 692 312 623 503 692 432 b 507 122 692 193 623 122 l 353 122 z m 353 625 l 353 979 l 14 979 l 14 854 l 211 854 l 211 0 l 540 0 b 832 312 714 0 832 125 b 534 625 832 498 711 625 z "},"Ы":{"ha":859,"x_min":0,"x_max":0,"o":"m 190 503 l 257 503 b 454 313 380 503 454 431 b 255 122 454 195 378 122 l 190 122 z m 271 0 b 583 312 460 0 583 122 b 275 624 583 504 463 624 l 192 624 l 192 979 l 65 979 l 65 0 z m 793 0 l 793 979 l 667 979 l 667 0 z "},"Ӹ":{"ha":859,"x_min":0,"x_max":0,"o":"m 565 1076 b 650 1163 611 1076 650 1116 b 565 1251 650 1211 611 1251 b 479 1163 519 1251 479 1211 b 565 1076 479 1116 519 1076 z m 280 1076 b 366 1163 326 1076 366 1116 b 280 1251 366 1211 326 1251 b 195 1163 234 1251 195 1211 b 280 1076 195 1116 234 1076 z m 187 503 l 254 503 b 451 313 377 503 451 431 b 252 122 451 195 376 122 l 187 122 z m 269 0 b 580 312 457 0 580 122 b 273 624 580 504 460 624 l 189 624 l 189 979 l 62 979 l 62 0 z m 791 0 l 791 979 l 665 979 l 665 0 z "},"Ь":{"ha":859,"x_min":0,"x_max":0,"o":"m 256 503 l 439 503 b 648 313 571 503 648 433 b 439 122 648 192 571 122 l 256 122 z m 475 0 b 792 312 665 0 792 125 b 470 624 792 499 663 624 l 256 624 l 256 979 l 114 979 l 114 0 z "},"Ҍ":{"ha":859,"x_min":0,"x_max":0,"o":"m 338 122 l 338 467 l 473 467 b 682 294 606 467 682 403 b 473 122 682 186 606 122 z m 338 587 l 338 728 l 665 728 l 665 845 l 338 845 l 338 979 l 196 979 l 196 845 l 0 845 l 0 728 l 196 728 l 196 0 l 509 0 b 826 294 699 0 826 117 b 505 587 826 469 697 587 z "},"Ѣ":{"ha":859,"x_min":0,"x_max":0,"o":"m 338 122 l 338 467 l 473 467 b 682 294 606 467 682 403 b 473 122 682 186 606 122 z m 338 587 l 338 728 l 665 728 l 665 845 l 338 845 l 338 979 l 196 979 l 196 845 l 0 845 l 0 728 l 196 728 l 196 0 l 509 0 b 826 294 699 0 826 117 b 505 587 826 469 697 587 z "},"Љ":{"ha":859,"x_min":0,"x_max":0,"o":"m 526 503 l 591 503 b 733 313 680 503 733 433 b 591 122 733 192 680 122 l 526 122 z m 262 861 l 405 861 l 405 0 l 614 0 b 859 312 762 0 859 119 b 614 624 859 505 762 624 l 532 624 l 532 979 l 144 979 l 122 364 b 35 121 116 183 93 121 b 0 125 22 121 8 123 l 0 1 b 52 -7 12 -4 31 -7 b 243 359 180 -7 233 96 z "},"Њ":{"ha":859,"x_min":0,"x_max":0,"o":"m 515 446 l 574 446 b 713 283 663 446 713 387 b 574 112 713 175 661 112 l 515 112 z m 178 0 l 178 444 l 393 444 l 393 0 l 595 0 b 836 286 741 0 836 111 b 595 562 836 454 741 562 l 518 562 l 518 979 l 393 979 l 393 562 l 178 562 l 178 979 l 56 979 l 56 0 z "},"Э":{"ha":859,"x_min":0,"x_max":0,"o":"m 182 659 b 414 869 203 791 289 869 b 661 558 561 869 648 762 l 292 558 l 292 439 l 663 439 b 414 109 652 224 565 109 b 182 304 286 109 203 181 l 43 304 b 413 -20 62 105 203 -20 b 808 490 665 -20 808 164 b 413 999 808 815 665 999 b 43 659 208 999 62 863 z "},"Ӭ":{"ha":859,"x_min":0,"x_max":0,"o":"m 556 1116 b 642 1203 602 1116 642 1156 b 556 1291 642 1251 602 1291 b 471 1203 511 1291 471 1251 b 556 1116 471 1156 511 1116 z m 271 1116 b 357 1203 317 1116 357 1156 b 271 1291 357 1251 317 1291 b 186 1203 225 1291 186 1251 b 271 1116 186 1156 225 1116 z m 182 659 b 414 869 203 791 289 869 b 661 558 561 869 648 762 l 292 558 l 292 439 l 663 439 b 414 109 652 224 565 109 b 182 304 286 109 203 181 l 43 304 b 413 -20 62 105 203 -20 b 808 490 665 -20 808 164 b 413 999 808 815 665 999 b 43 659 208 999 62 863 z "},"Ю":{"ha":859,"x_min":0,"x_max":0,"o":"m 538 875 b 715 489 654 875 715 744 b 538 103 715 234 654 103 b 361 489 421 103 361 234 b 538 875 361 744 421 875 z m 152 553 l 152 979 l 32 979 l 32 0 l 152 0 l 152 429 l 239 429 b 536 -20 258 121 352 -20 b 842 489 736 -20 842 156 b 536 999 842 823 736 999 b 239 553 357 999 259 854 z "},"Я":{"ha":859,"x_min":0,"x_max":0,"o":"m 637 374 l 637 0 l 776 0 l 776 979 l 441 979 b 116 675 245 979 116 859 b 336 394 116 536 200 429 l 73 0 l 232 0 l 479 374 z m 465 490 b 260 675 336 490 260 559 b 465 859 260 790 336 859 l 637 859 l 637 490 z "},"Ҕ":{"ha":859,"x_min":0,"x_max":0,"o":"m 489 -10 b 754 300 652 -10 754 115 b 460 605 754 479 647 605 b 258 532 369 605 301 574 l 251 532 l 251 854 l 654 854 l 654 979 l 110 979 l 110 0 l 251 0 l 251 382 b 441 473 286 433 354 473 b 614 292 547 473 614 404 b 475 117 614 184 560 117 b 412 125 446 117 420 121 l 412 1 b 489 -10 421 -3 452 -10 z "},"Ҧ":{"ha":859,"x_min":0,"x_max":0,"o":"m 459 541 l 459 979 l 26 979 l 26 0 l 145 0 l 145 856 l 340 856 l 340 0 l 459 0 l 459 396 b 596 477 477 422 517 477 b 711 292 671 477 711 412 b 608 113 711 181 671 113 b 559 121 585 113 566 117 l 559 1 b 618 -10 566 -3 589 -10 b 829 296 747 -10 829 107 b 610 603 829 482 755 603 b 465 541 545 603 495 576 z "},"Ҩ":{"ha":859,"x_min":0,"x_max":0,"o":"m 717 -22 b 880 40 775 -22 831 -3 l 841 139 b 720 92 807 111 760 92 b 655 98 695 92 673 94 l 655 104 b 820 475 755 173 820 316 l 820 522 b 572 870 820 726 732 870 b 323 522 412 870 323 725 l 323 475 b 461 115 323 316 368 191 l 461 109 b 382 98 439 103 412 98 b 145 460 226 98 145 235 l 145 530 b 338 873 145 717 191 861 l 338 994 b 20 536 119 983 20 788 l 20 457 b 381 -21 20 155 149 -21 b 549 30 437 -21 497 -3 l 556 30 b 717 -22 605 -4 662 -22 z m 448 471 l 448 518 b 572 749 448 655 485 749 b 696 518 659 749 696 654 l 696 471 b 561 153 696 331 646 210 b 448 471 485 218 448 340 z "},"Ү":{"ha":859,"x_min":0,"x_max":0,"o":"m 500 0 l 500 393 l 823 979 l 667 979 l 434 539 l 425 539 l 192 979 l 36 979 l 359 393 l 359 0 z "},"Ұ":{"ha":859,"x_min":0,"x_max":0,"o":"m 823 979 l 667 979 l 434 539 l 425 539 l 192 979 l 36 979 l 357 395 l 121 395 l 121 278 l 359 278 l 359 0 l 500 0 l 500 278 l 738 278 l 738 395 l 501 395 z "},"Ҽ":{"ha":859,"x_min":0,"x_max":0,"o":"m 325 599 b 525 870 330 767 396 870 b 718 609 647 870 718 776 l 718 595 l 325 595 z m 323 471 l 844 471 b 846 587 844 471 846 558 b 524 999 846 830 737 999 b 197 595 317 999 214 845 b 117 676 142 595 117 625 b 133 758 117 724 133 758 l 25 758 b 5 661 25 758 5 720 b 194 473 5 551 60 473 l 194 442 b 530 -20 194 159 309 -20 b 845 309 715 -20 824 126 l 715 309 b 528 110 695 189 632 110 b 323 429 398 110 323 217 z "},"Ҿ":{"ha":859,"x_min":0,"x_max":0,"o":"m 325 599 b 525 870 330 767 396 870 b 718 609 647 870 718 776 l 718 595 l 325 595 z m 323 471 l 844 471 b 846 587 844 471 846 558 b 524 999 846 830 737 999 b 197 595 317 999 214 845 b 117 676 142 595 117 625 b 133 758 117 724 133 758 l 25 758 b 5 661 25 758 5 720 b 194 473 5 551 60 473 l 194 442 b 470 -15 194 185 288 15 l 470 -194 l 593 -194 l 593 -14 b 845 309 741 16 827 148 l 715 309 b 528 110 695 189 632 110 b 323 429 398 110 323 217 z "},"Ӕ":{"ha":859,"x_min":0,"x_max":0,"o":"m 257 399 l 374 846 l 435 846 l 435 399 z m 846 854 l 846 979 l 285 979 l 9 0 l 152 0 l 226 280 l 435 280 l 435 0 l 846 0 l 846 125 l 564 125 l 564 433 l 821 433 l 821 553 l 564 553 l 564 854 z "},"Ә":{"ha":859,"x_min":0,"x_max":0,"o":"m 427 -20 b 799 464 685 -20 799 167 l 799 537 b 422 999 799 821 671 999 b 60 671 208 999 83 853 l 204 671 b 424 869 224 791 301 869 b 656 551 572 869 656 762 l 656 532 l 62 532 b 60 418 62 532 60 446 b 427 -20 60 175 184 -20 z m 427 109 b 201 397 283 109 201 230 l 201 412 l 655 412 l 655 401 b 427 109 655 220 580 109 z "},"Ӛ":{"ha":859,"x_min":0,"x_max":0,"o":"m 427 -20 b 799 464 685 -20 799 167 l 799 537 b 422 999 799 821 671 999 b 60 671 208 999 83 853 l 204 671 b 424 869 224 791 301 869 b 656 551 572 869 656 762 l 656 532 l 62 532 b 60 418 62 532 60 446 b 427 -20 60 175 184 -20 z m 427 109 b 201 397 283 109 201 230 l 201 412 l 655 412 l 655 401 b 427 109 655 220 580 109 z m 275 1114 b 360 1202 321 1114 360 1154 b 275 1289 360 1249 321 1289 b 189 1202 229 1289 189 1249 b 275 1114 189 1154 229 1114 z m 560 1114 b 646 1202 606 1114 646 1154 b 560 1289 646 1249 606 1289 b 475 1202 514 1289 475 1249 b 560 1114 475 1154 514 1114 z "},"Ӡ":{"ha":859,"x_min":0,"x_max":0,"o":"m 766 296 b 452 583 766 469 643 568 l 452 591 l 719 869 l 719 979 l 124 979 l 124 856 l 544 856 l 544 848 l 294 589 l 294 475 l 384 475 b 625 293 543 475 625 412 b 429 101 625 171 550 101 b 222 264 309 101 229 168 l 87 264 b 429 -20 97 94 233 -20 b 766 296 636 -20 766 103 z "},"Ԑ":{"ha":859,"x_min":0,"x_max":0,"o":"m 568 441 l 568 560 l 444 560 b 248 722 326 560 248 625 b 440 880 248 818 323 880 b 642 718 555 880 635 816 l 774 718 b 435 999 766 889 634 999 b 111 739 245 999 111 892 b 295 515 111 623 184 538 l 295 505 b 69 269 158 492 69 406 b 435 -20 69 98 219 -20 b 794 266 641 -20 787 96 l 659 266 b 433 103 652 169 561 103 b 214 276 302 103 214 170 b 440 441 214 380 298 441 z "},"Ѵ":{"ha":859,"x_min":0,"x_max":0,"o":"m 551 783 l 397 168 l 393 168 l 186 979 l 42 979 l 318 0 l 467 0 l 683 791 b 765 873 699 850 720 873 b 819 861 791 873 814 864 l 855 971 b 747 1000 843 981 800 1000 b 551 783 630 1000 583 934 z "},"Ԝ":{"ha":859,"x_min":0,"x_max":0,"o":"m 444 599 l 576 0 l 705 0 l 869 979 l 737 979 l 684 602 l 631 199 l 623 199 l 500 755 l 379 755 l 256 199 l 248 199 l 195 602 l 142 979 l 10 979 l 174 0 l 303 0 l 435 599 z "},"Ѕ":{"ha":859,"x_min":0,"x_max":0,"o":"m 85 264 b 437 -20 95 88 229 -20 b 783 273 649 -20 783 93 b 512 550 783 421 702 505 l 422 572 b 250 728 301 602 250 648 b 438 876 250 821 321 876 b 629 724 547 876 618 820 l 765 724 b 437 999 758 890 627 999 b 109 718 237 999 109 888 b 372 442 109 575 192 487 l 462 421 b 641 264 589 390 641 343 b 438 102 641 165 562 102 b 222 264 313 102 233 163 z "},"Ј":{"ha":859,"x_min":0,"x_max":0,"o":"m 401 -20 b 703 286 590 -20 703 94 l 703 979 l 221 979 l 221 856 l 562 856 l 562 289 b 399 111 562 174 503 111 b 239 257 307 111 242 170 l 101 257 b 401 -20 102 91 222 -20 z "},"a":{"ha":859,"x_min":0,"x_max":0,"o":"m 347 -12 b 566 107 452 -12 531 31 l 579 107 l 579 -1 l 709 -1 l 709 505 b 429 749 709 660 607 749 b 140 545 270 749 154 667 l 273 545 b 426 637 291 603 347 637 b 574 505 521 637 574 589 l 574 439 l 380 429 b 113 210 208 419 113 342 b 347 -12 113 77 206 -12 z m 389 101 b 248 216 302 101 248 145 b 398 334 248 288 300 329 l 574 343 l 574 265 b 389 101 574 171 495 101 z "},"à":{"ha":859,"x_min":0,"x_max":0,"o":"m 347 -12 b 566 107 452 -12 531 31 l 579 107 l 579 -1 l 709 -1 l 709 505 b 429 749 709 660 607 749 b 140 545 270 749 154 667 l 273 545 b 426 637 291 603 347 637 b 574 505 521 637 574 589 l 574 439 l 380 429 b 113 210 208 419 113 342 b 347 -12 113 77 206 -12 z m 389 101 b 248 216 302 101 248 145 b 398 334 248 288 300 329 l 574 343 l 574 265 b 389 101 574 171 495 101 z m 542 879 l 379 1112 l 220 1112 l 403 879 z "},"á":{"ha":859,"x_min":0,"x_max":0,"o":"m 491 879 l 673 1112 l 515 1112 l 352 879 z m 574 343 l 574 265 b 389 101 574 171 495 101 b 248 216 302 101 248 145 b 398 334 248 288 300 329 z m 579 107 l 579 -1 l 709 -1 l 709 505 b 429 749 709 660 607 749 b 140 545 270 749 154 667 l 273 545 b 426 637 291 603 347 637 b 574 505 521 637 574 589 l 574 439 l 380 429 b 113 210 208 419 113 342 b 347 -12 113 77 206 -12 b 566 107 452 -12 531 31 z "},"ä":{"ha":859,"x_min":0,"x_max":0,"o":"m 347 -12 b 566 107 452 -12 531 31 l 579 107 l 579 -1 l 709 -1 l 709 505 b 429 749 709 660 607 749 b 140 545 270 749 154 667 l 273 545 b 426 637 291 603 347 637 b 574 505 521 637 574 589 l 574 439 l 380 429 b 113 210 208 419 113 342 b 347 -12 113 77 206 -12 z m 389 101 b 248 216 302 101 248 145 b 398 334 248 288 300 329 l 574 343 l 574 265 b 389 101 574 171 495 101 z m 290 879 b 375 967 336 879 375 920 b 290 1055 375 1015 336 1055 b 204 967 244 1055 204 1015 b 290 879 204 920 244 879 z m 575 879 b 661 967 621 879 661 920 b 575 1055 661 1015 621 1055 b 490 967 530 1055 490 1015 b 575 879 490 920 530 879 z "},"ǟ":{"ha":859,"x_min":0,"x_max":0,"o":"m 570 1057 b 485 970 524 1057 485 1017 b 570 882 485 922 524 882 b 656 970 616 882 656 922 b 570 1057 656 1017 616 1057 z m 285 1057 b 199 970 239 1057 199 1017 b 285 882 199 922 239 882 b 370 970 331 882 370 922 b 285 1057 370 1017 331 1057 z m 657 1171 l 657 1274 l 198 1274 l 198 1171 z m 574 343 l 574 265 b 389 101 574 171 495 101 b 248 216 302 101 248 145 b 398 334 248 288 300 329 z m 579 107 l 579 -1 l 709 -1 l 709 505 b 429 749 709 660 607 749 b 140 545 270 749 154 667 l 273 545 b 426 637 291 603 347 637 b 574 505 521 637 574 589 l 574 439 l 380 429 b 113 210 208 419 113 342 b 347 -12 113 77 206 -12 b 566 107 452 -12 531 31 z "},"å":{"ha":859,"x_min":0,"x_max":0,"o":"m 347 -12 b 566 107 452 -12 531 31 l 579 107 l 579 -1 l 709 -1 l 709 505 b 429 749 709 660 607 749 b 140 545 270 749 154 667 l 273 545 b 426 637 291 603 347 637 b 574 505 521 637 574 589 l 574 439 l 380 429 b 113 210 208 419 113 342 b 347 -12 113 77 206 -12 z m 389 101 b 248 216 302 101 248 145 b 398 334 248 288 300 329 l 574 343 l 574 265 b 389 101 574 171 495 101 z m 428 926 b 351 1005 384 926 351 960 b 428 1084 351 1050 384 1084 b 505 1005 471 1084 505 1050 b 428 926 505 960 471 926 z m 428 846 b 583 1005 513 846 583 918 b 428 1164 583 1093 513 1164 b 272 1005 342 1164 272 1093 b 428 846 272 918 342 846 z "},"ǻ":{"ha":859,"x_min":0,"x_max":0,"o":"m 484 1173 l 615 1337 l 483 1337 l 372 1173 z m 428 833 b 568 971 507 833 568 892 b 428 1109 568 1049 507 1109 b 288 971 349 1109 288 1049 b 428 833 288 892 349 833 z m 428 902 b 359 971 389 902 359 932 b 428 1040 359 1010 389 1040 b 496 971 467 1040 496 1010 b 428 902 496 932 467 902 z m 574 343 l 574 265 b 389 101 574 171 495 101 b 248 216 302 101 248 145 b 398 334 248 288 300 329 z m 579 107 l 579 -1 l 709 -1 l 709 505 b 429 749 709 660 607 749 b 140 545 270 749 154 667 l 273 545 b 426 637 291 603 347 637 b 574 505 521 637 574 589 l 574 439 l 380 429 b 113 210 208 419 113 342 b 347 -12 113 77 206 -12 b 566 107 452 -12 531 31 z "},"ã":{"ha":859,"x_min":0,"x_max":0,"o":"m 347 -12 b 566 107 452 -12 531 31 l 579 107 l 579 -1 l 709 -1 l 709 505 b 429 749 709 660 607 749 b 140 545 270 749 154 667 l 273 545 b 426 637 291 603 347 637 b 574 505 521 637 574 589 l 574 439 l 380 429 b 113 210 208 419 113 342 b 347 -12 113 77 206 -12 z m 389 101 b 248 216 302 101 248 145 b 398 334 248 288 300 329 l 574 343 l 574 265 b 389 101 574 171 495 101 z m 333 962 b 524 858 390 962 420 858 b 684 1061 623 858 684 937 l 580 1061 b 522 960 580 992 562 960 b 332 1063 465 960 435 1063 b 172 859 233 1063 172 985 l 275 859 b 333 962 276 929 294 962 z "},"ằ":{"ha":859,"x_min":0,"x_max":0,"o":"m 180 1082 b 428 854 180 949 274 854 b 676 1082 581 854 676 949 l 562 1082 b 428 951 562 1006 513 951 b 292 1082 341 951 293 1006 z m 364 1339 l 229 1339 l 387 1124 l 498 1124 z m 574 343 l 574 265 b 389 101 574 171 495 101 b 248 216 302 101 248 145 b 398 334 248 288 300 329 z m 579 107 l 579 -1 l 709 -1 l 709 505 b 429 749 709 660 607 749 b 140 545 270 749 154 667 l 273 545 b 426 637 291 603 347 637 b 574 505 521 637 574 589 l 574 439 l 380 429 b 113 210 208 419 113 342 b 347 -12 113 77 206 -12 b 566 107 452 -12 531 31 z "},"ǡ":{"ha":859,"x_min":0,"x_max":0,"o":"m 347 -12 b 566 107 452 -12 531 31 l 579 107 l 579 -1 l 709 -1 l 709 505 b 429 749 709 660 607 749 b 140 545 270 749 154 667 l 273 545 b 426 637 291 603 347 637 b 574 505 521 637 574 589 l 574 439 l 380 429 b 113 210 208 419 113 342 b 347 -12 113 77 206 -12 z m 389 101 b 248 216 302 101 248 145 b 398 334 248 288 300 329 l 574 343 l 574 265 b 389 101 574 171 495 101 z m 657 1172 l 657 1274 l 198 1274 l 198 1172 z m 428 870 b 519 964 477 870 519 913 b 428 1057 519 1015 477 1057 b 336 964 378 1057 336 1015 b 428 870 336 913 378 870 z "},"ḁ":{"ha":859,"x_min":0,"x_max":0,"o":"m 347 -12 b 566 107 452 -12 531 31 l 579 107 l 579 -1 l 709 -1 l 709 505 b 429 749 709 660 607 749 b 140 545 270 749 154 667 l 273 545 b 426 637 291 603 347 637 b 574 505 521 637 574 589 l 574 439 l 380 429 b 113 210 208 419 113 342 b 347 -12 113 77 206 -12 z m 389 101 b 248 216 302 101 248 145 b 398 334 248 288 300 329 l 574 343 l 574 265 b 389 101 574 171 495 101 z m 411 -315 b 334 -236 368 -315 334 -280 b 411 -157 334 -191 368 -157 b 488 -236 455 -157 488 -191 b 411 -315 488 -280 455 -315 z m 411 -394 b 567 -236 496 -394 567 -323 b 411 -77 567 -149 496 -77 b 256 -236 326 -77 256 -149 b 411 -394 256 -323 326 -394 z "},"â":{"ha":859,"x_min":0,"x_max":0,"o":"m 347 -12 b 566 107 452 -12 531 31 l 579 107 l 579 -1 l 709 -1 l 709 505 b 429 749 709 660 607 749 b 140 545 270 749 154 667 l 273 545 b 426 637 291 603 347 637 b 574 505 521 637 574 589 l 574 439 l 380 429 b 113 210 208 419 113 342 b 347 -12 113 77 206 -12 z m 389 101 b 248 216 302 101 248 145 b 398 334 248 288 300 329 l 574 343 l 574 265 b 389 101 574 171 495 101 z m 351 1102 l 167 867 l 311 867 l 422 1018 l 433 1018 l 544 867 l 689 867 l 505 1102 z "},"ậ":{"ha":859,"x_min":0,"x_max":0,"o":"m 347 -12 b 566 107 452 -12 531 31 l 579 107 l 579 -1 l 709 -1 l 709 505 b 429 749 709 660 607 749 b 140 545 270 749 154 667 l 273 545 b 426 637 291 603 347 637 b 574 505 521 637 574 589 l 574 439 l 380 429 b 113 210 208 419 113 342 b 347 -12 113 77 206 -12 z m 389 101 b 248 216 302 101 248 145 b 398 334 248 288 300 329 l 574 343 l 574 265 b 389 101 574 171 495 101 z m 351 1102 l 167 867 l 311 867 l 422 1018 l 433 1018 l 544 867 l 689 867 l 505 1102 z m 411 -302 b 503 -208 461 -302 503 -260 b 411 -115 503 -157 461 -115 b 319 -208 361 -115 319 -157 b 411 -302 319 -260 361 -302 z "},"ấ":{"ha":859,"x_min":0,"x_max":0,"o":"m 347 -12 b 566 107 452 -12 531 31 l 579 107 l 579 -1 l 709 -1 l 709 505 b 429 749 709 660 607 749 b 140 545 270 749 154 667 l 273 545 b 426 637 291 603 347 637 b 574 505 521 637 574 589 l 574 439 l 380 429 b 113 210 208 419 113 342 b 347 -12 113 77 206 -12 z m 389 101 b 248 216 302 101 248 145 b 398 334 248 288 300 329 l 574 343 l 574 265 b 389 101 574 171 495 101 z m 567 1122 l 689 1122 l 846 1337 l 704 1337 z m 351 1102 l 167 867 l 311 867 l 422 1018 l 433 1018 l 544 867 l 689 867 l 505 1102 z "},"ẫ":{"ha":859,"x_min":0,"x_max":0,"o":"m 347 -12 b 566 107 452 -12 531 31 l 579 107 l 579 -1 l 709 -1 l 709 505 b 429 749 709 660 607 749 b 140 545 270 749 154 667 l 273 545 b 426 637 291 603 347 637 b 574 505 521 637 574 589 l 574 439 l 380 429 b 113 210 208 419 113 342 b 347 -12 113 77 206 -12 z m 389 101 b 248 216 302 101 248 145 b 398 334 248 288 300 329 l 574 343 l 574 265 b 389 101 574 171 495 101 z m 332 1263 b 528 1161 391 1263 420 1161 b 684 1359 625 1161 684 1236 l 582 1359 b 523 1259 582 1288 564 1259 b 327 1360 464 1259 435 1360 b 172 1162 230 1360 172 1286 l 273 1162 b 332 1263 274 1234 292 1263 z m 351 1102 l 167 867 l 311 867 l 422 1018 l 433 1018 l 544 867 l 689 867 l 505 1102 z "},"ầ":{"ha":859,"x_min":0,"x_max":0,"o":"m 347 -12 b 566 107 452 -12 531 31 l 579 107 l 579 -1 l 709 -1 l 709 505 b 429 749 709 660 607 749 b 140 545 270 749 154 667 l 273 545 b 426 637 291 603 347 637 b 574 505 521 637 574 589 l 574 439 l 380 429 b 113 210 208 419 113 342 b 347 -12 113 77 206 -12 z m 389 101 b 248 216 302 101 248 145 b 398 334 248 288 300 329 l 574 343 l 574 265 b 389 101 574 171 495 101 z m 750 1122 l 612 1337 l 471 1337 l 628 1122 z m 351 1102 l 167 867 l 311 867 l 422 1018 l 433 1018 l 544 867 l 689 867 l 505 1102 z "},"ẩ":{"ha":859,"x_min":0,"x_max":0,"o":"m 347 -12 b 566 107 452 -12 531 31 l 579 107 l 579 -1 l 709 -1 l 709 505 b 429 749 709 660 607 749 b 140 545 270 749 154 667 l 273 545 b 426 637 291 603 347 637 b 574 505 521 637 574 589 l 574 439 l 380 429 b 113 210 208 419 113 342 b 347 -12 113 77 206 -12 z m 389 101 b 248 216 302 101 248 145 b 398 334 248 288 300 329 l 574 343 l 574 265 b 389 101 574 171 495 101 z m 351 1102 l 167 867 l 311 867 l 422 1018 l 433 1018 l 544 867 l 689 867 l 505 1102 z m 518 1256 b 593 1272 539 1266 567 1272 b 664 1217 635 1272 664 1250 b 595 1145 664 1188 635 1160 l 645 1081 b 763 1230 719 1109 763 1164 b 618 1358 763 1307 703 1358 b 518 1340 580 1358 543 1350 z "},"ă":{"ha":859,"x_min":0,"x_max":0,"o":"m 347 -12 b 566 107 452 -12 531 31 l 579 107 l 579 -1 l 709 -1 l 709 505 b 429 749 709 660 607 749 b 140 545 270 749 154 667 l 273 545 b 426 637 291 603 347 637 b 574 505 521 637 574 589 l 574 439 l 380 429 b 113 210 208 419 113 342 b 347 -12 113 77 206 -12 z m 389 101 b 248 216 302 101 248 145 b 398 334 248 288 300 329 l 574 343 l 574 265 b 389 101 574 171 495 101 z m 421 951 b 287 1082 336 951 287 1006 l 173 1082 b 421 854 173 949 268 854 b 669 1082 574 854 669 949 l 556 1082 b 421 951 556 1006 508 951 z "},"ắ":{"ha":859,"x_min":0,"x_max":0,"o":"m 347 -12 b 566 107 452 -12 531 31 l 579 107 l 579 -1 l 709 -1 l 709 505 b 429 749 709 660 607 749 b 140 545 270 749 154 667 l 273 545 b 426 637 291 603 347 637 b 574 505 521 637 574 589 l 574 439 l 380 429 b 113 210 208 419 113 342 b 347 -12 113 77 206 -12 z m 389 101 b 248 216 302 101 248 145 b 398 334 248 288 300 329 l 574 343 l 574 265 b 389 101 574 171 495 101 z m 357 1124 l 469 1124 l 627 1339 l 491 1339 z m 428 951 b 293 1082 342 951 293 1006 l 180 1082 b 428 854 180 949 274 854 b 676 1082 581 854 676 949 l 563 1082 b 428 951 563 1006 514 951 z "},"ẵ":{"ha":859,"x_min":0,"x_max":0,"o":"m 347 -12 b 566 107 452 -12 531 31 l 579 107 l 579 -1 l 709 -1 l 709 505 b 429 749 709 660 607 749 b 140 545 270 749 154 667 l 273 545 b 426 637 291 603 347 637 b 574 505 521 637 574 589 l 574 439 l 380 429 b 113 210 208 419 113 342 b 347 -12 113 77 206 -12 z m 389 101 b 248 216 302 101 248 145 b 398 334 248 288 300 329 l 574 343 l 574 265 b 389 101 574 171 495 101 z m 428 951 b 293 1082 342 951 293 1006 l 180 1082 b 428 853 180 948 274 853 b 676 1082 581 853 676 948 l 563 1082 b 428 951 563 1006 514 951 z m 333 1251 b 524 1147 390 1251 420 1147 b 684 1350 623 1147 684 1225 l 580 1350 b 522 1249 580 1280 562 1249 b 332 1352 465 1249 435 1352 b 172 1147 233 1352 172 1274 l 275 1147 b 333 1251 276 1218 294 1251 z "},"ẳ":{"ha":859,"x_min":0,"x_max":0,"o":"m 347 -12 b 566 107 452 -12 531 31 l 579 107 l 579 -1 l 709 -1 l 709 505 b 429 749 709 660 607 749 b 140 545 270 749 154 667 l 273 545 b 426 637 291 603 347 637 b 574 505 521 637 574 589 l 574 439 l 380 429 b 113 210 208 419 113 342 b 347 -12 113 77 206 -12 z m 389 101 b 248 216 302 101 248 145 b 398 334 248 288 300 329 l 574 343 l 574 265 b 389 101 574 171 495 101 z m 428 950 b 293 1082 342 950 293 1005 l 180 1082 b 428 853 180 948 274 853 b 676 1082 581 853 676 948 l 563 1082 b 428 950 563 1005 514 950 z m 300 1258 b 375 1274 321 1268 349 1274 b 446 1220 418 1274 446 1252 b 376 1147 446 1190 417 1162 l 427 1083 b 545 1232 500 1112 545 1166 b 400 1361 545 1309 485 1361 b 300 1342 362 1361 324 1353 z "},"ặ":{"ha":859,"x_min":0,"x_max":0,"o":"m 347 -12 b 566 107 452 -12 531 31 l 579 107 l 579 -1 l 709 -1 l 709 505 b 429 749 709 660 607 749 b 140 545 270 749 154 667 l 273 545 b 426 637 291 603 347 637 b 574 505 521 637 574 589 l 574 439 l 380 429 b 113 210 208 419 113 342 b 347 -12 113 77 206 -12 z m 389 101 b 248 216 302 101 248 145 b 398 334 248 288 300 329 l 574 343 l 574 265 b 389 101 574 171 495 101 z m 428 951 b 293 1082 342 951 293 1006 l 180 1082 b 428 854 180 949 274 854 b 676 1082 581 854 676 949 l 563 1082 b 428 951 563 1006 514 951 z m 411 -311 b 503 -217 461 -311 503 -268 b 411 -123 503 -166 461 -123 b 319 -217 361 -123 319 -166 b 411 -311 319 -268 361 -311 z "},"ȃ":{"ha":859,"x_min":0,"x_max":0,"o":"m 676 854 b 428 1082 676 987 581 1082 b 180 854 274 1082 180 987 l 293 854 b 428 985 293 930 342 985 b 563 854 514 985 563 930 z m 574 343 l 574 265 b 389 101 574 171 495 101 b 248 216 302 101 248 145 b 398 334 248 288 300 329 z m 579 107 l 579 -1 l 709 -1 l 709 505 b 429 749 709 660 607 749 b 140 545 270 749 154 667 l 273 545 b 426 637 291 603 347 637 b 574 505 521 637 574 589 l 574 439 l 380 429 b 113 210 208 419 113 342 b 347 -12 113 77 206 -12 b 566 107 452 -12 531 31 z "},"ǎ":{"ha":859,"x_min":0,"x_max":0,"o":"m 505 879 l 689 1114 l 544 1114 l 433 963 l 422 963 l 311 1114 l 167 1114 l 351 879 z m 574 343 l 574 265 b 389 101 574 171 495 101 b 248 216 302 101 248 145 b 398 334 248 288 300 329 z m 579 107 l 579 -1 l 709 -1 l 709 505 b 429 749 709 660 607 749 b 140 545 270 749 154 667 l 273 545 b 426 637 291 603 347 637 b 574 505 521 637 574 589 l 574 439 l 380 429 b 113 210 208 419 113 342 b 347 -12 113 77 206 -12 b 566 107 452 -12 531 31 z "},"ȧ":{"ha":859,"x_min":0,"x_max":0,"o":"m 347 -12 b 566 107 452 -12 531 31 l 579 107 l 579 -1 l 709 -1 l 709 505 b 429 749 709 660 607 749 b 140 545 270 749 154 667 l 273 545 b 426 637 291 603 347 637 b 574 505 521 637 574 589 l 574 439 l 380 429 b 113 210 208 419 113 342 b 347 -12 113 77 206 -12 z m 389 101 b 248 216 302 101 248 145 b 398 334 248 288 300 329 l 574 343 l 574 265 b 389 101 574 171 495 101 z m 428 878 b 519 971 477 878 519 920 b 428 1065 519 1023 477 1065 b 336 971 378 1065 336 1023 b 428 878 336 920 378 878 z "},"ạ":{"ha":859,"x_min":0,"x_max":0,"o":"m 347 -12 b 566 107 452 -12 531 31 l 579 107 l 579 -1 l 709 -1 l 709 505 b 429 749 709 660 607 749 b 140 545 270 749 154 667 l 273 545 b 426 637 291 603 347 637 b 574 505 521 637 574 589 l 574 439 l 380 429 b 113 210 208 419 113 342 b 347 -12 113 77 206 -12 z m 389 101 b 248 216 302 101 248 145 b 398 334 248 288 300 329 l 574 343 l 574 265 b 389 101 574 171 495 101 z m 411 -311 b 503 -217 461 -311 503 -268 b 411 -123 503 -166 461 -123 b 319 -217 361 -123 319 -166 b 411 -311 319 -268 361 -311 z "},"ả":{"ha":859,"x_min":0,"x_max":0,"o":"m 347 -12 b 566 107 452 -12 531 31 l 579 107 l 579 -1 l 709 -1 l 709 505 b 429 749 709 660 607 749 b 140 545 270 749 154 667 l 273 545 b 426 637 291 603 347 637 b 574 505 521 637 574 589 l 574 439 l 380 429 b 113 210 208 419 113 342 b 347 -12 113 77 206 -12 z m 389 101 b 248 216 302 101 248 145 b 398 334 248 288 300 329 l 574 343 l 574 265 b 389 101 574 171 495 101 z m 311 1018 b 385 1034 331 1028 359 1034 b 456 980 428 1034 456 1013 b 387 907 456 950 427 922 l 437 843 b 555 992 511 871 555 926 b 410 1121 555 1069 496 1121 b 311 1102 372 1121 334 1113 z "},"ȁ":{"ha":859,"x_min":0,"x_max":0,"o":"m 486 1112 l 345 1112 l 509 879 l 634 879 z m 215 1112 l 73 1112 l 237 879 l 363 879 z m 574 343 l 574 265 b 389 101 574 171 495 101 b 248 216 302 101 248 145 b 398 334 248 288 300 329 z m 579 107 l 579 -1 l 709 -1 l 709 505 b 429 749 709 660 607 749 b 140 545 270 749 154 667 l 273 545 b 426 637 291 603 347 637 b 574 505 521 637 574 589 l 574 439 l 380 429 b 113 210 208 419 113 342 b 347 -12 113 77 206 -12 b 566 107 452 -12 531 31 z "},"ā":{"ha":859,"x_min":0,"x_max":0,"o":"m 347 -12 b 566 107 452 -12 531 31 l 579 107 l 579 -1 l 709 -1 l 709 505 b 429 749 709 660 607 749 b 140 545 270 749 154 667 l 273 545 b 426 637 291 603 347 637 b 574 505 521 637 574 589 l 574 439 l 380 429 b 113 210 208 419 113 342 b 347 -12 113 77 206 -12 z m 389 101 b 248 216 302 101 248 145 b 398 334 248 288 300 329 l 574 343 l 574 265 b 389 101 574 171 495 101 z m 657 926 l 657 1029 l 198 1029 l 198 926 z "},"ą":{"ha":859,"x_min":0,"x_max":0,"o":"m 389 102 b 248 217 302 102 248 146 b 398 335 248 289 300 330 l 574 344 l 574 266 b 389 102 574 171 495 102 z m 579 0 b 467 -162 505 -44 467 -97 b 626 -298 467 -243 532 -298 b 709 -284 656 -298 692 -292 l 709 -192 b 663 -198 699 -196 682 -198 b 586 -133 615 -198 586 -173 b 701 -3 586 -83 630 -32 l 709 0 l 709 505 b 429 749 709 661 607 749 b 140 545 270 749 154 667 l 273 545 b 426 637 291 604 347 637 b 574 505 521 637 574 589 l 574 440 l 380 430 b 113 210 208 420 113 342 b 347 -12 113 77 206 -12 b 566 108 452 -12 531 31 l 579 108 z "},"b":{"ha":859,"x_min":0,"x_max":0,"o":"m 486 -12 b 765 302 656 -12 765 109 l 765 437 b 486 751 765 630 656 751 b 273 622 380 751 302 705 l 259 622 l 259 1027 l 119 1027 l 119 0 l 256 0 l 256 117 l 269 117 b 486 -12 304 33 380 -12 z m 441 109 b 256 315 328 109 256 189 l 256 426 b 441 633 256 553 328 633 b 627 426 555 633 627 553 l 627 315 b 441 109 627 189 555 109 z "},"ḇ":{"ha":859,"x_min":0,"x_max":0,"o":"m 486 -12 b 765 302 656 -12 765 109 l 765 437 b 486 751 765 630 656 751 b 273 622 380 751 302 705 l 259 622 l 259 1027 l 119 1027 l 119 0 l 256 0 l 256 117 l 269 117 b 486 -12 304 33 380 -12 z m 441 109 b 256 315 328 109 256 189 l 256 426 b 441 633 256 553 328 633 b 627 426 555 633 627 553 l 627 315 b 441 109 627 189 555 109 z m 659 -272 l 659 -169 l 199 -169 l 199 -272 z "},"ḅ":{"ha":859,"x_min":0,"x_max":0,"o":"m 486 -12 b 765 302 656 -12 765 109 l 765 437 b 486 751 765 630 656 751 b 273 622 380 751 302 705 l 259 622 l 259 1027 l 119 1027 l 119 0 l 256 0 l 256 117 l 269 117 b 486 -12 304 33 380 -12 z m 441 109 b 256 315 328 109 256 189 l 256 426 b 441 633 256 553 328 633 b 627 426 555 633 627 553 l 627 315 b 441 109 627 189 555 109 z m 429 -311 b 522 -217 479 -311 522 -268 b 429 -123 522 -166 479 -123 b 337 -217 380 -123 337 -166 b 429 -311 337 -268 380 -311 z "},"ḃ":{"ha":859,"x_min":0,"x_max":0,"o":"m 486 -12 b 765 302 656 -12 765 109 l 765 437 b 486 751 765 630 656 751 b 273 622 380 751 302 705 l 259 622 l 259 1027 l 119 1027 l 119 0 l 256 0 l 256 117 l 269 117 b 486 -12 304 33 380 -12 z m 441 109 b 256 315 328 109 256 189 l 256 426 b 441 633 256 553 328 633 b 627 426 555 633 627 553 l 627 315 b 441 109 627 189 555 109 z m 512 878 b 604 971 562 878 604 920 b 512 1065 604 1023 562 1065 b 420 971 462 1065 420 1023 b 512 878 420 920 462 878 z "},"c":{"ha":859,"x_min":0,"x_max":0,"o":"m 745 501 b 443 754 727 661 615 754 b 119 416 237 754 119 631 l 119 325 b 443 -14 119 109 237 -14 b 745 236 615 -14 727 79 l 611 236 b 441 103 597 153 532 103 b 255 339 321 103 255 187 l 255 401 b 441 637 255 553 321 637 b 611 501 532 637 598 587 z "},"ć":{"ha":859,"x_min":0,"x_max":0,"o":"m 497 879 l 680 1112 l 520 1112 l 358 879 z m 745 501 b 443 754 727 661 615 754 b 119 416 237 754 119 631 l 119 325 b 443 -14 119 109 237 -14 b 745 236 615 -14 727 79 l 611 236 b 441 103 597 153 532 103 b 255 339 321 103 255 187 l 255 401 b 441 637 255 553 321 637 b 611 501 532 637 598 587 z "},"č":{"ha":859,"x_min":0,"x_max":0,"o":"m 510 879 l 694 1114 l 549 1114 l 439 963 l 428 963 l 317 1114 l 172 1114 l 357 879 z m 745 501 b 443 754 727 661 615 754 b 119 416 237 754 119 631 l 119 325 b 443 -14 119 109 237 -14 b 745 236 615 -14 727 79 l 611 236 b 441 103 597 153 532 103 b 255 339 321 103 255 187 l 255 401 b 441 637 255 553 321 637 b 611 501 532 637 598 587 z "},"ĉ":{"ha":859,"x_min":0,"x_max":0,"o":"m 745 501 b 443 754 727 661 615 754 b 119 416 237 754 119 631 l 119 325 b 443 -14 119 109 237 -14 b 745 236 615 -14 727 79 l 611 236 b 441 103 597 153 532 103 b 255 339 321 103 255 187 l 255 401 b 441 637 255 553 321 637 b 611 501 532 637 598 587 z m 357 1102 l 172 867 l 317 867 l 428 1018 l 439 1018 l 549 867 l 694 867 l 510 1102 z "},"ċ":{"ha":859,"x_min":0,"x_max":0,"o":"m 745 501 b 443 754 727 661 615 754 b 119 416 237 754 119 631 l 119 325 b 443 -14 119 109 237 -14 b 745 236 615 -14 727 79 l 611 236 b 441 103 597 153 532 103 b 255 339 321 103 255 187 l 255 401 b 441 637 255 553 321 637 b 611 501 532 637 598 587 z m 433 882 b 526 976 484 882 526 925 b 433 1069 526 1027 484 1069 b 342 976 384 1069 342 1027 b 433 882 342 925 384 882 z "},"ç":{"ha":859,"x_min":0,"x_max":0,"o":"m 255 401 b 441 637 255 553 321 637 b 611 501 532 637 598 587 l 745 501 b 443 754 727 661 615 754 b 119 416 237 754 119 631 l 119 325 b 380 -10 119 132 214 13 l 345 -96 l 345 -160 l 384 -160 b 477 -203 450 -160 477 -173 b 401 -249 477 -233 451 -249 b 322 -239 376 -249 337 -244 l 322 -319 b 412 -331 352 -327 378 -331 b 579 -199 515 -331 579 -280 b 447 -85 579 -127 532 -87 l 476 -13 b 745 236 629 -1 728 89 l 611 236 b 441 103 597 153 532 103 b 255 339 321 103 255 187 z "},"ḉ":{"ha":859,"x_min":0,"x_max":0,"o":"m 680 1112 l 520 1112 l 358 879 l 497 879 z m 255 401 b 441 637 255 553 321 637 b 611 501 532 637 598 587 l 745 501 b 443 754 727 661 615 754 b 119 416 237 754 119 631 l 119 325 b 387 -11 119 130 216 9 l 352 -96 l 352 -160 l 391 -160 b 486 -203 458 -160 486 -173 b 409 -249 486 -233 458 -249 b 330 -239 383 -249 345 -244 l 330 -319 b 420 -331 359 -327 386 -331 b 587 -199 522 -331 587 -280 b 454 -85 587 -127 540 -87 l 484 -12 b 745 236 633 1 728 92 l 611 236 b 441 103 597 153 532 103 b 255 339 321 103 255 187 z "},"d":{"ha":859,"x_min":0,"x_max":0,"o":"m 231 426 b 417 633 231 553 303 633 b 603 426 531 633 603 553 l 603 315 b 417 109 603 189 531 109 b 231 315 303 109 231 189 z m 603 117 l 603 0 l 739 0 l 739 1027 l 600 1027 l 600 622 l 587 622 b 372 751 557 705 479 751 b 94 437 202 751 94 630 l 94 302 b 372 -12 94 109 202 -12 b 590 117 479 -12 555 33 z "},"ḋ":{"ha":859,"x_min":0,"x_max":0,"o":"m 345 878 b 437 971 395 878 437 920 b 345 1065 437 1023 395 1065 b 253 971 295 1065 253 1023 b 345 878 253 920 295 878 z m 231 426 b 417 633 231 553 303 633 b 603 426 531 633 603 553 l 603 315 b 417 109 603 189 531 109 b 231 315 303 109 231 189 z m 603 117 l 603 0 l 739 0 l 739 1027 l 600 1027 l 600 622 l 587 622 b 372 751 557 705 479 751 b 94 437 202 751 94 630 l 94 302 b 372 -12 94 109 202 -12 b 590 117 479 -12 555 33 z "},"ḓ":{"ha":859,"x_min":0,"x_max":0,"o":"m 353 -111 l 168 -346 l 313 -346 l 424 -196 l 435 -196 l 546 -346 l 690 -346 l 506 -111 z m 231 426 b 417 633 231 553 303 633 b 603 426 531 633 603 553 l 603 315 b 417 109 603 189 531 109 b 231 315 303 109 231 189 z m 603 117 l 603 0 l 739 0 l 739 1027 l 600 1027 l 600 622 l 587 622 b 372 751 557 705 479 751 b 94 437 202 751 94 630 l 94 302 b 372 -12 94 109 202 -12 b 590 117 479 -12 555 33 z "},"ḑ":{"ha":859,"x_min":0,"x_max":0,"o":"m 442 -350 l 536 -106 l 397 -106 l 319 -350 z m 231 426 b 417 633 231 553 303 633 b 603 426 531 633 603 553 l 603 315 b 417 109 603 189 531 109 b 231 315 303 109 231 189 z m 603 117 l 603 0 l 739 0 l 739 1027 l 600 1027 l 600 622 l 587 622 b 372 751 557 705 479 751 b 94 437 202 751 94 630 l 94 302 b 372 -12 94 109 202 -12 b 590 117 479 -12 555 33 z "},"ḏ":{"ha":859,"x_min":0,"x_max":0,"o":"m 659 -272 l 659 -169 l 199 -169 l 199 -272 z m 231 426 b 417 633 231 553 303 633 b 603 426 531 633 603 553 l 603 315 b 417 109 603 189 531 109 b 231 315 303 109 231 189 z m 603 117 l 603 0 l 739 0 l 739 1027 l 600 1027 l 600 622 l 587 622 b 372 751 557 705 479 751 b 94 437 202 751 94 630 l 94 302 b 372 -12 94 109 202 -12 b 590 117 479 -12 555 33 z "},"ď":{"ha":859,"x_min":0,"x_max":0,"o":"m 180 424 b 344 633 180 562 237 633 b 507 424 450 633 507 562 l 507 318 b 344 109 507 180 450 109 b 180 318 237 109 180 180 z m 517 117 l 517 0 l 637 0 l 637 1027 l 514 1027 l 514 622 l 501 622 b 307 751 470 709 405 751 b 55 437 144 751 55 641 l 55 302 b 307 -12 55 98 144 -12 b 505 117 404 -12 467 29 z m 724 1027 l 724 710 l 814 710 l 838 1027 z "},"ḍ":{"ha":859,"x_min":0,"x_max":0,"o":"m 429 -311 b 522 -217 479 -311 522 -268 b 429 -123 522 -166 479 -123 b 337 -217 380 -123 337 -166 b 429 -311 337 -268 380 -311 z m 231 426 b 417 633 231 553 303 633 b 603 426 531 633 603 553 l 603 315 b 417 109 603 189 531 109 b 231 315 303 109 231 189 z m 603 117 l 603 0 l 739 0 l 739 1027 l 600 1027 l 600 622 l 587 622 b 372 751 557 705 479 751 b 94 437 202 751 94 630 l 94 302 b 372 -12 94 109 202 -12 b 590 117 479 -12 555 33 z "},"đ":{"ha":859,"x_min":0,"x_max":0,"o":"m 601 315 b 416 109 601 189 529 109 b 229 315 302 109 229 189 l 229 426 b 416 633 229 553 302 633 b 601 426 529 633 601 553 z m 840 941 l 737 941 l 737 1027 l 598 1027 l 598 941 l 456 941 l 456 859 l 598 859 l 598 622 l 585 622 b 371 751 555 705 477 751 b 92 437 200 751 92 630 l 92 302 b 371 -12 92 109 200 -12 b 588 117 477 -12 553 33 l 601 117 l 601 0 l 737 0 l 737 859 l 840 859 z "},"e":{"ha":859,"x_min":0,"x_max":0,"o":"m 437 642 b 616 431 549 642 616 563 l 254 431 b 437 642 254 564 323 642 z m 617 195 b 446 98 599 135 533 98 b 254 302 329 98 254 178 l 254 336 l 749 336 l 749 416 b 439 753 749 626 632 753 b 120 431 247 753 120 625 l 120 318 b 446 -14 120 108 239 -14 b 747 195 606 -14 728 71 z "},"è":{"ha":859,"x_min":0,"x_max":0,"o":"m 437 642 b 616 431 549 642 616 563 l 254 431 b 437 642 254 564 323 642 z m 617 195 b 446 98 599 135 533 98 b 254 302 329 98 254 178 l 254 336 l 749 336 l 749 416 b 439 753 749 626 632 753 b 120 431 247 753 120 625 l 120 318 b 446 -14 120 108 239 -14 b 747 195 606 -14 728 71 z m 524 879 l 362 1112 l 203 1112 l 385 879 z "},"ȅ":{"ha":859,"x_min":0,"x_max":0,"o":"m 494 1112 l 352 1112 l 516 879 l 642 879 z m 222 1112 l 81 1112 l 245 879 l 370 879 z m 617 195 b 446 98 599 135 533 98 b 254 302 329 98 254 178 l 254 336 l 749 336 l 749 416 b 439 753 749 626 632 753 b 120 431 247 753 120 625 l 120 318 b 446 -14 120 108 239 -14 b 747 195 606 -14 728 71 z m 254 431 b 437 642 254 564 323 642 b 616 431 549 642 616 563 z "},"é":{"ha":859,"x_min":0,"x_max":0,"o":"m 498 879 l 681 1112 l 522 1112 l 359 879 z m 617 195 b 446 98 599 135 533 98 b 254 302 329 98 254 178 l 254 336 l 749 336 l 749 416 b 439 753 749 626 632 753 b 120 431 247 753 120 625 l 120 318 b 446 -14 120 108 239 -14 b 747 195 606 -14 728 71 z m 254 431 b 437 642 254 564 323 642 b 616 431 549 642 616 563 z "},"ê":{"ha":859,"x_min":0,"x_max":0,"o":"m 437 642 b 616 431 549 642 616 563 l 254 431 b 437 642 254 564 323 642 z m 617 195 b 446 98 599 135 533 98 b 254 302 329 98 254 178 l 254 336 l 749 336 l 749 416 b 439 753 749 626 632 753 b 120 431 247 753 120 625 l 120 318 b 446 -14 120 108 239 -14 b 747 195 606 -14 728 71 z m 358 1102 l 174 867 l 318 867 l 429 1018 l 440 1018 l 551 867 l 696 867 l 511 1102 z "},"ể":{"ha":859,"x_min":0,"x_max":0,"o":"m 437 642 b 616 431 549 642 616 563 l 254 431 b 437 642 254 564 323 642 z m 617 195 b 446 98 599 135 533 98 b 254 302 329 98 254 178 l 254 336 l 749 336 l 749 416 b 439 753 749 626 632 753 b 120 431 247 753 120 625 l 120 318 b 446 -14 120 108 239 -14 b 747 195 606 -14 728 71 z m 358 1102 l 174 867 l 319 867 l 429 1018 l 440 1018 l 551 867 l 696 867 l 511 1102 z m 526 1256 b 600 1272 546 1266 574 1272 b 671 1217 643 1272 671 1250 b 602 1145 671 1188 643 1160 l 652 1081 b 770 1230 726 1109 770 1164 b 625 1358 770 1307 711 1358 b 526 1340 587 1358 550 1350 z "},"ề":{"ha":859,"x_min":0,"x_max":0,"o":"m 437 642 b 616 431 549 642 616 563 l 254 431 b 437 642 254 564 323 642 z m 617 195 b 446 98 599 135 533 98 b 254 302 329 98 254 178 l 254 336 l 749 336 l 749 416 b 439 753 749 626 632 753 b 120 431 247 753 120 625 l 120 318 b 446 -14 120 108 239 -14 b 747 195 606 -14 728 71 z m 757 1122 l 620 1337 l 478 1337 l 635 1122 z m 358 1102 l 174 867 l 319 867 l 429 1018 l 440 1018 l 551 867 l 696 867 l 511 1102 z "},"ễ":{"ha":859,"x_min":0,"x_max":0,"o":"m 437 642 b 616 431 549 642 616 563 l 254 431 b 437 642 254 564 323 642 z m 617 195 b 446 98 599 135 533 98 b 254 302 329 98 254 178 l 254 336 l 749 336 l 749 416 b 439 753 749 626 632 753 b 120 431 247 753 120 625 l 120 318 b 446 -14 120 108 239 -14 b 747 195 606 -14 728 71 z m 340 1263 b 536 1161 399 1263 427 1161 b 691 1359 633 1161 691 1236 l 589 1359 b 530 1259 589 1288 572 1259 b 334 1360 471 1259 443 1360 b 178 1162 237 1360 178 1286 l 280 1162 b 340 1263 281 1234 298 1263 z m 358 1102 l 174 867 l 319 867 l 429 1018 l 440 1018 l 551 867 l 696 867 l 511 1102 z "},"ệ":{"ha":859,"x_min":0,"x_max":0,"o":"m 437 642 b 616 431 549 642 616 563 l 254 431 b 437 642 254 564 323 642 z m 617 195 b 446 98 599 135 533 98 b 254 302 329 98 254 178 l 254 336 l 749 336 l 749 416 b 439 753 749 626 632 753 b 120 431 247 753 120 625 l 120 318 b 446 -14 120 108 239 -14 b 747 195 606 -14 728 71 z m 358 1102 l 174 867 l 319 867 l 429 1018 l 440 1018 l 551 867 l 696 867 l 511 1102 z m 435 -311 b 527 -217 485 -311 527 -268 b 435 -123 527 -166 485 -123 b 343 -217 385 -123 343 -166 b 435 -311 343 -268 385 -311 z "},"ế":{"ha":859,"x_min":0,"x_max":0,"o":"m 437 642 b 616 431 549 642 616 563 l 254 431 b 437 642 254 564 323 642 z m 617 195 b 446 98 599 135 533 98 b 254 302 329 98 254 178 l 254 336 l 749 336 l 749 416 b 439 753 749 626 632 753 b 120 431 247 753 120 625 l 120 318 b 446 -14 120 108 239 -14 b 747 195 606 -14 728 71 z m 574 1122 l 696 1122 l 853 1337 l 711 1337 z m 358 1102 l 174 867 l 319 867 l 429 1018 l 440 1018 l 551 867 l 696 867 l 511 1102 z "},"ë":{"ha":859,"x_min":0,"x_max":0,"o":"m 437 642 b 616 431 549 642 616 563 l 254 431 b 437 642 254 564 323 642 z m 617 195 b 446 98 599 135 533 98 b 254 302 329 98 254 178 l 254 336 l 749 336 l 749 416 b 439 753 749 626 632 753 b 120 431 247 753 120 625 l 120 318 b 446 -14 120 108 239 -14 b 747 195 606 -14 728 71 z m 292 892 b 377 979 338 892 377 932 b 292 1067 377 1027 338 1067 b 206 979 246 1067 206 1027 b 292 892 206 932 246 892 z m 577 892 b 663 979 623 892 663 932 b 577 1067 663 1027 623 1067 b 492 979 531 1067 492 1027 b 577 892 492 932 531 892 z "},"ẹ":{"ha":859,"x_min":0,"x_max":0,"o":"m 437 642 b 616 431 549 642 616 563 l 254 431 b 437 642 254 564 323 642 z m 617 195 b 446 98 599 135 533 98 b 254 302 329 98 254 178 l 254 336 l 749 336 l 749 416 b 439 753 749 626 632 753 b 120 431 247 753 120 625 l 120 318 b 446 -14 120 108 239 -14 b 747 195 606 -14 728 71 z m 435 -311 b 527 -217 485 -311 527 -268 b 435 -123 527 -166 485 -123 b 343 -217 385 -123 343 -166 b 435 -311 343 -268 385 -311 z "},"ȇ":{"ha":859,"x_min":0,"x_max":0,"o":"m 683 854 b 435 1082 683 987 589 1082 b 186 854 281 1082 186 987 l 300 854 b 435 985 300 930 349 985 b 570 854 522 985 570 930 z m 617 195 b 446 98 599 135 533 98 b 254 302 329 98 254 178 l 254 336 l 749 336 l 749 416 b 439 753 749 626 632 753 b 120 431 247 753 120 625 l 120 318 b 446 -14 120 108 239 -14 b 747 195 606 -14 728 71 z m 254 431 b 437 642 254 564 323 642 b 616 431 549 642 616 563 z "},"ẻ":{"ha":859,"x_min":0,"x_max":0,"o":"m 437 642 b 616 431 549 642 616 563 l 254 431 b 437 642 254 564 323 642 z m 617 195 b 446 98 599 135 533 98 b 254 302 329 98 254 178 l 254 336 l 749 336 l 749 416 b 439 753 749 626 632 753 b 120 431 247 753 120 625 l 120 318 b 446 -14 120 108 239 -14 b 747 195 606 -14 728 71 z m 317 1018 b 393 1034 338 1028 366 1034 b 463 980 435 1034 463 1013 b 394 907 463 950 435 922 l 444 843 b 562 992 518 871 562 926 b 417 1121 562 1069 503 1121 b 317 1102 379 1121 342 1113 z "},"ě":{"ha":859,"x_min":0,"x_max":0,"o":"m 511 879 l 696 1114 l 551 1114 l 440 963 l 429 963 l 318 1114 l 174 1114 l 358 879 z m 617 195 b 446 98 599 135 533 98 b 254 302 329 98 254 178 l 254 336 l 749 336 l 749 416 b 439 753 749 626 632 753 b 120 431 247 753 120 625 l 120 318 b 446 -14 120 108 239 -14 b 747 195 606 -14 728 71 z m 254 431 b 437 642 254 564 323 642 b 616 431 549 642 616 563 z "},"ē":{"ha":859,"x_min":0,"x_max":0,"o":"m 437 642 b 616 431 549 642 616 563 l 254 431 b 437 642 254 564 323 642 z m 617 195 b 446 98 599 135 533 98 b 254 302 329 98 254 178 l 254 336 l 749 336 l 749 416 b 439 753 749 626 632 753 b 120 431 247 753 120 625 l 120 318 b 446 -14 120 108 239 -14 b 747 195 606 -14 728 71 z m 665 926 l 665 1029 l 205 1029 l 205 926 z "},"ḕ":{"ha":859,"x_min":0,"x_max":0,"o":"m 437 642 b 616 431 549 642 616 563 l 254 431 b 437 642 254 564 323 642 z m 617 195 b 446 98 599 135 533 98 b 254 302 329 98 254 178 l 254 336 l 749 336 l 749 416 b 439 753 749 626 632 753 b 120 431 247 753 120 625 l 120 318 b 446 -14 120 108 239 -14 b 747 195 606 -14 728 71 z m 509 1131 l 366 1337 l 224 1337 l 387 1131 z m 665 926 l 665 1028 l 205 1028 l 205 926 z "},"ḗ":{"ha":859,"x_min":0,"x_max":0,"o":"m 665 926 l 665 1028 l 205 1028 l 205 926 z m 483 1131 l 646 1337 l 504 1337 l 361 1131 z m 617 195 b 446 98 599 135 533 98 b 254 302 329 98 254 178 l 254 336 l 749 336 l 749 416 b 439 753 749 626 632 753 b 120 431 247 753 120 625 l 120 318 b 446 -14 120 108 239 -14 b 747 195 606 -14 728 71 z m 254 431 b 437 642 254 564 323 642 b 616 431 549 642 616 563 z "},"ẽ":{"ha":859,"x_min":0,"x_max":0,"o":"m 437 642 b 616 431 549 642 616 563 l 254 431 b 437 642 254 564 323 642 z m 617 195 b 446 98 599 135 533 98 b 254 302 329 98 254 178 l 254 336 l 749 336 l 749 416 b 439 753 749 626 632 753 b 120 431 247 753 120 625 l 120 318 b 446 -14 120 108 239 -14 b 747 195 606 -14 728 71 z m 340 962 b 532 858 397 962 427 858 b 691 1061 629 858 691 937 l 587 1061 b 530 960 587 992 569 960 b 338 1063 473 960 443 1063 b 179 859 240 1063 179 985 l 283 859 b 340 962 283 929 301 962 z "},"ḙ":{"ha":859,"x_min":0,"x_max":0,"o":"m 437 642 b 616 431 549 642 616 563 l 254 431 b 437 642 254 564 323 642 z m 617 195 b 446 98 599 135 533 98 b 254 302 329 98 254 178 l 254 336 l 749 336 l 749 416 b 439 753 749 626 632 753 b 120 431 247 753 120 625 l 120 318 b 446 -14 120 108 239 -14 b 747 195 606 -14 728 71 z m 358 -111 l 174 -346 l 319 -346 l 429 -196 l 440 -196 l 551 -346 l 696 -346 l 511 -111 z "},"ĕ":{"ha":859,"x_min":0,"x_max":0,"o":"m 437 642 b 616 431 549 642 616 563 l 254 431 b 437 642 254 564 323 642 z m 617 195 b 446 98 599 135 533 98 b 254 302 329 98 254 178 l 254 336 l 749 336 l 749 416 b 439 753 749 626 632 753 b 120 431 247 753 120 625 l 120 318 b 446 -14 120 108 239 -14 b 747 195 606 -14 728 71 z m 435 956 b 300 1086 349 956 300 1010 l 186 1086 b 435 858 186 953 281 858 b 683 1086 589 858 683 953 l 570 1086 b 435 956 570 1010 522 956 z "},"ḛ":{"ha":859,"x_min":0,"x_max":0,"o":"m 437 642 b 616 431 549 642 616 563 l 254 431 b 437 642 254 564 323 642 z m 617 195 b 446 98 599 135 533 98 b 254 302 329 98 254 178 l 254 336 l 749 336 l 749 416 b 439 753 749 626 632 753 b 120 431 247 753 120 625 l 120 318 b 446 -14 120 108 239 -14 b 747 195 606 -14 728 71 z m 347 -213 b 538 -317 404 -213 434 -317 b 698 -114 636 -317 698 -239 l 594 -114 b 536 -216 594 -184 576 -216 b 345 -112 479 -216 450 -112 b 186 -317 247 -112 186 -191 l 290 -317 b 347 -213 290 -246 308 -213 z "},"ė":{"ha":859,"x_min":0,"x_max":0,"o":"m 437 642 b 616 431 549 642 616 563 l 254 431 b 437 642 254 564 323 642 z m 617 195 b 446 98 599 135 533 98 b 254 302 329 98 254 178 l 254 336 l 749 336 l 749 416 b 439 753 749 626 632 753 b 120 431 247 753 120 625 l 120 318 b 446 -14 120 108 239 -14 b 747 195 606 -14 728 71 z m 435 882 b 527 976 485 882 527 925 b 435 1069 527 1027 485 1069 b 343 976 385 1069 343 1027 b 435 882 343 925 385 882 z "},"ȩ":{"ha":859,"x_min":0,"x_max":0,"o":"m 254 431 b 437 642 254 564 323 642 b 616 431 549 642 616 563 z m 749 336 l 749 416 b 439 753 749 626 632 753 b 120 431 247 753 120 625 l 120 318 b 389 -11 120 128 217 10 l 354 -96 l 354 -160 l 393 -160 b 487 -203 460 -160 487 -173 b 410 -249 487 -233 460 -249 b 331 -239 385 -249 346 -244 l 331 -319 b 422 -331 361 -327 387 -331 b 588 -199 524 -331 588 -280 b 456 -85 588 -127 542 -87 l 486 -12 b 747 195 625 1 729 82 l 617 195 b 446 98 599 135 533 98 b 254 302 329 98 254 178 l 254 336 z "},"ḝ":{"ha":859,"x_min":0,"x_max":0,"o":"m 570 1082 b 435 951 570 1006 522 951 b 300 1082 349 951 300 1006 l 186 1082 b 435 854 186 949 281 854 b 683 1082 589 854 683 949 z m 254 431 b 437 642 254 564 323 642 b 616 431 549 642 616 563 z m 749 336 l 749 416 b 439 753 749 626 632 753 b 120 431 247 753 120 625 l 120 318 b 389 -11 120 128 217 10 l 354 -96 l 354 -160 l 393 -160 b 487 -203 460 -160 487 -173 b 410 -249 487 -233 460 -249 b 331 -239 385 -249 346 -244 l 331 -319 b 422 -331 361 -327 387 -331 b 588 -199 524 -331 588 -280 b 456 -85 588 -127 542 -87 l 486 -12 b 747 195 625 1 729 82 l 617 195 b 446 98 599 135 533 98 b 254 302 329 98 254 178 l 254 336 z "},"ę":{"ha":859,"x_min":0,"x_max":0,"o":"m 574 -297 b 650 -286 602 -297 629 -293 l 650 -197 b 604 -202 641 -200 623 -202 b 521 -130 553 -202 521 -174 b 638 28 521 -85 551 -43 b 747 195 701 81 739 140 l 617 195 b 446 98 599 135 533 98 b 254 302 329 98 254 178 l 254 336 l 749 336 l 749 416 b 439 753 749 626 632 753 b 120 431 247 753 120 625 l 120 318 b 433 -14 120 109 236 -14 b 498 -5 456 -14 483 -10 l 498 -15 b 406 -158 439 -50 406 -102 b 574 -297 406 -239 475 -297 z m 437 642 b 616 431 549 642 616 563 l 254 431 b 437 642 254 564 323 642 z "},"f":{"ha":859,"x_min":0,"x_max":0,"o":"m 315 0 l 451 0 l 451 623 l 767 623 l 767 735 l 449 735 l 449 809 b 591 913 449 878 498 913 b 767 908 625 913 740 911 l 767 1013 b 588 1019 747 1017 623 1019 b 315 804 401 1019 315 954 l 315 735 l 117 735 l 117 623 l 315 623 z "},"ḟ":{"ha":859,"x_min":0,"x_max":0,"o":"m 315 0 l 451 0 l 451 623 l 767 623 l 767 735 l 449 735 l 449 809 b 591 913 449 878 498 913 b 767 908 625 913 740 911 l 767 1013 b 588 1019 747 1017 623 1019 b 315 804 401 1019 315 954 l 315 735 l 117 735 l 117 623 l 315 623 z m 138 878 b 230 971 188 878 230 920 b 138 1065 230 1023 188 1065 b 46 971 88 1065 46 1023 b 138 878 46 920 88 878 z "},"g":{"ha":859,"x_min":0,"x_max":0,"o":"m 224 323 l 224 426 b 412 633 224 552 297 633 b 600 426 526 633 600 553 l 600 323 b 412 116 600 197 526 116 b 224 323 297 116 224 197 z m 408 -277 b 736 1 613 -277 736 -173 l 736 739 l 602 739 l 602 622 l 589 622 b 370 751 559 703 477 751 b 85 437 196 751 85 630 l 85 311 b 366 -4 85 118 195 -4 b 587 125 474 -4 557 45 l 600 125 l 600 1 b 410 -171 600 -110 532 -171 b 233 -76 317 -171 247 -134 l 98 -76 b 408 -277 113 -201 231 -277 z "},"ǵ":{"ha":859,"x_min":0,"x_max":0,"o":"m 474 879 l 657 1112 l 498 1112 l 335 879 z m 736 739 l 602 739 l 602 622 l 589 622 b 370 751 559 703 477 751 b 85 437 196 751 85 630 l 85 311 b 366 -4 85 118 195 -4 b 587 125 474 -4 557 45 l 600 125 l 600 1 b 410 -171 600 -110 532 -171 b 233 -76 317 -171 247 -134 l 98 -76 b 408 -277 113 -201 231 -277 b 736 1 613 -277 736 -173 z m 224 426 b 412 633 224 552 297 633 b 600 426 526 633 600 553 l 600 323 b 412 116 600 197 526 116 b 224 323 297 116 224 197 z "},"ǧ":{"ha":859,"x_min":0,"x_max":0,"o":"m 488 879 l 672 1114 l 527 1114 l 416 963 l 406 963 l 294 1114 l 150 1114 l 334 879 z m 736 739 l 602 739 l 602 622 l 589 622 b 370 751 559 703 477 751 b 85 437 196 751 85 630 l 85 311 b 366 -4 85 118 195 -4 b 587 125 474 -4 557 45 l 600 125 l 600 1 b 410 -171 600 -110 532 -171 b 233 -76 317 -171 247 -134 l 98 -76 b 408 -277 113 -201 231 -277 b 736 1 613 -277 736 -173 z m 224 426 b 412 633 224 552 297 633 b 600 426 526 633 600 553 l 600 323 b 412 116 600 197 526 116 b 224 323 297 116 224 197 z "},"ĝ":{"ha":859,"x_min":0,"x_max":0,"o":"m 224 323 l 224 426 b 412 633 224 552 297 633 b 600 426 526 633 600 553 l 600 323 b 412 116 600 197 526 116 b 224 323 297 116 224 197 z m 408 -277 b 736 1 613 -277 736 -173 l 736 739 l 602 739 l 602 622 l 589 622 b 370 751 559 703 477 751 b 85 437 196 751 85 630 l 85 311 b 366 -4 85 118 195 -4 b 587 125 474 -4 557 45 l 600 125 l 600 1 b 410 -171 600 -110 532 -171 b 233 -76 317 -171 247 -134 l 98 -76 b 408 -277 113 -201 231 -277 z m 334 1102 l 149 867 l 294 867 l 405 1018 l 416 1018 l 527 867 l 671 867 l 487 1102 z "},"ğ":{"ha":859,"x_min":0,"x_max":0,"o":"m 224 323 l 224 426 b 412 633 224 552 297 633 b 600 426 526 633 600 553 l 600 323 b 412 116 600 197 526 116 b 224 323 297 116 224 197 z m 408 -277 b 736 1 613 -277 736 -173 l 736 739 l 602 739 l 602 622 l 589 622 b 370 751 559 703 477 751 b 85 437 196 751 85 630 l 85 311 b 366 -4 85 118 195 -4 b 587 125 474 -4 557 45 l 600 125 l 600 1 b 410 -171 600 -110 532 -171 b 233 -76 317 -171 247 -134 l 98 -76 b 408 -277 113 -201 231 -277 z m 411 956 b 276 1086 325 956 277 1010 l 163 1086 b 411 858 163 953 258 858 b 659 1086 564 858 659 953 l 546 1086 b 411 956 546 1010 497 956 z "},"ḡ":{"ha":859,"x_min":0,"x_max":0,"o":"m 224 323 l 224 426 b 412 633 224 552 297 633 b 600 426 526 633 600 553 l 600 323 b 412 116 600 197 526 116 b 224 323 297 116 224 197 z m 408 -277 b 736 1 613 -277 736 -173 l 736 739 l 602 739 l 602 622 l 589 622 b 370 751 559 703 477 751 b 85 437 196 751 85 630 l 85 311 b 366 -4 85 118 195 -4 b 587 125 474 -4 557 45 l 600 125 l 600 1 b 410 -171 600 -110 532 -171 b 233 -76 317 -171 247 -134 l 98 -76 b 408 -277 113 -201 231 -277 z m 640 926 l 640 1029 l 181 1029 l 181 926 z "},"ġ":{"ha":859,"x_min":0,"x_max":0,"o":"m 224 323 l 224 426 b 412 633 224 552 297 633 b 600 426 526 633 600 553 l 600 323 b 412 116 600 197 526 116 b 224 323 297 116 224 197 z m 408 -277 b 736 1 613 -277 736 -173 l 736 739 l 602 739 l 602 622 l 589 622 b 370 751 559 703 477 751 b 85 437 196 751 85 630 l 85 311 b 366 -4 85 118 195 -4 b 587 125 474 -4 557 45 l 600 125 l 600 1 b 410 -171 600 -110 532 -171 b 233 -76 317 -171 247 -134 l 98 -76 b 408 -277 113 -201 231 -277 z m 411 882 b 503 976 460 882 503 925 b 411 1069 503 1027 460 1069 b 319 976 361 1069 319 1027 b 411 882 319 925 361 882 z "},"ģ":{"ha":859,"x_min":0,"x_max":0,"o":"m 224 323 l 224 426 b 412 633 224 552 297 633 b 600 426 526 633 600 553 l 600 323 b 412 116 600 197 526 116 b 224 323 297 116 224 197 z m 408 -277 b 736 1 613 -277 736 -173 l 736 739 l 602 739 l 602 622 l 589 622 b 370 751 559 703 477 751 b 85 437 196 751 85 630 l 85 311 b 366 -4 85 118 195 -4 b 587 125 474 -4 557 45 l 600 125 l 600 1 b 410 -171 600 -110 532 -171 b 233 -76 317 -171 247 -134 l 98 -76 b 408 -277 113 -201 231 -277 z m 435 1123 l 340 880 l 479 880 l 559 1123 z "},"h":{"ha":859,"x_min":0,"x_max":0,"o":"m 117 0 l 254 0 l 254 432 b 444 631 254 551 330 631 b 606 445 553 631 606 570 l 606 0 l 741 0 l 741 478 b 493 752 741 655 654 752 b 259 610 381 752 297 701 l 249 610 l 249 1027 l 117 1027 z "},"ḧ":{"ha":859,"x_min":0,"x_max":0,"o":"m 117 0 l 254 0 l 254 432 b 444 631 254 551 330 631 b 606 445 553 631 606 570 l 606 0 l 741 0 l 741 478 b 493 752 741 655 654 752 b 259 610 381 752 297 701 l 249 610 l 249 1027 l 117 1027 z m 45 1162 b 130 1250 91 1162 130 1202 b 45 1338 130 1298 91 1338 b -41 1250 -1 1338 -41 1298 b 45 1162 -41 1202 -1 1162 z m 330 1162 b 416 1250 376 1162 416 1202 b 330 1338 416 1298 376 1338 b 245 1250 284 1338 245 1298 b 330 1162 245 1202 284 1162 z "},"ȟ":{"ha":859,"x_min":0,"x_max":0,"o":"m 441 1352 l 306 1352 l 189 1217 l 180 1217 l 63 1352 l -73 1352 l 121 1137 l 248 1137 z m 117 0 l 254 0 l 254 432 b 444 631 254 551 330 631 b 606 445 553 631 606 570 l 606 0 l 741 0 l 741 478 b 493 752 741 655 654 752 b 259 610 381 752 297 701 l 249 610 l 249 1027 l 117 1027 z "},"ĥ":{"ha":859,"x_min":0,"x_max":0,"o":"m 117 0 l 254 0 l 254 432 b 444 631 254 551 330 631 b 606 445 553 631 606 570 l 606 0 l 741 0 l 741 478 b 493 752 741 655 654 752 b 259 610 381 752 297 701 l 249 610 l 249 1027 l 117 1027 z m 114 1331 l -71 1097 l 74 1097 l 185 1246 l 196 1246 l 307 1097 l 452 1097 l 267 1331 z "},"ḥ":{"ha":859,"x_min":0,"x_max":0,"o":"m 117 0 l 254 0 l 254 432 b 444 631 254 551 330 631 b 606 445 553 631 606 570 l 606 0 l 741 0 l 741 478 b 493 752 741 655 654 752 b 259 610 381 752 297 701 l 249 610 l 249 1027 l 117 1027 z m 429 -311 b 522 -217 479 -311 522 -268 b 429 -123 522 -166 479 -123 b 338 -217 380 -123 338 -166 b 429 -311 338 -268 380 -311 z "},"ḣ":{"ha":859,"x_min":0,"x_max":0,"o":"m 117 0 l 254 0 l 254 432 b 444 631 254 551 330 631 b 606 445 553 631 606 570 l 606 0 l 741 0 l 741 478 b 493 752 741 655 654 752 b 259 610 381 752 297 701 l 249 610 l 249 1027 l 117 1027 z m 181 1153 b 273 1246 231 1153 273 1196 b 181 1340 273 1297 231 1340 b 90 1246 132 1340 90 1297 b 181 1153 90 1196 132 1153 z "},"ḫ":{"ha":859,"x_min":0,"x_max":0,"o":"m 117 0 l 254 0 l 254 432 b 444 631 254 551 330 631 b 606 445 553 631 606 570 l 606 0 l 741 0 l 741 478 b 493 752 741 655 654 752 b 259 610 381 752 297 701 l 249 610 l 249 1027 l 117 1027 z m 429 -221 b 295 -90 344 -221 295 -166 l 181 -90 b 429 -319 181 -224 276 -319 b 677 -90 583 -319 677 -224 l 564 -90 b 429 -221 564 -166 516 -221 z "},"ḩ":{"ha":859,"x_min":0,"x_max":0,"o":"m 164 0 l 123 -98 l 123 -158 l 161 -158 b 259 -206 230 -158 259 -173 b 175 -258 259 -239 229 -258 b 92 -247 147 -258 109 -253 l 92 -319 b 190 -332 117 -328 151 -332 b 357 -202 295 -332 357 -281 b 216 -88 357 -132 304 -89 l 254 0 l 254 432 b 444 631 254 551 330 631 b 606 445 553 631 606 570 l 606 0 l 741 0 l 741 478 b 493 752 741 655 654 752 b 259 610 381 752 297 701 l 249 610 l 249 1027 l 117 1027 l 117 0 z "},"ħ":{"ha":859,"x_min":0,"x_max":0,"o":"m 249 610 l 249 860 l 421 860 l 421 942 l 249 942 l 249 1027 l 117 1027 l 117 942 l 14 942 l 14 860 l 117 860 l 117 0 l 254 0 l 254 432 b 444 631 254 551 330 631 b 606 445 553 631 606 570 l 606 0 l 741 0 l 741 478 b 493 752 741 655 654 752 b 259 610 381 752 297 701 z "},"ẖ":{"ha":859,"x_min":0,"x_max":0,"o":"m 117 0 l 254 0 l 254 432 b 444 631 254 551 330 631 b 606 445 553 631 606 570 l 606 0 l 741 0 l 741 478 b 493 752 741 655 654 752 b 259 610 381 752 297 701 l 249 610 l 249 1027 l 117 1027 z m 659 -272 l 659 -169 l 200 -169 l 200 -272 z "},"i":{"ha":859,"x_min":0,"x_max":0,"o":"m 441 912 b 547 1013 503 912 547 954 b 441 1114 547 1072 503 1114 b 336 1013 381 1114 336 1072 b 441 912 336 954 381 912 z m 753 0 l 753 110 l 515 110 l 515 739 l 138 739 l 138 629 l 382 629 l 382 110 l 133 110 l 133 0 z "},"ì":{"ha":859,"x_min":0,"x_max":0,"o":"m 753 0 l 753 110 l 515 110 l 515 739 l 138 739 l 138 629 l 382 629 l 382 110 l 133 110 l 133 0 z m 533 875 l 370 1107 l 212 1107 l 394 875 z "},"ȉ":{"ha":859,"x_min":0,"x_max":0,"o":"m 502 1107 l 360 1107 l 524 875 l 650 875 z m 231 1107 l 89 1107 l 253 875 l 379 875 z m 753 0 l 753 110 l 515 110 l 515 739 l 138 739 l 138 629 l 382 629 l 382 110 l 133 110 l 133 0 z "},"í":{"ha":859,"x_min":0,"x_max":0,"o":"m 507 875 l 690 1107 l 530 1107 l 368 875 z m 753 0 l 753 110 l 515 110 l 515 739 l 138 739 l 138 629 l 382 629 l 382 110 l 133 110 l 133 0 z "},"î":{"ha":859,"x_min":0,"x_max":0,"o":"m 753 0 l 753 110 l 515 110 l 515 739 l 138 739 l 138 629 l 382 629 l 382 110 l 133 110 l 133 0 z m 366 1097 l 182 863 l 327 863 l 437 1013 l 448 1013 l 559 863 l 704 863 l 519 1097 z "},"ǐ":{"ha":859,"x_min":0,"x_max":0,"o":"m 520 875 l 705 1109 l 559 1109 l 449 959 l 438 959 l 327 1109 l 182 1109 l 367 875 z m 753 0 l 753 110 l 515 110 l 515 739 l 138 739 l 138 629 l 382 629 l 382 110 l 133 110 l 133 0 z "},"ï":{"ha":859,"x_min":0,"x_max":0,"o":"m 753 0 l 753 110 l 515 110 l 515 739 l 138 739 l 138 629 l 382 629 l 382 110 l 133 110 l 133 0 z m 300 887 b 386 975 346 887 386 928 b 300 1063 386 1023 346 1063 b 215 975 254 1063 215 1023 b 300 887 215 928 254 887 z m 585 887 b 671 975 631 887 671 928 b 585 1063 671 1023 631 1063 b 500 975 540 1063 500 1023 b 585 887 500 928 540 887 z "},"ḯ":{"ha":859,"x_min":0,"x_max":0,"o":"m 753 0 l 753 110 l 515 110 l 515 739 l 138 739 l 138 629 l 382 629 l 382 110 l 133 110 l 133 0 z m 367 1120 l 492 1120 l 656 1334 l 511 1334 z m 300 878 b 386 965 347 878 386 918 b 300 1053 386 1013 347 1053 b 215 965 255 1053 215 1013 b 300 878 215 918 255 878 z m 586 878 b 671 965 632 878 671 918 b 586 1053 671 1013 632 1053 b 500 965 541 1053 500 1013 b 586 878 500 918 541 878 z "},"ĭ":{"ha":859,"x_min":0,"x_max":0,"o":"m 753 0 l 753 110 l 515 110 l 515 739 l 138 739 l 138 629 l 382 629 l 382 110 l 133 110 l 133 0 z m 446 944 b 311 1075 359 944 311 999 l 197 1075 b 446 847 197 942 292 847 b 694 1075 599 847 694 942 l 581 1075 b 446 944 581 999 532 944 z "},"ị":{"ha":859,"x_min":0,"x_max":0,"o":"m 441 912 b 547 1013 503 912 547 954 b 441 1114 547 1072 503 1114 b 336 1013 381 1114 336 1072 b 441 912 336 954 381 912 z m 753 0 l 753 110 l 515 110 l 515 739 l 138 739 l 138 629 l 382 629 l 382 110 l 133 110 l 133 0 z m 429 -311 b 522 -217 479 -311 522 -268 b 429 -123 522 -166 479 -123 b 337 -217 380 -123 337 -166 b 429 -311 337 -268 380 -311 z "},"ȋ":{"ha":859,"x_min":0,"x_max":0,"o":"m 692 849 b 444 1078 692 983 597 1078 b 195 849 290 1078 195 983 l 309 849 b 444 981 309 926 357 981 b 578 849 530 981 578 926 z m 753 0 l 753 110 l 515 110 l 515 739 l 138 739 l 138 629 l 382 629 l 382 110 l 133 110 l 133 0 z "},"ī":{"ha":859,"x_min":0,"x_max":0,"o":"m 753 0 l 753 110 l 515 110 l 515 739 l 138 739 l 138 629 l 382 629 l 382 110 l 133 110 l 133 0 z m 673 922 l 673 1025 l 214 1025 l 214 922 z "},"ḭ":{"ha":859,"x_min":0,"x_max":0,"o":"m 441 912 b 547 1013 503 912 547 954 b 441 1114 547 1072 503 1114 b 336 1013 381 1114 336 1072 b 441 912 336 954 381 912 z m 753 0 l 753 110 l 515 110 l 515 739 l 138 739 l 138 629 l 382 629 l 382 110 l 133 110 l 133 0 z m 335 -213 b 526 -317 392 -213 422 -317 b 686 -114 624 -317 686 -239 l 582 -114 b 524 -216 581 -184 564 -216 b 333 -112 467 -216 437 -112 b 174 -317 235 -112 174 -191 l 277 -317 b 335 -213 277 -246 296 -213 z "},"ỉ":{"ha":859,"x_min":0,"x_max":0,"o":"m 753 0 l 753 110 l 515 110 l 515 739 l 138 739 l 138 629 l 382 629 l 382 110 l 133 110 l 133 0 z m 326 1014 b 401 1030 347 1024 374 1030 b 471 976 444 1030 471 1008 b 402 903 471 946 443 918 l 452 839 b 571 988 526 867 571 922 b 426 1117 571 1065 511 1117 b 326 1098 388 1117 350 1108 z "},"ĩ":{"ha":859,"x_min":0,"x_max":0,"o":"m 753 0 l 753 110 l 515 110 l 515 739 l 138 739 l 138 629 l 382 629 l 382 110 l 133 110 l 133 0 z m 349 962 b 540 857 406 962 435 857 b 699 1061 637 857 699 936 l 595 1061 b 538 960 595 991 577 960 b 347 1063 481 960 451 1063 b 187 858 248 1063 187 984 l 291 858 b 349 962 291 928 309 962 z "},"į":{"ha":859,"x_min":0,"x_max":0,"o":"m 441 912 b 547 1013 503 912 547 954 b 441 1114 547 1072 503 1114 b 336 1013 381 1114 336 1072 b 441 912 336 954 381 912 z m 753 110 l 515 110 l 515 739 l 138 739 l 138 629 l 382 629 l 382 110 l 133 110 l 133 0 l 646 0 b 524 -174 564 -47 524 -104 b 664 -298 524 -250 578 -298 b 753 -286 704 -298 738 -294 l 753 -192 b 704 -198 743 -195 722 -198 b 632 -136 657 -198 632 -177 b 753 0 632 -85 676 -37 z "},"j":{"ha":859,"x_min":0,"x_max":0,"o":"m 599 739 l 138 739 l 138 629 l 466 629 l 466 20 b 302 -109 466 -77 426 -109 b 124 -105 264 -109 153 -108 l 124 -224 b 307 -229 164 -227 264 -229 b 599 11 516 -229 599 -161 z m 523 912 b 627 1013 583 912 627 954 b 523 1114 627 1072 583 1114 b 418 1013 462 1114 418 1072 b 523 912 418 954 462 912 z "},"ĵ":{"ha":859,"x_min":0,"x_max":0,"o":"m 599 739 l 138 739 l 138 629 l 466 629 l 466 20 b 302 -109 466 -77 426 -109 b 124 -105 264 -109 153 -108 l 124 -224 b 307 -229 164 -227 264 -229 b 599 11 516 -229 599 -161 z m 456 1102 l 271 867 l 416 867 l 527 1018 l 538 1018 l 649 867 l 793 867 l 609 1102 z "},"k":{"ha":859,"x_min":0,"x_max":0,"o":"m 798 0 l 496 442 l 779 739 l 617 739 l 315 417 l 304 417 l 304 1027 l 169 1027 l 169 0 l 304 0 l 304 262 l 397 353 l 638 0 z "},"ḱ":{"ha":859,"x_min":0,"x_max":0,"o":"m 517 1348 l 359 1348 l 160 1140 l 301 1140 z m 798 0 l 496 442 l 779 739 l 617 739 l 315 417 l 304 417 l 304 1027 l 169 1027 l 169 0 l 304 0 l 304 262 l 397 353 l 638 0 z "},"ǩ":{"ha":859,"x_min":0,"x_max":0,"o":"m 300 1137 l 493 1352 l 358 1352 l 241 1217 l 231 1217 l 115 1352 l -20 1352 l 173 1137 z m 798 0 l 496 442 l 779 739 l 617 739 l 315 417 l 304 417 l 304 1027 l 169 1027 l 169 0 l 304 0 l 304 262 l 397 353 l 638 0 z "},"ḳ":{"ha":859,"x_min":0,"x_max":0,"o":"m 471 -123 b 378 -217 420 -123 378 -166 b 471 -311 378 -268 420 -311 b 562 -217 520 -311 562 -268 b 471 -123 562 -166 520 -123 z m 496 442 l 779 739 l 617 739 l 315 417 l 304 417 l 304 1027 l 169 1027 l 169 0 l 304 0 l 304 262 l 397 353 l 638 0 l 798 0 z "},"ḵ":{"ha":859,"x_min":0,"x_max":0,"o":"m 304 262 l 397 353 l 638 0 l 798 0 l 496 442 l 779 739 l 617 739 l 315 417 l 304 417 l 304 1027 l 169 1027 l 169 0 l 304 0 z m 254 -272 l 713 -272 l 713 -169 l 254 -169 z "},"ķ":{"ha":859,"x_min":0,"x_max":0,"o":"m 314 -335 l 437 -335 l 532 -92 l 393 -92 z m 496 442 l 779 739 l 617 739 l 315 417 l 304 417 l 304 1027 l 169 1027 l 169 0 l 304 0 l 304 262 l 397 353 l 638 0 l 798 0 z "},"l":{"ha":859,"x_min":0,"x_max":0,"o":"m 753 0 l 753 110 l 516 110 l 516 1027 l 138 1027 l 138 917 l 380 917 l 380 110 l 133 110 l 133 0 z "},"ĺ":{"ha":859,"x_min":0,"x_max":0,"o":"m 498 1162 l 680 1394 l 522 1394 l 359 1162 z m 753 0 l 753 110 l 516 110 l 516 1027 l 138 1027 l 138 917 l 380 917 l 380 110 l 133 110 l 133 0 z "},"ḽ":{"ha":859,"x_min":0,"x_max":0,"o":"m 753 0 l 753 110 l 516 110 l 516 1027 l 138 1027 l 138 917 l 380 917 l 380 110 l 133 110 l 133 0 z m 366 -111 l 182 -346 l 326 -346 l 437 -196 l 448 -196 l 559 -346 l 704 -346 l 519 -111 z "},"ḷ":{"ha":859,"x_min":0,"x_max":0,"o":"m 753 0 l 753 110 l 516 110 l 516 1027 l 138 1027 l 138 917 l 380 917 l 380 110 l 133 110 l 133 0 z m 443 -311 b 534 -217 492 -311 534 -268 b 443 -123 534 -166 492 -123 b 351 -217 393 -123 351 -166 b 443 -311 351 -268 393 -311 z "},"ḹ":{"ha":859,"x_min":0,"x_max":0,"o":"m 601 1191 l 601 1294 l 141 1294 l 141 1191 z m 753 0 l 753 110 l 516 110 l 516 1027 l 138 1027 l 138 917 l 380 917 l 380 110 l 133 110 l 133 0 z m 443 -311 b 534 -217 492 -311 534 -268 b 443 -123 534 -166 492 -123 b 351 -217 393 -123 351 -166 b 443 -311 351 -268 393 -311 z "},"ḻ":{"ha":859,"x_min":0,"x_max":0,"o":"m 753 0 l 753 110 l 516 110 l 516 1027 l 138 1027 l 138 917 l 380 917 l 380 110 l 133 110 l 133 0 z m 673 -272 l 673 -169 l 213 -169 l 213 -272 z "},"ļ":{"ha":859,"x_min":0,"x_max":0,"o":"m 753 0 l 753 110 l 516 110 l 516 1027 l 138 1027 l 138 917 l 380 917 l 380 110 l 133 110 l 133 0 z m 420 -335 l 514 -92 l 375 -92 l 296 -335 z "},"ľ":{"ha":859,"x_min":0,"x_max":0,"o":"m 672 1027 l 672 710 l 767 710 l 795 1027 z m 753 0 l 753 110 l 516 110 l 516 1027 l 138 1027 l 138 917 l 380 917 l 380 110 l 133 110 l 133 0 z "},"ŀ":{"ha":859,"x_min":0,"x_max":0,"o":"m 753 0 l 753 110 l 516 110 l 516 1027 l 138 1027 l 138 917 l 380 917 l 380 110 l 133 110 l 133 0 z m 762 500 b 854 594 811 500 854 543 b 762 687 854 645 811 687 b 669 594 712 687 669 645 b 762 500 669 543 712 500 z "},"ł":{"ha":859,"x_min":0,"x_max":0,"o":"m 516 110 l 516 521 l 735 644 l 735 767 l 516 643 l 516 1027 l 138 1027 l 138 917 l 380 917 l 380 566 l 142 431 l 142 312 l 380 445 l 380 110 l 133 110 l 133 0 l 753 0 l 753 110 z "},"m":{"ha":859,"x_min":0,"x_max":0,"o":"m 791 553 b 639 753 791 684 739 753 b 491 635 566 753 509 708 l 476 635 b 343 753 460 710 412 753 b 203 632 273 753 220 709 l 188 632 l 188 739 l 68 739 l 68 0 l 187 0 l 187 501 b 284 633 187 583 224 633 b 371 511 340 633 371 591 l 371 0 l 490 0 l 490 501 b 585 633 490 583 526 633 b 671 511 640 633 671 590 l 671 0 l 791 0 z "},"ḿ":{"ha":859,"x_min":0,"x_max":0,"o":"m 522 879 l 705 1112 l 545 1112 l 383 879 z m 791 553 b 639 753 791 684 739 753 b 491 635 566 753 509 708 l 476 635 b 343 753 460 710 412 753 b 203 632 273 753 220 709 l 188 632 l 188 739 l 68 739 l 68 0 l 187 0 l 187 501 b 284 633 187 583 224 633 b 371 511 340 633 371 591 l 371 0 l 490 0 l 490 501 b 585 633 490 583 526 633 b 671 511 640 633 671 590 l 671 0 l 791 0 z "},"ṁ":{"ha":859,"x_min":0,"x_max":0,"o":"m 791 553 b 639 753 791 684 739 753 b 491 635 566 753 509 708 l 476 635 b 343 753 460 710 412 753 b 203 632 273 753 220 709 l 188 632 l 188 739 l 68 739 l 68 0 l 187 0 l 187 501 b 284 633 187 583 224 633 b 371 511 340 633 371 591 l 371 0 l 490 0 l 490 501 b 585 633 490 583 526 633 b 671 511 640 633 671 590 l 671 0 l 791 0 z m 429 878 b 522 971 479 878 522 920 b 429 1065 522 1023 479 1065 b 337 971 380 1065 337 1023 b 429 878 337 920 380 878 z "},"ṃ":{"ha":859,"x_min":0,"x_max":0,"o":"m 791 553 b 639 753 791 684 739 753 b 491 635 566 753 509 708 l 476 635 b 343 753 460 710 412 753 b 203 632 273 753 220 709 l 188 632 l 188 739 l 68 739 l 68 0 l 187 0 l 187 501 b 284 633 187 583 224 633 b 371 511 340 633 371 591 l 371 0 l 490 0 l 490 501 b 585 633 490 583 526 633 b 671 511 640 633 671 590 l 671 0 l 791 0 z m 429 -311 b 522 -217 479 -311 522 -268 b 429 -123 522 -166 479 -123 b 337 -217 380 -123 337 -166 b 429 -311 337 -268 380 -311 z "},"n":{"ha":859,"x_min":0,"x_max":0,"o":"m 119 0 l 254 0 l 254 433 b 444 632 254 553 330 632 b 604 446 553 632 604 572 l 604 0 l 740 0 l 740 479 b 492 753 740 657 653 753 b 260 610 382 753 298 702 l 250 610 l 250 739 l 119 739 z "},"ǹ":{"ha":859,"x_min":0,"x_max":0,"o":"m 119 0 l 254 0 l 254 433 b 444 632 254 553 330 632 b 604 446 553 632 604 572 l 604 0 l 740 0 l 740 479 b 492 753 740 657 653 753 b 260 610 382 753 298 702 l 250 610 l 250 739 l 119 739 z m 551 879 l 389 1112 l 230 1112 l 412 879 z "},"ń":{"ha":859,"x_min":0,"x_max":0,"o":"m 492 879 l 675 1112 l 516 1112 l 353 879 z m 119 0 l 254 0 l 254 433 b 444 632 254 553 330 632 b 604 446 553 632 604 572 l 604 0 l 740 0 l 740 479 b 492 753 740 657 653 753 b 260 610 382 753 298 702 l 250 610 l 250 739 l 119 739 z "},"ñ":{"ha":859,"x_min":0,"x_max":0,"o":"m 119 0 l 254 0 l 254 433 b 444 632 254 553 330 632 b 604 446 553 632 604 572 l 604 0 l 740 0 l 740 479 b 492 753 740 657 653 753 b 260 610 382 753 298 702 l 250 610 l 250 739 l 119 739 z m 335 966 b 526 862 391 966 422 862 b 685 1065 624 862 685 940 l 581 1065 b 524 964 581 996 564 964 b 333 1067 467 964 437 1067 b 173 863 235 1067 173 989 l 277 863 b 335 966 277 933 295 966 z "},"ṇ":{"ha":859,"x_min":0,"x_max":0,"o":"m 119 0 l 254 0 l 254 433 b 444 632 254 553 330 632 b 604 446 553 632 604 572 l 604 0 l 740 0 l 740 479 b 492 753 740 657 653 753 b 260 610 382 753 298 702 l 250 610 l 250 739 l 119 739 z m 429 -311 b 522 -217 479 -311 522 -268 b 429 -123 522 -166 479 -123 b 337 -217 380 -123 337 -166 b 429 -311 337 -268 380 -311 z "},"ṅ":{"ha":859,"x_min":0,"x_max":0,"o":"m 119 0 l 254 0 l 254 433 b 444 632 254 553 330 632 b 604 446 553 632 604 572 l 604 0 l 740 0 l 740 479 b 492 753 740 657 653 753 b 260 610 382 753 298 702 l 250 610 l 250 739 l 119 739 z m 429 878 b 522 971 479 878 522 920 b 429 1065 522 1023 479 1065 b 337 971 380 1065 337 1023 b 429 878 337 920 380 878 z "},"ň":{"ha":859,"x_min":0,"x_max":0,"o":"m 506 879 l 690 1114 l 545 1114 l 434 963 l 424 963 l 313 1114 l 168 1114 l 353 879 z m 119 0 l 254 0 l 254 433 b 444 632 254 553 330 632 b 604 446 553 632 604 572 l 604 0 l 740 0 l 740 479 b 492 753 740 657 653 753 b 260 610 382 753 298 702 l 250 610 l 250 739 l 119 739 z "},"ṋ":{"ha":859,"x_min":0,"x_max":0,"o":"m 119 0 l 254 0 l 254 433 b 444 632 254 553 330 632 b 604 446 553 632 604 572 l 604 0 l 740 0 l 740 479 b 492 753 740 657 653 753 b 260 610 382 753 298 702 l 250 610 l 250 739 l 119 739 z m 353 -111 l 168 -346 l 313 -346 l 424 -196 l 435 -196 l 546 -346 l 690 -346 l 506 -111 z "}}}
